<svg width="33" height="23" viewBox="0 0 33 23" fill="none" xmlns="http://www.w3.org/2000/svg">
<path fill-rule="evenodd" clip-rule="evenodd" d="M28.752 4.55441H24.7253V6.55441H28.752V4.55441ZM23.7013 12.6064C23.7013 8.71735 20.54 5.55441 16.648 5.55441C12.7573 5.55441 9.596 8.71735 9.596 12.6064C9.596 16.4987 12.7573 19.6601 16.648 19.6601C20.54 19.6601 23.7013 16.4987 23.7013 12.6064ZM32.78 4.55441V20.6867C32.78 21.7987 31.8707 22.6877 30.756 22.6877H2.54266C1.42799 22.6877 0.517334 21.7987 0.517334 20.6867V4.55441C0.517334 3.43881 1.42799 2.52801 2.54266 2.52801H4.54399C4.54399 1.41468 5.45467 0.525343 6.56934 0.525343H8.59333C9.70933 0.525343 10.5973 1.41468 10.5973 2.52801H30.756C31.8707 2.52801 32.78 3.43881 32.78 4.55441ZM21.7 12.6064C21.7 15.408 19.4253 17.6601 16.648 17.6601C13.8733 17.6601 11.62 15.408 11.62 12.6064C11.62 9.83041 13.8733 7.57881 16.648 7.57881C19.4253 7.57881 21.7 9.83041 21.7 12.6064Z" fill="#393536"/>
</svg>
