<svg width="11" height="17" viewBox="0 0 11 17" fill="none" xmlns="http://www.w3.org/2000/svg">
<path d="M5.5364 8.22935C4.06093 8.22935 2.86507 7.03468 2.86507 5.55868C2.86507 4.08402 4.06093 2.88668 5.5364 2.88668C7.01093 2.88668 8.2068 4.08402 8.2068 5.55868C8.2068 7.03468 7.01093 8.22935 5.5364 8.22935ZM5.5364 0.439999C2.69427 0.439999 0.383331 2.75202 0.383331 5.59335C0.383331 6.73735 1.1136 8.60402 2.6172 11.2974C3.68026 13.2027 4.72653 14.7907 4.76973 14.8573L5.5364 16.0187L6.30213 14.8573C6.3464 14.7907 7.39173 13.2027 8.45466 11.2974C9.9584 8.60402 10.6885 6.73735 10.6885 5.59469C10.6885 2.75202 8.37707 0.439999 5.5364 0.439999" fill="#393536"/>
</svg>
