<svg width="14" height="11" viewBox="0 0 14 11" fill="none" xmlns="http://www.w3.org/2000/svg">
<path d="M0.639065 1.70798C0.479731 1.96131 0.383331 2.25998 0.383331 2.58132V9.15065C0.383331 9.43865 0.463598 9.70531 0.594265 9.93997L4.74213 5.29733L0.639065 1.70798ZM8.5448 5.83864L7.22293 6.996C7.14586 7.064 7.04893 7.09733 6.95307 7.09733C6.8568 7.09733 6.75986 7.064 6.6828 6.996L5.3604 5.83864L1.15933 10.5413C1.41147 10.6986 1.7068 10.792 2.02506 10.792H11.8803C12.1989 10.792 12.4948 10.6986 12.7459 10.5413L8.5448 5.83864ZM6.95307 6.14131L12.6625 1.14531C12.4287 1.01598 12.1645 0.93864 11.8803 0.93864H2.02506C1.74066 0.93864 1.47653 1.01598 1.2432 1.14531L6.95307 6.14131ZM13.5224 9.15065C13.5224 9.43865 13.4412 9.70531 13.3115 9.93997L9.16253 5.29867L13.2667 1.70798C13.426 1.96131 13.5224 2.25998 13.5224 2.58132V9.15065" fill="#393536"/>
</svg>
