<svg width="24" height="25" viewBox="0 0 24 25" fill="none" xmlns="http://www.w3.org/2000/svg">
<path fill-rule="evenodd" clip-rule="evenodd" d="M15.2 18.9279C15.2 16.7799 16.9547 15.0465 19.1027 15.0465C19.288 15.0465 19.4733 15.0465 19.7013 15.0664C19.908 15.1293 20.1133 15.0465 20.28 14.9211C20.4653 14.7544 20.548 14.5492 20.548 14.3227V5.67052C20.548 5.46532 20.4653 5.25852 20.3 5.11318C20.1347 4.96945 19.928 4.90799 19.7013 4.92932L8.716 6.16639C8.34533 6.22786 8.05467 6.53879 8.05467 6.90906V20.7241C8.05467 20.7241 8.05467 20.744 8.05467 20.7653C7.972 22.8279 6.23867 24.5449 4.15333 24.5449C2.00533 24.5449 0.272003 22.7877 0.272003 20.6413C0.272003 18.4935 2.00533 16.7388 4.15333 16.7388C4.31733 16.7388 4.54666 16.7585 4.732 16.7799C4.93733 16.8211 5.14399 16.7585 5.32933 16.596C5.49466 16.4705 5.57866 16.2637 5.57866 16.0575V2.03719L23.0253 0.054388V19.0935C22.9627 21.1361 21.2293 22.8279 19.1027 22.8279C16.9547 22.8279 15.2 21.096 15.2 18.9279Z" fill="#393536"/>
</svg>
