<svg width="12" height="12" viewBox="0 0 12 12" fill="none" xmlns="http://www.w3.org/2000/svg">
<path d="M11.9407 9.37601C11.9645 9.56268 11.9079 9.72536 11.7693 9.86536L10.1412 11.4813C10.0677 11.5627 9.97186 11.632 9.85306 11.6894C9.73546 11.7467 9.61879 11.7827 9.50412 11.7987C9.49639 11.7987 9.47186 11.8013 9.43119 11.8053C9.39066 11.8093 9.33746 11.812 9.27186 11.812C9.11719 11.812 8.86559 11.784 8.51932 11.732C8.17239 11.6787 7.74785 11.5493 7.24585 11.34C6.74479 11.132 6.17506 10.82 5.53852 10.404C4.90212 9.988 4.22506 9.41602 3.50626 8.69069C2.93546 8.12669 2.46199 7.58804 2.08639 7.07471C1.71146 6.56004 1.40932 6.08535 1.18066 5.64801C0.952124 5.21201 0.781189 4.81599 0.666123 4.45999C0.552656 4.10533 0.475056 3.80001 0.433856 3.54268C0.393722 3.28534 0.376521 3.084 0.385455 2.93734C0.393721 2.78934 0.397324 2.70936 0.397324 2.69203C0.413991 2.57736 0.450521 2.46134 0.507855 2.34268C0.565055 2.22401 0.633856 2.12932 0.71559 2.05466L2.34319 0.428028C2.45839 0.313361 2.58799 0.256023 2.73545 0.256023C2.84172 0.256023 2.93546 0.286682 3.01666 0.348015C3.09892 0.409348 3.16772 0.485374 3.22505 0.574708L4.53492 3.05869C4.60839 3.18936 4.62865 3.33199 4.59639 3.48799C4.56359 3.64266 4.49372 3.77205 4.38746 3.88005L3.78799 4.48005C3.77186 4.49471 3.75786 4.52136 3.74532 4.55869C3.73332 4.59603 3.72706 4.62535 3.72706 4.65068C3.75932 4.82268 3.83279 5.01734 3.94692 5.23734C4.04532 5.43467 4.19639 5.67199 4.39999 5.95466C4.60412 6.23599 4.89372 6.56003 5.26932 6.92803C5.63639 7.30269 5.96252 7.5947 6.24839 7.8027C6.53439 8.0107 6.77239 8.16266 6.96452 8.26266C7.15679 8.36 7.30359 8.41867 7.40519 8.43867L7.55839 8.46937C7.57452 8.46937 7.60052 8.46402 7.63746 8.45068C7.67506 8.43868 7.70105 8.42534 7.71772 8.40801L8.41506 7.69867C8.56252 7.568 8.73332 7.5027 8.92972 7.5027C9.06825 7.5027 9.17812 7.52668 9.25932 7.57601H9.27186L11.6344 8.97201C11.8057 9.07734 11.9079 9.21334 11.9407 9.37601" fill="#393536"/>
</svg>
