<svg width="548" height="483" viewBox="0 0 548 483" fill="none" xmlns="http://www.w3.org/2000/svg">
<g filter="url(#filter0_d_336:5)">
<path d="M83.0544 428.75C188.46 489.344 359.368 489.344 464.774 428.75C570.18 368.157 570.18 269.913 464.774 209.307C359.368 148.7 188.508 148.713 83.0544 209.307C-22.3997 269.9 -22.3033 368.157 83.0544 428.75Z" fill="#F5F5F5"/>
<path d="M53.6717 329.379L19.4082 307.617V226.746L53.6717 248.522V329.379Z" fill="#E0E0E0"/>
<path d="M53.6719 248.522L102.627 217.423V298.28L53.6719 329.379V248.522Z" fill="#EBEBEB"/>
<path d="M102.627 217.423L53.6717 248.522L19.4082 226.746L68.363 195.647L102.627 217.423Z" fill="#F5F5F5"/>
<path d="M58.577 251.626L97.7336 226.746L98.6375 227.317V257.275L59.4688 282.154L58.5649 281.584L58.577 251.626Z" fill="#E0E0E0"/>
<path d="M59.4688 252.209L98.6374 227.316V257.275L59.4688 282.154V252.209Z" fill="#F5F5F5"/>
<path d="M74.8228 247.527L81.4875 243.297C82.3432 242.74 83.0422 242.992 83.0422 243.854C82.9801 244.382 82.8074 244.887 82.5376 245.329C82.2678 245.77 81.9083 246.137 81.4875 246.4L74.8228 250.631C73.9551 251.188 73.2561 250.936 73.2561 250.074C73.3186 249.544 73.4928 249.038 73.7649 248.596C74.0369 248.154 74.3992 247.788 74.8228 247.527Z" fill="#E0E0E0"/>
<path d="M57.6729 289.527L96.8294 264.648V294.607L97.7333 295.177L58.5647 320.056L57.6729 319.486V289.527Z" fill="#E0E0E0"/>
<path d="M58.5649 290.098L97.7336 265.219V295.178L58.5649 320.057V290.098Z" fill="#F5F5F5"/>
<path d="M73.9191 285.43L80.644 281.213C81.5118 280.656 82.2108 280.908 82.2108 281.77C82.1483 282.299 81.9741 282.805 81.702 283.248C81.43 283.69 81.0676 284.056 80.644 284.316L73.9793 288.547C73.1116 289.104 72.4126 288.852 72.4126 287.99C72.4668 287.464 72.631 286.959 72.8924 286.515C73.1538 286.071 73.5052 285.699 73.9191 285.43Z" fill="#E0E0E0"/>
<path d="M53.6717 243.854L19.4082 222.078V141.22L53.6717 162.983V243.854Z" fill="#E0E0E0"/>
<path d="M53.6719 162.983L102.627 131.884V212.755L53.6719 243.854V162.983Z" fill="#EBEBEB"/>
<path d="M102.627 131.884L53.6717 162.983L19.4082 141.22L68.363 110.121L102.627 131.884Z" fill="#F5F5F5"/>
<path d="M58.5649 166.099L97.7336 141.22L98.6375 141.79V171.749L59.4688 196.628L58.5649 196.045V166.099Z" fill="#E0E0E0"/>
<path d="M74.8228 161.988L81.4755 157.758C82.3432 157.214 83.0422 157.466 83.0422 158.328C82.9779 158.857 82.803 159.362 82.5311 159.804C82.2592 160.246 81.8979 160.612 81.4755 160.874L74.8228 165.105C73.9551 165.649 73.2561 165.41 73.2561 164.548C73.3195 164.017 73.494 163.509 73.7659 163.065C74.0378 162.621 74.3996 162.252 74.8228 161.988Z" fill="#E0E0E0"/>
<path d="M57.6729 204.002L96.8294 179.123V209.068L97.7333 209.638L58.5647 234.518L57.6729 233.947V204.002Z" fill="#E0E0E0"/>
<path d="M58.5649 204.572L97.7336 179.693V209.638L58.5649 234.517V204.572Z" fill="#F5F5F5"/>
<path d="M73.9188 199.891L80.6438 195.66C81.4994 195.117 82.2105 195.369 82.2105 196.231C82.1427 196.758 81.9663 197.262 81.6948 197.703C81.4232 198.144 81.0638 198.512 80.6438 198.777L73.9188 202.968C73.0511 203.511 72.3521 203.259 72.3521 202.411C72.4207 201.887 72.5977 201.387 72.8693 200.95C73.1409 200.514 73.4999 200.151 73.9188 199.891Z" fill="#E0E0E0"/>
<path d="M58.5649 166.099L97.7336 141.22V171.165L58.5649 196.045V166.099Z" fill="#E0E0E0"/>
<path d="M117.318 156.021L95.8774 142.401V168.792L117.318 182.398V156.021Z" fill="#E0E0E0"/>
<path d="M73.2561 200.315V162.983L81.6563 157.625L83.0422 159.88L107.52 144.324V178.539L73.2561 200.315Z" fill="#EBEBEB"/>
<path d="M73.2561 200.315L75.7026 167.651L109.966 145.888L107.52 178.539L73.2561 200.315Z" fill="#F5F5F5"/>
<path d="M78.1492 180.9L59.4688 169.03V195.421L78.1492 207.277V180.9Z" fill="#EBEBEB"/>
<path d="M78.1492 178.539L117.318 153.66V183.605L78.1492 208.484V178.539Z" fill="#F5F5F5"/>
<path d="M93.5033 173.858L100.156 169.627C101.024 169.084 101.723 169.335 101.723 170.198C101.657 170.726 101.482 171.231 101.21 171.673C100.939 172.114 100.578 172.481 100.156 172.744L93.5033 176.974C92.6355 177.518 91.9365 177.266 91.9365 176.417C92 175.886 92.1745 175.379 92.4463 174.935C92.7182 174.491 93.08 174.122 93.5033 173.858Z" fill="#E0E0E0"/>
<path d="M78.1493 178.539L76.8477 177.716V207.662L78.1493 208.484V178.539Z" fill="#E0E0E0"/>
<path d="M76.8477 177.717L116.004 152.824L117.318 153.66L78.1493 178.539L76.8477 177.717Z" fill="#EBEBEB"/>
<path d="M458.471 280.39L424.195 258.614V177.756L458.471 199.519V280.39Z" fill="#E0E0E0"/>
<path d="M458.471 199.52L507.425 168.421V249.291L458.471 280.39V199.52Z" fill="#EBEBEB"/>
<path d="M507.426 168.42L458.471 199.519L424.195 177.757L473.162 146.644L507.426 168.42Z" fill="#F5F5F5"/>
<path d="M463.364 202.636L502.532 177.756L503.436 178.327L503.424 208.272L464.268 233.151L463.364 232.581V202.636Z" fill="#E0E0E0"/>
<path d="M464.268 203.206L503.436 178.327L503.424 208.273L464.268 233.152V203.206Z" fill="#F5F5F5"/>
<path d="M479.622 198.525L486.275 194.294C487.142 193.751 487.841 194.003 487.841 194.851C487.778 195.382 487.603 195.89 487.332 196.334C487.06 196.778 486.698 197.147 486.275 197.411L479.622 201.642C478.754 202.185 478.055 201.933 478.055 201.085C478.119 200.554 478.293 200.046 478.565 199.602C478.837 199.158 479.199 198.789 479.622 198.525Z" fill="#E0E0E0"/>
<path d="M462.46 240.538L501.629 215.646V245.604L502.533 246.175L463.364 271.054L462.46 270.483V240.538Z" fill="#E0E0E0"/>
<path d="M463.364 241.108L502.532 216.229V246.174L463.364 271.053V241.108Z" fill="#F5F5F5"/>
<path d="M478.718 236.427L485.383 232.196C486.238 231.652 486.937 231.904 486.937 232.753C486.874 233.282 486.7 233.788 486.431 234.232C486.161 234.676 485.803 235.045 485.383 235.313L478.718 239.543C477.85 240.087 477.151 239.835 477.151 238.973C477.217 238.444 477.392 237.94 477.664 237.498C477.935 237.056 478.296 236.69 478.718 236.427Z" fill="#E0E0E0"/>
<path d="M132.467 364.908C132.467 364.908 132.6 343.875 120.548 328.107C109.882 314.142 104.205 305.283 107.568 301.198C110.93 297.114 118.161 296.132 127.911 307.432C137.661 318.731 138.421 350.029 137.071 357.11L132.467 364.908Z" fill="#02897A"/>
<path opacity="0.2" d="M132.467 364.908C132.467 364.908 132.6 343.875 120.548 328.107C109.882 314.142 104.205 305.283 107.568 301.198C110.93 297.114 118.161 296.132 127.911 307.432C137.661 318.731 138.421 350.029 137.071 357.11L132.467 364.908Z" fill="black"/>
<path d="M134.492 342.297C134.354 342.297 134.221 342.246 134.114 342.152C134.006 342.058 133.931 341.927 133.901 341.779C129.683 320.07 118.86 308.068 112.774 302.843C112.648 302.735 112.566 302.577 112.546 302.403C112.525 302.229 112.569 302.053 112.666 301.914C112.766 301.775 112.911 301.684 113.071 301.662C113.231 301.639 113.393 301.687 113.521 301.795C119.728 307.1 130.78 319.38 135.082 341.501C135.1 341.585 135.102 341.673 135.088 341.758C135.075 341.844 135.046 341.925 135.003 341.998C134.961 342.071 134.905 342.134 134.84 342.183C134.775 342.232 134.701 342.266 134.624 342.283L134.492 342.297Z" fill="white"/>
<path d="M132.009 372.72L127.104 375.836C126.581 374.263 125.698 372.864 124.542 371.775C123.385 370.686 121.993 369.942 120.5 369.616C115.136 368.29 109.568 368.516 105.808 363.397C102.048 358.278 106.628 352.708 105.808 348.941C104.989 345.175 104.458 344.087 97.7335 340.321C91.0086 336.555 88.3572 330.308 93.419 326.078C98.4807 321.847 106.676 324.951 111.641 328.73C116.052 332.046 120.246 332.921 125.176 333.597C130.105 334.274 138.131 337.284 136.902 349.883C136.097 357.681 134.455 365.347 132.009 372.72Z" fill="#02897A"/>
<path d="M113.184 356.169C113.056 356.168 112.931 356.122 112.827 356.039C112.723 355.956 112.646 355.839 112.606 355.705C112.56 355.536 112.576 355.354 112.65 355.198C112.725 355.042 112.851 354.924 113.003 354.869C113.437 354.723 123.85 351.09 128.273 354.989C128.383 355.103 128.45 355.258 128.46 355.424C128.471 355.589 128.425 355.753 128.331 355.884C128.237 356.014 128.102 356.1 127.953 356.126C127.804 356.152 127.652 356.115 127.526 356.023C123.621 352.575 113.473 356.103 113.365 356.142L113.184 356.169Z" fill="white"/>
<path d="M132.551 371.711C132.405 371.712 132.263 371.653 132.154 371.545C132.045 371.437 131.976 371.288 131.961 371.128C129.273 343.198 98.6977 329.95 98.3964 329.817C98.3217 329.786 98.2533 329.739 98.1952 329.679C98.1371 329.619 98.0904 329.547 98.0579 329.466C98.0254 329.386 98.0077 329.3 98.0058 329.212C98.0039 329.124 98.0179 329.037 98.0469 328.955C98.1062 328.794 98.2192 328.665 98.3628 328.593C98.5063 328.522 98.6694 328.514 98.8182 328.57C99.1436 328.716 130.394 342.243 133.154 371.008C133.171 371.182 133.125 371.357 133.025 371.493C132.926 371.63 132.782 371.718 132.624 371.738L132.551 371.711Z" fill="white"/>
<path d="M432.318 354.379C432.451 353.914 437.621 324.632 432.318 303.864C427.498 284.82 421.207 277.791 412.24 276.24C403.273 274.688 399.381 281.796 404.141 291.425C408.902 301.053 420.363 313.824 423.171 335.335C424.376 344.193 425.292 351.885 425.292 351.885L432.318 354.379Z" fill="#02897A"/>
<path opacity="0.2" d="M432.318 354.379C432.451 353.914 437.621 324.632 432.318 303.864C427.498 284.82 421.207 277.791 412.24 276.24C403.273 274.688 399.381 281.796 404.141 291.425C408.902 301.053 420.363 313.824 423.171 335.335C424.376 344.193 425.292 351.885 425.292 351.885L432.318 354.379Z" fill="black"/>
<path d="M429.293 337.562C429.214 337.557 429.136 337.535 429.065 337.497C428.994 337.459 428.93 337.406 428.877 337.34C428.825 337.275 428.784 337.199 428.758 337.117C428.733 337.034 428.722 336.947 428.727 336.86C429.932 313.147 422.894 291.982 410.275 281.598C410.147 281.492 410.063 281.335 410.04 281.161C410.018 280.987 410.059 280.81 410.155 280.669C410.252 280.531 410.395 280.441 410.552 280.416C410.71 280.391 410.869 280.434 410.998 280.537C423.93 291.146 431.185 312.789 429.92 336.939C429.91 337.113 429.84 337.275 429.722 337.392C429.605 337.508 429.451 337.57 429.293 337.562Z" fill="white"/>
<path d="M446.19 369.63C445.503 364.179 448.347 356.01 455.108 354.074C461.869 352.137 464.882 347.867 462.448 343.199C460.013 338.531 460.58 334.247 466.714 332.311C472.849 330.375 478.224 327.006 474.693 319.871C472.126 314.712 471.559 311.37 477.85 301.212C483.069 292.777 478.802 287.831 472.27 288.759C465.738 289.687 461.701 298.255 457.615 299.687C453.529 301.119 452.589 293.48 447.202 296.902C441.815 300.323 442.14 309.089 441.972 315.203C441.803 321.317 441.441 322.696 436.572 321.953C431.703 321.211 426.931 322.086 427.039 335.043C427.124 346.156 432.511 359.922 432.511 359.922L446.19 369.63Z" fill="#02897A"/>
<path d="M437.645 361.341H437.585C437.424 361.321 437.276 361.232 437.175 361.093C437.073 360.954 437.025 360.776 437.042 360.598C440.441 327.192 466.497 299.01 473.294 293.295C473.422 293.187 473.584 293.14 473.743 293.164C473.902 293.188 474.047 293.28 474.144 293.421C474.242 293.561 474.284 293.739 474.263 293.914C474.241 294.09 474.158 294.248 474.03 294.356C467.317 299.992 441.598 327.802 438.248 360.744C438.23 360.907 438.159 361.058 438.048 361.168C437.938 361.277 437.794 361.339 437.645 361.341Z" fill="white"/>
<path d="M449.528 325.627C449.406 325.626 449.287 325.586 449.186 325.51C449.085 325.434 449.007 325.328 448.962 325.203C448.91 325.036 448.919 324.853 448.986 324.693C449.054 324.532 449.174 324.406 449.323 324.341C459.037 320.362 470.053 322.246 470.523 322.325C470.679 322.354 470.818 322.45 470.911 322.592C471.003 322.733 471.041 322.909 471.017 323.081C470.987 323.252 470.9 323.405 470.773 323.508C470.645 323.611 470.487 323.658 470.33 323.638C470.221 323.638 459.158 321.728 449.745 325.588C449.675 325.614 449.602 325.627 449.528 325.627Z" fill="white"/>
<path d="M440.875 345.705C440.79 345.704 440.707 345.684 440.63 345.645C440.553 345.606 440.485 345.55 440.429 345.48C436.389 340.303 433.651 334.053 432.487 327.351C432.475 327.265 432.479 327.177 432.497 327.092C432.516 327.007 432.55 326.928 432.597 326.857C432.644 326.787 432.704 326.728 432.771 326.683C432.839 326.638 432.915 326.608 432.993 326.595C433.071 326.582 433.151 326.586 433.228 326.607C433.305 326.628 433.378 326.665 433.442 326.717C433.505 326.768 433.559 326.833 433.6 326.908C433.641 326.983 433.668 327.066 433.68 327.152C434.832 333.59 437.467 339.595 441.333 344.591C441.408 344.689 441.457 344.808 441.473 344.935C441.489 345.062 441.472 345.191 441.424 345.308C441.376 345.425 441.299 345.524 441.202 345.594C441.105 345.665 440.991 345.703 440.875 345.705Z" fill="white"/>
<path d="M132.009 167.465V372.732L322.935 251.439L322.923 64.8315L180.964 155.025L176.059 139.469L132.009 167.465Z" fill="#22343D"/>
<path d="M132.009 372.732L141.795 186.124L332.722 64.8315L322.935 251.439L132.009 372.732Z" fill="#E0E0E0"/>
<path d="M132.009 372.732L146.688 189.241L337.615 67.9353L322.935 251.439L132.009 372.732Z" fill="#22343D"/>
<path d="M161.38 186.125V391.405L352.306 270.099V83.4918L210.334 173.686L205.441 158.129L161.38 186.125Z" fill="#F03E3D"/>
<path d="M161.38 391.405L171.166 204.785L362.092 83.4918L352.306 270.099L161.38 391.405Z" fill="#E0E0E0"/>
<path d="M161.38 391.405L176.059 207.901L366.985 86.5948L352.306 270.099L161.38 391.405Z" fill="#F03E3D"/>
<path d="M322.887 456.72C288.611 434.944 256.819 411.272 242.308 383.501L286.418 355.479L322.887 456.72Z" fill="#E0E0E0"/>
<path d="M195.643 207.901V413.168L386.569 291.875V105.267L244.598 195.461L239.705 179.905L195.643 207.901Z" fill="#02897A"/>
<path opacity="0.2" d="M195.643 207.901V413.168L386.569 291.875V105.267L244.598 195.461L239.705 179.905L195.643 207.901Z" fill="black"/>
<path d="M250.648 268.587C250.166 268.587 250.094 267.977 250.094 267.619V92.5622C250.132 91.8831 250.313 91.2231 250.623 90.6341C250.932 90.045 251.362 89.5429 251.877 89.1671L389.679 1.63895C389.867 1.50943 390.083 1.43629 390.305 1.42676C390.787 1.42676 390.86 2.03681 390.86 2.39488V177.451C390.822 178.132 390.641 178.795 390.332 179.386C390.022 179.977 389.592 180.482 389.076 180.86L251.275 268.388C251.084 268.511 250.869 268.579 250.648 268.587Z" fill="white"/>
<path d="M390.233 2.03725C390.243 2.13421 390.243 2.23206 390.233 2.32902V177.385C390.193 177.95 390.04 178.498 389.783 178.989C389.527 179.48 389.174 179.902 388.751 180.223L250.949 267.752L250.708 267.871C250.692 267.775 250.692 267.676 250.708 267.579V92.5229C250.75 91.9605 250.904 91.4154 251.16 90.9269C251.417 90.4383 251.769 90.0186 252.19 89.6981L389.992 2.16987C390.068 2.11137 390.154 2.07074 390.245 2.05052L390.233 2.03725ZM390.317 0.724333C389.989 0.735085 389.669 0.840253 389.389 1.02936L251.588 88.5575C250.982 88.9954 250.478 89.5834 250.116 90.2743C249.754 90.9652 249.544 91.7398 249.503 92.5361V267.593C249.503 268.627 249.973 269.224 250.708 269.224C251.037 269.214 251.357 269.109 251.636 268.919L389.437 181.39C390.046 180.956 390.552 180.368 390.914 179.677C391.277 178.985 391.485 178.209 391.522 177.412V2.35554C391.522 1.32112 391.052 0.711071 390.317 0.724333Z" fill="#02897A"/>
<path opacity="0.7" d="M390.233 2.03725C390.243 2.13421 390.243 2.23206 390.233 2.32902V177.385C390.193 177.95 390.04 178.498 389.783 178.989C389.527 179.48 389.174 179.902 388.751 180.223L250.949 267.752L250.708 267.871C250.692 267.775 250.692 267.676 250.708 267.579V92.5229C250.75 91.9605 250.904 91.4154 251.16 90.9269C251.417 90.4383 251.769 90.0186 252.19 89.6981L389.992 2.16987C390.068 2.11137 390.154 2.07074 390.245 2.05052L390.233 2.03725ZM390.317 0.724333C389.989 0.735085 389.669 0.840253 389.389 1.02936L251.588 88.5575C250.982 88.9954 250.478 89.5834 250.116 90.2743C249.754 90.9652 249.544 91.7398 249.503 92.5361V267.593C249.503 268.627 249.973 269.224 250.708 269.224C251.037 269.214 251.357 269.109 251.636 268.919L389.437 181.39C390.046 180.956 390.552 180.368 390.914 179.677C391.277 178.985 391.485 178.209 391.522 177.412V2.35554C391.522 1.32112 391.052 0.711071 390.317 0.724333Z" fill="white"/>
<path d="M264.182 99.2069L313.137 68.1079V130.306L264.182 161.405V99.2069Z" fill="#02897A"/>
<path opacity="0.8" d="M264.182 99.2069L313.137 68.1079V130.306L264.182 161.405V99.2069Z" fill="#11B5E4"/>
<path d="M305.797 83.6113V102.311L304.255 103.252V97.5363C304.255 94.3799 301.929 93.3057 299.036 95.1359L278.295 108.331C275.415 110.162 273.076 114.206 273.076 117.363V123.079L271.546 124.086V105.427L305.797 83.6113Z" fill="white"/>
<path d="M296.373 131.221C293.866 132.812 291.829 131.141 291.829 127.468V97.5359L285.526 101.302V131.473C285.526 135.133 283.489 139.43 280.982 140.982L276.427 143.873V145.862L300.904 130.306V128.33L296.373 131.221Z" fill="white"/>
<path d="M322.887 65.0446C322.887 66.7687 324.297 67.2594 326.02 66.1719L373.649 35.8686C374.494 35.3415 375.217 34.6062 375.761 33.7204C376.304 32.8346 376.654 31.8223 376.783 30.7628C376.783 29.052 375.373 28.548 373.649 29.6488L326.056 59.8858C325.197 60.4118 324.463 61.1529 323.912 62.0491C323.362 62.9453 323.01 63.9714 322.887 65.0446Z" fill="#455A64"/>
<path d="M322.887 83.6111C322.887 85.3352 324.297 85.8391 326.02 84.7384L373.613 54.5014C374.458 53.9743 375.181 53.239 375.725 52.3532C376.268 51.4674 376.618 50.4551 376.747 49.3956C376.747 47.6848 375.337 47.1808 373.613 48.2816L326.02 78.5186C325.177 79.0444 324.455 79.7775 323.911 80.6609C323.368 81.5443 323.017 82.554 322.887 83.6111Z" fill="#455A64"/>
<path d="M322.887 102.31C322.887 104.034 324.297 104.538 326.02 103.437L373.613 73.1999C374.457 72.6741 375.178 71.9409 375.722 71.0575C376.266 70.1741 376.616 69.1645 376.747 68.1073C376.747 66.3833 375.337 65.8793 373.613 66.9801L326.02 97.2171C325.177 97.7428 324.455 98.476 323.911 99.3594C323.368 100.243 323.017 101.252 322.887 102.31Z" fill="#455A64"/>
<path d="M322.887 120.97C322.887 122.694 324.297 123.198 326.02 122.097L373.613 91.8601C374.457 91.3344 375.178 90.6012 375.722 89.7178C376.266 88.8344 376.616 87.8247 376.747 86.7676C376.747 85.0436 375.337 84.5396 373.613 85.6403L326.02 115.877C325.177 116.403 324.455 117.136 323.911 118.02C323.368 118.903 323.017 119.913 322.887 120.97Z" fill="#455A64"/>
<path d="M264.182 176.961C264.182 178.685 265.58 179.189 267.316 178.089L373.649 110.453C374.494 109.929 375.217 109.196 375.761 108.313C376.304 107.429 376.654 106.418 376.783 105.361C376.783 103.637 375.373 103.146 373.649 104.233L267.316 171.869C266.47 172.392 265.747 173.125 265.203 174.009C264.659 174.892 264.31 175.903 264.182 176.961Z" fill="#455A64"/>
<path d="M264.182 195.62C264.182 197.344 265.58 197.848 267.316 196.747L373.649 129.192C374.495 128.664 375.217 127.929 375.761 127.043C376.305 126.158 376.654 125.145 376.783 124.086C376.783 122.375 375.373 121.871 373.649 122.972L267.316 190.528C266.47 191.051 265.747 191.784 265.203 192.667C264.659 193.551 264.31 194.562 264.182 195.62Z" fill="#455A64"/>
<path d="M264.182 214.293C264.182 216.004 265.58 216.507 267.316 215.407L373.649 147.851C374.495 147.324 375.217 146.589 375.761 145.703C376.305 144.817 376.654 143.805 376.783 142.745C376.783 141.034 375.373 140.53 373.649 141.631L267.316 209.187C266.469 209.712 265.745 210.446 265.201 211.332C264.657 212.219 264.308 213.232 264.182 214.293Z" fill="#455A64"/>
<path d="M195.643 413.168L229.907 248.336L420.833 127.03L386.569 291.875L195.643 413.168Z" fill="#02897A"/>
<path d="M242.356 261.24V383.501L286.418 355.505V233.257L242.356 261.24Z" fill="#02897A"/>
<path opacity="0.2" d="M242.356 261.24V383.501L286.418 355.505V233.257L242.356 261.24Z" fill="black"/>
<path d="M322.971 455.924C319.223 452.848 283.092 422.465 264.725 379.006C245.176 332.801 245.2 278.905 245.2 258.628V257.991L376.18 174.786C376.18 195.25 376.18 249.225 395.813 295.589C413.758 338.027 448.504 368.025 454.012 372.613L322.971 455.924Z" fill="white"/>
<path d="M375.578 175.98C375.578 197.305 375.952 250.246 395.271 295.92C412.613 336.899 445.587 366.367 452.927 372.587L323.008 455.128C317.934 450.924 283.164 421.045 265.279 378.78C245.755 332.708 245.755 278.918 245.755 258.667V258.415L375.53 175.967L375.578 175.98ZM376.735 173.672L244.55 257.659C244.55 276.743 244.188 332.191 264.134 379.337C283.767 425.608 322.887 456.72 322.887 456.72L455.108 372.719C455.108 372.719 415.94 341.607 396.367 295.336C376.41 248.191 376.783 192.743 376.783 173.659L376.735 173.672Z" fill="#02897A"/>
<path opacity="0.7" d="M375.578 175.98C375.578 197.305 375.952 250.246 395.271 295.92C412.613 336.899 445.587 366.367 452.927 372.587L323.008 455.128C317.934 450.924 283.164 421.045 265.279 378.78C245.755 332.708 245.755 278.918 245.755 258.667V258.415L375.53 175.967L375.578 175.98ZM376.735 173.672L244.55 257.659C244.55 276.743 244.188 332.191 264.134 379.337C283.767 425.608 322.887 456.72 322.887 456.72L455.108 372.719C455.108 372.719 415.94 341.607 396.367 295.336C376.41 248.191 376.783 192.743 376.783 173.659L376.735 173.672Z" fill="white"/>
<path d="M361.827 201.84L320.031 228.364C319.194 228.87 318.481 229.592 317.952 230.467C317.423 231.342 317.095 232.345 316.994 233.39C317.054 235.074 318.512 235.552 320.236 234.451L362.044 207.927C362.87 207.425 363.576 206.713 364.102 205.851C364.628 204.988 364.96 203.999 365.069 202.967C364.996 201.217 363.562 200.739 361.827 201.84Z" fill="#455A64"/>
<path d="M362.718 219.943L320.922 246.466C320.096 246.956 319.395 247.667 318.885 248.534C318.375 249.401 318.073 250.396 318.006 251.426C318.138 253.057 319.657 253.495 321.38 252.394L363.188 225.871C364.011 225.383 364.707 224.674 365.211 223.808C365.715 222.943 366.01 221.95 366.069 220.924C365.948 219.279 364.454 218.882 362.718 219.943Z" fill="#455A64"/>
<path d="M364.394 237.541L322.586 264.065C320.862 265.166 319.609 267.354 319.814 268.932C320.019 270.51 321.598 270.921 323.333 269.821L365.141 243.297C366.865 242.196 368.094 240.021 367.877 238.443C367.66 236.865 366.117 236.441 364.394 237.541Z" fill="#455A64"/>
<path d="M366.9 254.609L325.092 281.133C323.369 282.234 322.176 284.382 322.465 285.92C322.754 287.459 324.393 287.804 326.081 286.703L367.877 260.179C369.612 259.078 370.769 256.943 370.48 255.405C370.191 253.867 368.684 253.508 366.9 254.609Z" fill="#455A64"/>
<path d="M370.299 271.107L328.491 297.631C326.768 298.732 325.647 300.827 326.081 302.299C326.515 303.771 328.166 304.103 329.889 303.002L371.697 276.478C373.433 275.377 374.517 273.295 374.108 271.81C373.698 270.325 372.023 270.006 370.299 271.107Z" fill="#455A64"/>
<path d="M374.71 287.008L272.824 351.739C271.1 352.84 270.052 354.882 270.522 356.301C270.992 357.72 272.787 357.986 274.511 356.885L376.398 292.154C378.133 291.053 379.133 289.024 378.663 287.592C378.193 286.16 376.373 285.908 374.71 287.008Z" fill="#455A64"/>
<path d="M380.073 302.193L278.198 366.924C276.463 368.024 275.511 370.014 276.089 371.366C276.668 372.719 278.5 372.931 280.259 371.831L382.146 307.099C383.881 305.999 384.809 304.01 384.231 302.657C383.652 301.304 381.809 301.105 380.073 302.193Z" fill="#455A64"/>
<path d="M386.762 316.662L284.875 381.393C283.14 382.493 282.284 384.43 282.971 385.716C283.658 387.002 285.623 387.135 287.358 386.034L389.173 321.303C390.896 320.216 391.727 318.293 391.041 317.006C390.354 315.72 388.449 315.561 386.762 316.662Z" fill="#455A64"/>
<path d="M394.56 330.348L292.685 395.066C290.949 396.166 290.178 398.063 290.962 399.27C291.745 400.476 293.806 400.596 295.541 399.482L397.416 334.751C399.151 333.65 399.899 331.78 399.115 330.56C398.332 329.34 396.295 329.247 394.56 330.348Z" fill="#455A64"/>
<path d="M403.454 343.357L301.567 408.075C299.844 409.176 299.157 411.019 300.024 412.173C300.892 413.327 303.025 413.38 304.761 412.279L406.647 347.522C408.371 346.421 409.058 344.604 408.166 343.45C407.274 342.296 405.189 342.217 403.454 343.357Z" fill="#455A64"/>
<path d="M413.276 355.744L311.426 420.461C309.69 421.562 309.015 423.366 310.028 424.44C311.04 425.514 313.185 425.541 314.909 424.44L416.796 359.709C418.531 358.608 419.134 356.831 418.169 355.73C417.205 354.63 415.036 354.656 413.276 355.744Z" fill="#455A64"/>
<path d="M424.123 367.587L322.236 432.305C320.513 433.406 319.946 435.169 321.031 436.217C322.116 437.265 324.333 437.225 326.069 436.124L427.871 371.393C429.594 370.292 430.137 368.568 429.076 367.507C428.016 366.446 425.81 366.486 424.123 367.587Z" fill="#455A64"/>
<path d="M304.881 238.032L256.818 268.534C257.349 287.697 259.337 315.335 266.617 343.172L314.692 312.67C307.4 284.833 305.412 257.182 304.881 238.032Z" fill="#02897A"/>
<path opacity="0.8" d="M304.881 238.032L256.818 268.534C257.349 287.697 259.337 315.335 266.617 343.172L314.692 312.67C307.4 284.833 305.412 257.182 304.881 238.032Z" fill="#11B5E4"/>
<path d="M276.415 264.317C276.48 263.08 276.305 261.842 275.902 260.685C275.498 259.528 274.876 258.478 274.077 257.606L256.818 268.56C256.963 273.626 257.204 279.289 257.626 285.39C259.871 285.674 262.142 285.212 264.146 284.064C270.931 280.642 276.415 271.77 276.415 264.317Z" fill="#02897A"/>
<path opacity="0.6" d="M276.415 264.317C276.48 263.08 276.305 261.842 275.902 260.685C275.498 259.528 274.876 258.478 274.077 257.606L256.818 268.56C256.963 273.626 257.204 279.289 257.626 285.39C259.871 285.674 262.142 285.212 264.146 284.064C270.931 280.642 276.415 271.77 276.415 264.317Z" fill="white"/>
<path d="M310.606 294.369C307.4 289.926 300.88 276.2 298.096 270.219C297.987 269.982 297.815 269.787 297.604 269.659C297.393 269.531 297.152 269.476 296.912 269.5C296.672 269.524 296.444 269.627 296.257 269.795C296.071 269.964 295.935 270.19 295.867 270.444C292.855 281.773 291.106 293.463 290.66 305.256C286.646 301.75 283.196 297.527 280.452 292.764C280.335 292.579 280.173 292.435 279.984 292.349C279.795 292.263 279.588 292.238 279.386 292.277C279.185 292.316 278.998 292.417 278.847 292.569C278.697 292.721 278.589 292.918 278.536 293.135C273.281 315.402 275.921 337.31 275.921 337.31L314.692 312.67C313.077 306.516 311.739 300.389 310.606 294.369Z" fill="#02897A"/>
<path opacity="0.6" d="M310.606 294.369C307.4 289.926 300.88 276.2 298.096 270.219C297.987 269.982 297.815 269.787 297.604 269.659C297.393 269.531 297.152 269.476 296.912 269.5C296.672 269.524 296.444 269.627 296.257 269.795C296.071 269.964 295.935 270.19 295.867 270.444C292.855 281.773 291.106 293.463 290.66 305.256C286.646 301.75 283.196 297.527 280.452 292.764C280.335 292.579 280.173 292.435 279.984 292.349C279.795 292.263 279.588 292.238 279.386 292.277C279.185 292.316 278.998 292.417 278.847 292.569C278.697 292.721 278.589 292.918 278.536 293.135C273.281 315.402 275.921 337.31 275.921 337.31L314.692 312.67C313.077 306.516 311.739 300.389 310.606 294.369Z" fill="white"/>
</g>
<defs>
<filter id="filter0_d_336:5" x="0" y="0.724121" width="547.828" height="481.471" filterUnits="userSpaceOnUse" color-interpolation-filters="sRGB">
<feFlood flood-opacity="0" result="BackgroundImageFix"/>
<feColorMatrix in="SourceAlpha" type="matrix" values="0 0 0 0 0 0 0 0 0 0 0 0 0 0 0 0 0 0 127 0" result="hardAlpha"/>
<feOffset dy="4"/>
<feGaussianBlur stdDeviation="2"/>
<feComposite in2="hardAlpha" operator="out"/>
<feColorMatrix type="matrix" values="0 0 0 0 0 0 0 0 0 0 0 0 0 0 0 0 0 0 0.25 0"/>
<feBlend mode="normal" in2="BackgroundImageFix" result="effect1_dropShadow_336:5"/>
<feBlend mode="normal" in="SourceGraphic" in2="effect1_dropShadow_336:5" result="shape"/>
</filter>
</defs>
</svg>
