<svg width="338" height="314" viewBox="0 0 338 314" fill="none" xmlns="http://www.w3.org/2000/svg">
<path d="M49.4981 287.2C115.499 321.677 222.501 321.677 288.502 287.2C354.503 252.722 354.495 196.827 288.502 162.349C222.508 127.872 115.499 127.872 49.4981 162.349C-16.5033 196.827 -16.4954 252.722 49.4981 287.2Z" fill="#F5F5F5"/>
<path d="M289.408 202.223C302.272 202.223 312.7 197.254 312.7 191.124C312.7 184.994 302.272 180.025 289.408 180.025C276.544 180.025 266.116 184.994 266.116 191.124C266.116 197.254 276.544 202.223 289.408 202.223Z" fill="#E6E6E6"/>
<path d="M49.0884 267.153C60.8822 267.153 70.443 262.596 70.443 256.975C70.443 251.355 60.8822 246.798 49.0884 246.798C37.2946 246.798 27.7339 251.355 27.7339 256.975C27.7339 262.596 37.2946 267.153 49.0884 267.153Z" fill="#E6E6E6"/>
<path d="M207.637 286.719C219.909 286.719 229.858 281.976 229.858 276.125C229.858 270.273 219.909 265.53 207.637 265.53C195.364 265.53 185.416 270.273 185.416 276.125C185.416 281.976 195.364 286.719 207.637 286.719Z" fill="#E6E6E6"/>
<path d="M97.3431 236.023C109.615 236.023 119.564 231.279 119.564 225.428C119.564 219.577 109.615 214.834 97.3431 214.834C85.0708 214.834 75.1221 219.577 75.1221 225.428C75.1221 231.279 85.0708 236.023 97.3431 236.023Z" fill="#E6E6E6"/>
<path d="M228.109 165.217C228.652 158.686 243.619 134.189 248.195 130.392C252.772 126.596 260.854 117.001 257.372 111.551C253.89 106.1 243.658 108.526 234.048 125.516C226.597 138.695 224.281 167.84 224.281 167.84L228.109 165.217Z" fill="#02897A"/>
<path d="M226.061 164.602H225.998C225.947 164.594 225.898 164.577 225.854 164.55C225.81 164.523 225.772 164.488 225.742 164.446C225.711 164.404 225.69 164.356 225.679 164.306C225.667 164.256 225.666 164.204 225.675 164.153C229.905 136.804 238.892 119.743 253.15 111.992C253.242 111.941 253.35 111.93 253.45 111.959C253.5 111.974 253.546 111.998 253.587 112.031C253.627 112.063 253.661 112.104 253.685 112.149C253.71 112.195 253.726 112.245 253.731 112.296C253.737 112.348 253.732 112.4 253.718 112.45C253.703 112.499 253.679 112.546 253.646 112.586C253.614 112.626 253.573 112.66 253.528 112.685C239.499 120.31 230.645 137.19 226.447 164.279C226.43 164.37 226.383 164.451 226.312 164.51C226.242 164.569 226.153 164.602 226.061 164.602V164.602Z" fill="white"/>
<path d="M229.613 133.535C229.613 133.535 241.626 112.771 251.575 103.264C257.088 97.9942 260.476 94.5992 260.176 90.6135C259.956 87.5887 257.443 85.9739 252.039 87.3051C241.271 89.9518 235.498 100.861 231.78 113.079C229.141 121.68 229.613 133.535 229.613 133.535Z" fill="#37474F"/>
<path opacity="0.2" d="M229.613 133.535C229.613 133.535 241.626 112.771 251.575 103.264C257.088 97.9942 260.476 94.5992 260.176 90.6135C259.956 87.5887 257.443 85.9739 252.039 87.3051C241.271 89.9518 235.498 100.861 231.78 113.079C229.141 121.68 229.613 133.535 229.613 133.535Z" fill="#00FFE3"/>
<path d="M231.008 130.125H230.953C230.849 130.107 230.755 130.049 230.694 129.964C230.632 129.878 230.606 129.772 230.622 129.668C234.899 102.681 251.157 92.5197 256.041 90.0464C256.134 89.9997 256.242 89.9917 256.34 90.0241C256.439 90.0566 256.521 90.1269 256.569 90.2197C256.593 90.2655 256.608 90.3157 256.612 90.3674C256.616 90.4191 256.61 90.4711 256.594 90.5203C256.578 90.5696 256.552 90.6151 256.518 90.6541C256.484 90.6931 256.442 90.7249 256.395 90.7474C251.598 93.1814 235.624 103.169 231.402 129.794C231.387 129.887 231.338 129.972 231.266 130.032C231.194 130.093 231.102 130.126 231.008 130.125V130.125Z" fill="white"/>
<path d="M296.899 72.2443L294.299 67.3605L296.387 61.3267V57.6324L289.991 61.3267V65.0211L292.74 69.7945C292.783 69.8692 292.849 69.9274 292.929 69.9599L296.899 72.2443Z" fill="#11B5E4"/>
<path opacity="0.1" d="M296.899 72.2443L294.299 67.3605L296.387 61.3267V57.6324L289.991 61.3267V65.0211L292.74 69.7945C292.783 69.8692 292.849 69.9274 292.929 69.9599L296.899 72.2443Z" fill="black"/>
<path d="M282.058 49.3143L299.671 39.0742C300.266 38.775 300.923 38.6191 301.589 38.6191C302.255 38.6191 302.912 38.775 303.507 39.0742L305.083 39.9801C305.643 40.3428 306.109 40.8332 306.443 41.411C306.778 41.9888 306.97 42.6376 307.005 43.3042V57.5773C306.968 58.2434 306.775 58.8915 306.441 59.469C306.107 60.0466 305.642 60.5373 305.083 60.9014L287.454 71.1415C286.859 71.4407 286.202 71.5966 285.536 71.5966C284.87 71.5966 284.213 71.4407 283.618 71.1415L282.043 70.2356C281.484 69.8716 281.02 69.3807 280.687 68.803C280.354 68.2253 280.163 67.5772 280.128 66.9115V52.6227C280.169 51.9587 280.365 51.3136 280.7 50.739C281.035 50.1644 281.5 49.6765 282.058 49.3143V49.3143Z" fill="#11B5E4"/>
<path opacity="0.3" d="M282.058 49.3143L299.671 39.0742C300.266 38.775 300.923 38.6191 301.589 38.6191C302.255 38.6191 302.912 38.775 303.507 39.0742L305.083 39.9801C305.643 40.3428 306.109 40.8332 306.443 41.411C306.778 41.9888 306.97 42.6376 307.005 43.3042V57.5773C306.968 58.2434 306.775 58.8915 306.441 59.469C306.107 60.0466 305.642 60.5373 305.083 60.9014L287.454 71.1415C286.859 71.4407 286.202 71.5966 285.536 71.5966C284.87 71.5966 284.213 71.4407 283.618 71.1415L282.043 70.2356C281.484 69.8716 281.02 69.3807 280.687 68.803C280.354 68.2253 280.163 67.5772 280.128 66.9115V52.6227C280.169 51.9587 280.365 51.3136 280.7 50.739C281.035 50.1644 281.5 49.6765 282.058 49.3143V49.3143Z" fill="white"/>
<path d="M287.462 71.1257C286.399 71.7323 285.54 71.2439 285.54 70.0151V55.742C285.577 55.0759 285.77 54.4278 286.104 53.8502C286.438 53.2727 286.903 52.782 287.462 52.4179L305.091 42.1778C306.154 41.5634 307.013 42.0596 307.013 43.2884V57.5616C306.976 58.2277 306.783 58.8758 306.449 59.4533C306.115 60.0308 305.65 60.5215 305.091 60.8857" fill="#11B5E4"/>
<path d="M280.145 66.8958C280.179 67.5615 280.371 68.2096 280.703 68.7872C281.036 69.3649 281.5 69.8558 282.059 70.2198L283.634 71.1257C284.175 71.397 284.766 71.5507 285.371 71.5765C285.975 71.6023 286.578 71.4997 287.139 71.2754C286.241 71.622 285.564 71.11 285.564 70.015V55.7419C285.589 55.0739 285.785 54.4233 286.131 53.8515L280.727 50.7007C280.384 51.2732 280.191 51.9238 280.168 52.5911L280.145 66.8958Z" fill="#11B5E4"/>
<path opacity="0.1" d="M280.145 66.8958C280.179 67.5615 280.371 68.2096 280.703 68.7872C281.036 69.3649 281.5 69.8558 282.059 70.2198L283.634 71.1257C284.175 71.397 284.766 71.5507 285.371 71.5765C285.975 71.6023 286.578 71.4997 287.139 71.2754C286.241 71.622 285.564 71.11 285.564 70.015V55.7419C285.589 55.0739 285.785 54.4233 286.131 53.8515L280.727 50.7007C280.384 51.2732 280.191 51.9238 280.168 52.5911L280.145 66.8958Z" fill="black"/>
<path d="M294 67.337L296.749 72.1025C296.79 72.1697 296.849 72.2239 296.919 72.2592C296.989 72.2944 297.067 72.3092 297.145 72.3018C297.224 72.2944 297.298 72.2651 297.36 72.2173C297.423 72.1696 297.47 72.1052 297.497 72.0317L300.404 63.6427V59.9483L294 63.6427V67.337Z" fill="#11B5E4"/>
<path d="M296.284 62.461L294.315 61.9411C292.44 61.4449 290.203 60.3657 290.203 57.9475C290.298 56.9622 290.623 56.0131 291.152 55.1769C291.682 54.3408 292.401 53.6411 293.252 53.1347C293.53 52.9353 293.857 52.8144 294.199 52.7846C294.54 52.7548 294.883 52.8172 295.192 52.9652C295.501 53.1133 295.765 53.3417 295.956 53.6264C296.146 53.9112 296.257 54.2419 296.276 54.584C296.473 53.0086 297.749 50.5352 299.301 49.6373C300.987 48.6684 302.349 49.2434 302.349 50.9291C302.349 53.3395 300.12 57.0101 298.246 59.6726L296.284 62.461Z" fill="white"/>
<path d="M35.8707 109.731L53.4994 99.5302C54.0934 99.2273 54.7507 99.0693 55.4175 99.0693C56.0843 99.0693 56.7415 99.2273 57.3355 99.5302L58.9109 100.428C59.468 100.794 59.9315 101.285 60.264 101.862C60.5964 102.44 60.7886 103.087 60.825 103.752V118.025C60.7886 118.691 60.5964 119.338 60.264 119.915C59.9315 120.493 59.468 120.984 58.9109 121.349L41.3058 131.55C40.7105 131.853 40.0519 132.011 39.3839 132.011C38.7158 132.011 38.0573 131.853 37.4619 131.55L35.8865 130.652C35.3204 130.287 34.8494 129.792 34.5125 129.208C34.1755 128.625 33.9823 127.97 33.9487 127.297V113.055C33.9835 112.388 34.1759 111.74 34.51 111.162C34.8441 110.584 35.3104 110.094 35.8707 109.731V109.731Z" fill="#FF7800"/>
<path opacity="0.3" d="M35.8707 109.731L53.4994 99.5302C54.0934 99.2273 54.7507 99.0693 55.4175 99.0693C56.0843 99.0693 56.7415 99.2273 57.3355 99.5302L58.9109 100.428C59.468 100.794 59.9315 101.285 60.264 101.862C60.5964 102.44 60.7886 103.087 60.825 103.752V118.025C60.7886 118.691 60.5964 119.338 60.264 119.915C59.9315 120.493 59.468 120.984 58.9109 121.349L41.3058 131.55C40.7105 131.853 40.0519 132.011 39.3839 132.011C38.7158 132.011 38.0573 131.853 37.4619 131.55L35.8865 130.652C35.3204 130.287 34.8494 129.792 34.5125 129.208C34.1755 128.625 33.9823 127.97 33.9487 127.297V113.055C33.9835 112.388 34.1759 111.74 34.51 111.162C34.8441 110.584 35.3104 110.094 35.8707 109.731V109.731Z" fill="white"/>
<path d="M50.703 132.677L48.1036 127.785L50.1989 121.751V118.057L43.7949 121.783V125.477L46.5519 130.203C46.5935 130.276 46.6569 130.334 46.733 130.369V130.369L50.703 132.677Z" fill="#FF7800"/>
<path opacity="0.1" d="M50.703 132.677L48.1036 127.785L50.1989 121.751V118.057L43.7949 121.783V125.477L46.5519 130.203C46.5935 130.276 46.6569 130.334 46.733 130.369V130.369L50.703 132.677Z" fill="black"/>
<path d="M41.3058 131.55C40.2424 132.165 39.3838 131.668 39.3838 130.44V116.166C39.4204 115.501 39.6136 114.854 39.9476 114.278C40.2816 113.702 40.7469 113.213 41.3058 112.85L58.9424 102.61C59.9979 102.004 60.8565 102.5 60.8565 103.721V117.994C60.8201 118.659 60.6279 119.307 60.2954 119.884C59.9629 120.461 59.4995 120.953 58.9424 121.318" fill="#FF7800"/>
<path d="M33.9487 127.297C33.9854 127.963 34.1785 128.611 34.5125 129.188C34.8464 129.766 35.3117 130.257 35.8707 130.621L37.4461 131.519C37.988 131.79 38.5807 131.944 39.1859 131.971C39.7912 131.998 40.3953 131.897 40.9593 131.676C40.0534 132.015 39.3839 131.503 39.3839 130.408V116.166C39.407 115.499 39.5994 114.848 39.9431 114.276L34.5474 111.165C34.2009 111.736 34.0058 112.387 33.9802 113.055L33.9487 127.297Z" fill="#FF7800"/>
<path opacity="0.1" d="M33.9487 127.297C33.9854 127.963 34.1785 128.611 34.5125 129.188C34.8464 129.766 35.3117 130.257 35.8707 130.621L37.4461 131.519C37.988 131.79 38.5807 131.944 39.1859 131.971C39.7912 131.998 40.3953 131.897 40.9593 131.676C40.0534 132.015 39.3839 131.503 39.3839 130.408V116.166C39.407 115.499 39.5994 114.848 39.9431 114.276L34.5474 111.165C34.2009 111.736 34.0058 112.387 33.9802 113.055L33.9487 127.297Z" fill="black"/>
<path d="M47.812 127.761L50.5611 132.488C50.6005 132.555 50.6584 132.61 50.7281 132.646C50.7977 132.681 50.8761 132.696 50.954 132.689C51.0319 132.682 51.106 132.652 51.1676 132.604C51.2292 132.555 51.2757 132.491 51.3015 132.417L54.2081 124.028V120.333L47.812 124.028V127.761Z" fill="#FF7800"/>
<path d="M43.4327 119.238C42.9014 119.58 42.4601 120.045 42.1461 120.594C41.8322 121.142 41.6548 121.758 41.6289 122.389C41.6289 123.539 42.4166 123.965 43.4327 123.429C43.9605 123.083 44.3991 122.618 44.7126 122.07C45.0261 121.522 45.2056 120.908 45.2366 120.278C45.2444 119.128 44.4567 118.632 43.4327 119.238Z" fill="white"/>
<path d="M50.0886 115.387C49.5584 115.731 49.1177 116.196 48.8027 116.743C48.4877 117.291 48.3074 117.906 48.2769 118.537C48.2769 119.687 49.0646 120.152 50.0886 119.577C50.6164 119.231 51.0549 118.766 51.3684 118.218C51.6819 117.671 51.8614 117.057 51.8924 116.426C51.8924 115.276 51.0811 114.812 50.0886 115.387Z" fill="white"/>
<path d="M56.7369 111.543C56.2091 111.888 55.7706 112.354 55.4571 112.902C55.1436 113.449 54.9641 114.063 54.9331 114.693C54.9331 115.843 55.7208 116.269 56.7369 115.733C57.2683 115.391 57.7096 114.926 58.0236 114.378C58.3375 113.83 58.5149 113.214 58.5408 112.582C58.5408 111.424 57.7373 110.96 56.7369 111.543Z" fill="white"/>
<path d="M222.8 6.32965L146.22 50.5196C145.227 51.1673 144.401 52.0397 143.809 53.0661C143.216 54.0925 142.874 55.244 142.809 56.4274V225.932C142.809 228.107 144.337 228.989 146.22 227.902L222.8 183.712C223.792 183.064 224.618 182.192 225.211 181.165C225.804 180.139 226.146 178.987 226.211 177.804V8.2989C226.211 6.12485 224.683 5.24263 222.8 6.32965Z" fill="#37474F"/>
<path d="M146.22 50.5196L222.8 6.32964C224.486 5.36077 225.88 5.9673 226.156 7.66085C226 6.59534 225.621 5.57484 225.042 4.66655C224.464 3.75826 223.7 2.98277 222.8 2.39114L220.02 0.815741C218.963 0.279476 217.794 0 216.609 0C215.424 0 214.255 0.279476 213.198 0.815741L136.618 44.9821C135.61 45.6105 134.781 46.4864 134.208 47.5263L143.81 53.0402C144.386 52.009 145.215 51.1415 146.22 50.5196V50.5196Z" fill="#455A64"/>
<path d="M133.207 220.387C133.27 221.571 133.612 222.723 134.205 223.749C134.798 224.776 135.624 225.648 136.618 226.295L139.398 227.87C140.36 228.355 141.413 228.63 142.488 228.677C143.563 228.725 144.637 228.544 145.637 228.146C144.062 228.752 142.809 227.847 142.809 225.901V56.4037C142.849 55.2153 143.193 54.057 143.809 53.0402L134.207 47.5263C133.593 48.5438 133.248 49.7016 133.207 50.8898V220.387Z" fill="#263238"/>
<path d="M148.055 71.6299L220.965 29.5588C222.091 28.9051 223.013 29.4328 223.013 30.7404V159.065C222.973 159.774 222.766 160.465 222.411 161.081C222.055 161.696 221.56 162.22 220.965 162.609L148.055 204.672C146.929 205.326 146.007 204.798 146.007 203.491V75.1745C146.045 74.4641 146.25 73.7727 146.606 73.1567C146.962 72.5407 147.459 72.0175 148.055 71.6299Z" fill="#FAFAFA"/>
<path d="M183.738 35.0019C183.389 35.2306 183.1 35.538 182.892 35.8991C182.684 36.2603 182.563 36.6653 182.541 37.0814C182.541 37.8691 183.076 38.1606 183.738 37.7746C184.087 37.5468 184.378 37.2397 184.586 36.8783C184.794 36.517 184.914 36.1115 184.935 35.6951C184.935 34.931 184.4 34.6238 183.738 35.0019Z" fill="#263238"/>
<path d="M172.403 47.1956C171.711 47.6556 171.137 48.2715 170.727 48.9939C170.316 49.7162 170.081 50.5248 170.04 51.3546C170.04 52.8828 171.111 53.5051 172.403 52.741C173.103 52.2858 173.685 51.6719 174.102 50.9492C174.52 50.2264 174.761 49.4154 174.806 48.5819C174.806 47.0538 173.726 46.4315 172.403 47.1956Z" fill="#263238"/>
<path d="M178.271 46.6756C178.271 47.6996 179.059 48.0856 179.981 47.5421L195.735 38.4284C196.221 38.1223 196.628 37.7061 196.924 37.2135C197.219 36.7209 197.395 36.1657 197.436 35.5927C197.436 34.5766 196.649 34.1906 195.735 34.7341L179.981 43.8478C179.494 44.1518 179.085 44.5662 178.788 45.0575C178.491 45.5488 178.314 46.1032 178.271 46.6756Z" fill="#263238"/>
<path d="M138.516 76.7028C139.076 77.0655 139.543 77.5559 139.877 78.1337C140.211 78.7115 140.403 79.3603 140.438 80.0269C140.438 81.2478 139.58 81.7441 138.516 81.1375C137.958 80.7709 137.495 80.2783 137.162 79.6996C136.83 79.1208 136.638 78.4721 136.602 77.8056C136.618 76.5846 137.461 76.0963 138.516 76.7028Z" fill="#37474F"/>
<path d="M138.516 91.4877C139.075 91.8518 139.54 92.3426 139.874 92.9201C140.208 93.4976 140.401 94.1457 140.438 94.8118C140.438 96.0406 139.579 96.5369 138.516 95.9225C137.967 95.5592 137.51 95.0735 137.18 94.5035C136.851 93.9335 136.658 93.2949 136.618 92.6378C136.618 91.3775 137.461 90.8812 138.516 91.4877Z" fill="#37474F"/>
<path d="M137.925 76.9941C138.484 77.3582 138.95 77.849 139.284 78.4265C139.618 79.004 139.811 79.6521 139.847 80.3182C139.847 81.547 138.989 82.0433 137.925 81.4289C137.367 81.0638 136.903 80.5729 136.569 79.9956C136.235 79.4182 136.041 78.7706 136.003 78.1048C136.003 76.8839 136.87 76.3876 137.925 76.9941Z" fill="#455A64"/>
<path d="M137.925 91.7872C138.484 92.1513 138.95 92.642 139.284 93.2195C139.618 93.7971 139.811 94.4452 139.847 95.1113C139.847 96.3401 138.989 96.8363 137.925 96.2219C137.367 95.8569 136.903 95.366 136.569 94.7886C136.235 94.2113 136.041 93.5637 136.003 92.8978C136.003 91.669 136.87 91.1728 137.925 91.7872Z" fill="#455A64"/>
<path d="M184.51 189.304C183.133 190.204 181.988 191.415 181.166 192.839C180.345 194.264 179.872 195.862 179.784 197.504C179.784 200.529 181.903 201.75 184.51 200.246C185.887 199.345 187.032 198.132 187.853 196.706C188.675 195.28 189.148 193.681 189.236 192.038C189.244 189.013 187.125 187.792 184.51 189.304Z" fill="#263238"/>
<path d="M163.171 202.845C162.502 202.845 162.431 202.057 162.431 201.774V73.4575C162.472 72.8168 162.66 72.1942 162.981 71.6381C163.302 71.0821 163.747 70.6076 164.282 70.2516L237.191 28.1805C237.409 28.0504 237.655 27.9747 237.908 27.96C238.578 27.96 238.648 28.7004 238.648 29.0234V157.348C238.608 157.987 238.42 158.609 238.098 159.164C237.777 159.719 237.332 160.192 236.797 160.546L163.888 202.617C163.673 202.753 163.426 202.832 163.171 202.845V202.845Z" fill="white" stroke="#141414" stroke-miterlimit="10"/>
<path d="M237.908 28.3538C238.207 28.3538 238.254 28.7712 238.254 29.0233V157.347C238.215 157.919 238.045 158.473 237.758 158.969C237.472 159.464 237.076 159.888 236.6 160.207L163.691 202.278C163.534 202.377 163.356 202.436 163.171 202.451C162.872 202.451 162.824 202.026 162.824 201.774V73.4575C162.864 72.8863 163.034 72.3318 163.32 71.8362C163.607 71.3407 164.003 70.9172 164.478 70.5981L237.388 28.5271C237.543 28.4249 237.722 28.3651 237.908 28.3538V28.3538ZM237.908 27.5661C237.584 27.5769 237.27 27.6719 236.994 27.8418L164.085 69.9128C163.488 70.3004 162.992 70.8236 162.636 71.4396C162.28 72.0556 162.074 72.747 162.037 73.4575V201.774C162.037 202.703 162.501 203.239 163.171 203.239C163.495 203.225 163.81 203.127 164.085 202.955L236.994 160.892C237.59 160.504 238.086 159.981 238.442 159.365C238.798 158.749 239.004 158.058 239.042 157.347V29.0233C239.042 28.1017 238.577 27.5661 237.908 27.5661V27.5661Z" fill="#37474F" stroke="#141414" stroke-miterlimit="10"/>
<path d="M239.019 29.0233C239.019 27.7157 238.105 27.188 236.971 27.8417L164.061 69.9128C163.465 70.3004 162.968 70.8236 162.612 71.4396C162.256 72.0556 162.051 72.747 162.013 73.4574V83.9732L239.019 39.5391V29.0233Z" fill="#37474F"/>
<path opacity="0.1" d="M239.019 29.0233C239.019 27.7157 238.105 27.188 236.971 27.8417L164.061 69.9128C163.465 70.3004 162.968 70.8236 162.612 71.4396C162.256 72.0556 162.051 72.747 162.013 73.4574V83.9732L239.019 39.5391V29.0233Z" fill="black"/>
<path d="M170.072 72.3388C169.942 72.2898 169.802 72.2735 169.665 72.2914C169.528 72.3092 169.397 72.3607 169.284 72.4412C168.879 72.71 168.542 73.0689 168.298 73.4898C168.055 73.9107 167.913 74.3822 167.882 74.8673C167.862 75.0069 167.88 75.1493 167.934 75.2795C167.988 75.4098 168.076 75.5231 168.189 75.6077C168.318 75.6609 168.459 75.6787 168.598 75.6593C168.736 75.6399 168.867 75.5841 168.977 75.4975C169.379 75.2286 169.714 74.8705 169.956 74.4512C170.198 74.0318 170.34 73.5623 170.371 73.0792C170.392 72.9403 170.375 72.7984 170.322 72.6683C170.269 72.5381 170.183 72.4243 170.072 72.3388Z" fill="white"/>
<path d="M171.734 69.6528L171.56 69.7552V69.4008C171.56 68.9045 171.214 68.6997 170.773 68.9518L167.464 70.858C167.237 71.0053 167.047 71.2039 166.91 71.4378C166.773 71.6717 166.693 71.9345 166.677 72.205V72.5673L166.495 72.6697C166.193 72.8662 165.941 73.1312 165.761 73.4433C165.58 73.7553 165.475 74.1056 165.456 74.4657V77.6716C165.456 78.3333 165.92 78.609 166.495 78.2781L171.718 75.2613C172.021 75.0635 172.273 74.7971 172.453 74.4837C172.634 74.1703 172.738 73.8187 172.758 73.4574V70.2357C172.773 69.5898 172.309 69.322 171.734 69.6528ZM169.276 76.0174C169.021 76.1729 168.731 76.2597 168.433 76.2695C168.24 76.2713 168.05 76.2224 167.882 76.1277C167.678 75.9903 167.514 75.8011 167.408 75.5797C167.301 75.3582 167.255 75.1124 167.275 74.8674C167.303 74.2772 167.471 73.7021 167.767 73.1908C168.064 72.6795 168.478 72.2468 168.977 71.9293C169.177 71.785 169.412 71.6985 169.658 71.679C169.904 71.6596 170.151 71.708 170.371 71.819C170.575 71.9556 170.738 72.1449 170.844 72.3667C170.949 72.5886 170.993 72.8348 170.969 73.0793C170.942 73.6686 170.773 74.2426 170.479 74.7537C170.184 75.2648 169.772 75.698 169.276 76.0174V76.0174ZM171.639 71.7402C171.371 71.8899 171.159 71.7402 171.159 71.4567C171.167 71.2893 171.214 71.1264 171.298 70.9812C171.381 70.836 171.498 70.7128 171.639 70.6217C171.907 70.4642 172.127 70.6217 172.127 70.8974C172.121 71.0636 172.077 71.2261 171.998 71.3723C171.918 71.5185 171.806 71.6444 171.671 71.7402H171.639Z" fill="white"/>
<path d="M234.828 32.2607L229.732 35.1989C229.437 35.3913 229.191 35.6506 229.014 35.9558C228.838 36.2609 228.735 36.6034 228.716 36.9554V40.1062C228.716 40.7443 229.173 41.0121 229.732 40.6891L232.765 38.9404L233.954 40.1299C233.982 40.1558 234.017 40.173 234.054 40.1795C234.092 40.186 234.13 40.1815 234.166 40.1665C234.201 40.1515 234.23 40.1266 234.252 40.095C234.273 40.0633 234.284 40.0262 234.285 39.9881V38.0582L234.828 37.7431C235.128 37.5533 235.379 37.2952 235.559 36.9898C235.74 36.6845 235.846 36.3407 235.868 35.9866V32.8358C235.868 32.1977 235.388 31.9378 234.828 32.2607Z" fill="white"/>
<path d="M171.852 82.0986C174.514 80.5862 176.672 81.815 176.672 84.8555C176.577 86.5185 176.09 88.1355 175.253 89.5753C174.415 91.0151 173.25 92.2371 171.852 93.1421C169.181 94.7175 167.023 93.4493 167.023 90.3852C167.112 88.7199 167.597 87.0998 168.437 85.6588C169.276 84.2179 170.447 82.9975 171.852 82.0986V82.0986Z" fill="#37474F"/>
<path d="M181.446 78.3883L197.444 69.1564C198.389 68.6129 199.153 68.9989 199.153 70.015C199.111 70.5889 198.935 71.1448 198.638 71.6375C198.341 72.1303 197.932 72.546 197.444 72.8507L181.446 82.0826C180.508 82.6261 179.744 82.2401 179.744 81.224C179.785 80.651 179.961 80.0958 180.257 79.6032C180.552 79.1106 180.959 78.6944 181.446 78.3883Z" fill="#37474F"/>
<g opacity="0.7">
<path opacity="0.7" d="M181.446 78.3883L197.444 69.1564C198.389 68.6129 199.153 68.9989 199.153 70.015C199.111 70.5889 198.935 71.1448 198.638 71.6375C198.341 72.1303 197.932 72.546 197.444 72.8507L181.446 82.0826C180.508 82.6261 179.744 82.2401 179.744 81.224C179.785 80.651 179.961 80.0958 180.257 79.6032C180.552 79.1106 180.959 78.6944 181.446 78.3883Z" fill="white"/>
</g>
<path d="M180.91 84.9341L191.883 78.6325C192.529 78.2623 193.048 78.5222 193.048 79.2233C193.02 79.6163 192.9 79.9971 192.698 80.3351C192.495 80.6731 192.216 80.9587 191.883 81.1689L180.91 87.4705C180.264 87.8407 179.744 87.5729 179.744 86.8718C179.773 86.4801 179.893 86.1006 180.096 85.7639C180.298 85.4273 180.577 85.1431 180.91 84.9341Z" fill="#37474F"/>
<g opacity="0.7">
<path opacity="0.7" d="M180.91 84.9341L191.883 78.6325C192.529 78.2623 193.048 78.5222 193.048 79.2233C193.02 79.6163 192.9 79.9971 192.698 80.3351C192.495 80.6731 192.216 80.9587 191.883 81.1689L180.91 87.4705C180.264 87.8407 179.744 87.5729 179.744 86.8718C179.773 86.4801 179.893 86.1006 180.096 85.7639C180.298 85.4273 180.577 85.1431 180.91 84.9341Z" fill="white"/>
</g>
<path d="M171.852 164.917C174.514 163.405 176.672 164.642 176.672 167.674C176.577 169.337 176.09 170.954 175.253 172.394C174.415 173.834 173.25 175.056 171.852 175.961C169.181 177.536 167.023 176.268 167.023 173.204C167.114 171.539 167.6 169.92 168.439 168.479C169.279 167.038 170.448 165.818 171.852 164.917Z" fill="#37474F"/>
<path d="M181.446 161.215L197.444 151.975C198.389 151.432 199.153 151.818 199.153 152.834C199.111 153.408 198.935 153.964 198.638 154.456C198.341 154.949 197.932 155.365 197.444 155.67L181.446 164.909C180.508 165.453 179.744 165.067 179.744 164.043C179.787 163.471 179.963 162.918 180.258 162.427C180.554 161.935 180.96 161.52 181.446 161.215Z" fill="#37474F"/>
<g opacity="0.7">
<path opacity="0.7" d="M181.446 161.215L197.444 151.975C198.389 151.432 199.153 151.818 199.153 152.834C199.111 153.408 198.935 153.964 198.638 154.456C198.341 154.949 197.932 155.365 197.444 155.67L181.446 164.909C180.508 165.453 179.744 165.067 179.744 164.043C179.787 163.471 179.963 162.918 180.258 162.427C180.554 161.935 180.96 161.52 181.446 161.215Z" fill="white"/>
</g>
<path d="M180.91 167.753L191.883 161.451C192.529 161.081 193.048 161.341 193.048 162.042C193.02 162.435 192.9 162.816 192.698 163.154C192.495 163.492 192.216 163.778 191.883 163.988L180.91 170.289C180.264 170.66 179.744 170.392 179.744 169.699C179.772 169.305 179.892 168.924 180.094 168.586C180.297 168.248 180.576 167.963 180.91 167.753V167.753Z" fill="#37474F"/>
<g opacity="0.7">
<path opacity="0.7" d="M180.91 167.753L191.883 161.451C192.529 161.081 193.048 161.341 193.048 162.042C193.02 162.435 192.9 162.816 192.698 163.154C192.495 163.492 192.216 163.778 191.883 163.988L180.91 170.289C180.264 170.66 179.744 170.392 179.744 169.699C179.772 169.305 179.892 168.924 180.094 168.586C180.297 168.248 180.576 167.963 180.91 167.753V167.753Z" fill="white"/>
</g>
<path d="M170.355 97.7264L230.937 62.7525C231.882 62.209 232.646 62.6501 232.646 63.7371V124.24C232.614 124.834 232.442 125.411 232.145 125.926C231.848 126.44 231.434 126.877 230.937 127.202L170.355 162.381C169.41 162.924 168.653 162.483 168.653 161.396V100.68C168.684 100.089 168.854 99.5126 169.15 98.9993C169.445 98.4859 169.858 98.0498 170.355 97.7264V97.7264Z" fill="#F5F5F5"/>
<path d="M192.592 111.582C192.437 111.355 192.223 111.175 191.974 111.061C191.724 110.948 191.448 110.904 191.176 110.936C190.903 110.967 190.644 111.073 190.427 111.241C190.211 111.409 190.044 111.633 189.945 111.889L168.677 152.283V161.396C168.677 162.483 169.465 162.924 170.379 162.381L230.961 127.383C231.458 127.059 231.872 126.621 232.169 126.107C232.466 125.592 232.638 125.015 232.67 124.422V104.256L221.162 83.8157C220.524 82.6735 219.634 82.7444 219.169 83.9653L203.848 124.571L192.592 111.582Z" fill="#37474F"/>
<g opacity="0.3">
<path opacity="0.3" d="M192.592 111.582C192.437 111.355 192.223 111.175 191.974 111.061C191.724 110.948 191.448 110.904 191.176 110.936C190.903 110.967 190.644 111.073 190.427 111.241C190.211 111.409 190.044 111.633 189.945 111.889L168.677 152.283V161.396C168.677 162.483 169.465 162.924 170.379 162.381L230.961 127.383C231.458 127.059 231.872 126.621 232.169 126.107C232.466 125.592 232.638 125.015 232.67 124.422V104.256L221.162 83.8157C220.524 82.6735 219.634 82.7444 219.169 83.9653L203.848 124.571L192.592 111.582Z" fill="#00564C"/>
</g>
<path d="M175.042 114.095C180.382 111.031 184.722 103.563 184.722 97.4192C184.722 94.2684 183.588 92.1101 181.784 91.1176L170.355 97.7107C169.858 98.0341 169.445 98.4702 169.15 98.9836C168.854 99.4969 168.684 100.073 168.653 100.665V114.953C170.355 115.718 172.584 115.481 175.042 114.095Z" fill="#37474F"/>
<g opacity="0.6">
<path opacity="0.6" d="M175.042 114.095C180.382 111.031 184.722 103.563 184.722 97.4192C184.722 94.2684 183.588 92.1101 181.784 91.1176L170.355 97.7107C169.858 98.0341 169.445 98.4702 169.15 98.9836C168.854 99.4969 168.684 100.073 168.653 100.665V114.953C170.355 115.718 172.584 115.481 175.042 114.095Z" fill="white"/>
</g>
<path d="M170.355 180.86L230.937 145.879C231.882 145.335 232.646 145.721 232.646 146.745C232.603 147.318 232.426 147.872 232.129 148.363C231.832 148.854 231.424 149.269 230.937 149.573L170.355 184.555C169.41 185.098 168.653 184.712 168.653 183.688C168.693 183.116 168.868 182.561 169.164 182.07C169.46 181.578 169.868 181.164 170.355 180.86V180.86Z" fill="#37474F"/>
<g opacity="0.6">
<path opacity="0.6" d="M170.355 180.86L230.937 145.879C231.882 145.335 232.646 145.721 232.646 146.745C232.603 147.318 232.426 147.872 232.129 148.363C231.832 148.854 231.424 149.269 230.937 149.573L170.355 184.555C169.41 185.098 168.653 184.712 168.653 183.688C168.693 183.116 168.868 182.561 169.164 182.07C169.46 181.578 169.868 181.164 170.355 180.86V180.86Z" fill="white"/>
</g>
<path d="M170.355 188.249L230.937 153.291C231.882 152.747 232.646 153.133 232.646 154.157C232.603 154.73 232.426 155.284 232.129 155.775C231.832 156.267 231.424 156.681 230.937 156.985L170.355 191.967C169.41 192.51 168.653 192.124 168.653 191.1C168.69 190.524 168.864 189.965 169.16 189.469C169.456 188.973 169.865 188.555 170.355 188.249V188.249Z" fill="#37474F"/>
<g opacity="0.6">
<path opacity="0.6" d="M170.355 188.249L230.937 153.291C231.882 152.747 232.646 153.133 232.646 154.157C232.603 154.73 232.426 155.284 232.129 155.775C231.832 156.267 231.424 156.681 230.937 156.985L170.355 191.967C169.41 192.51 168.653 192.124 168.653 191.1C168.69 190.524 168.864 189.965 169.16 189.469C169.456 188.973 169.865 188.555 170.355 188.249V188.249Z" fill="white"/>
</g>
<path d="M179.697 64.7927L222.918 39.862C224.241 39.0743 225.281 39.7202 225.281 41.2405C225.24 42.066 225.005 42.8702 224.594 43.5875C224.184 44.3047 223.609 44.9148 222.918 45.368L179.705 70.2279C178.382 71.0156 177.342 70.3854 177.342 68.8888C177.387 68.0694 177.623 67.272 178.032 66.5606C178.441 65.8492 179.011 65.2437 179.697 64.7927V64.7927Z" fill="#FAFAFA"/>
<path d="M306.682 112.078L309.746 117.695L304.981 121.783L300.609 114.859L306.682 112.078Z" fill="#F28F8F"/>
<path d="M295.182 99.5618C298.222 99.5618 301.57 100.696 302.72 103.083L307.446 112.882C307.446 112.882 304.76 116.82 300.499 116.537L295.182 99.5618Z" fill="#E0E0E0"/>
<path d="M306.445 118.569C307.336 116.915 307.556 116.836 308.084 116.474C308.612 116.111 311.857 115.631 313.204 115.513C314.779 115.379 315.354 115.67 314.913 117.033C313.7 120.47 312.214 123.805 310.471 127.005C310.045 127.565 309.966 128.084 308.178 128.266C306.516 128.423 304.429 128.518 303.815 128.549C303.2 128.581 302.349 128.746 302.893 126.934C303.596 124.888 304.411 122.881 305.335 120.924C306.02 119.42 306.445 118.569 306.445 118.569Z" fill="#37474F"/>
<path d="M270.952 174.299C270.164 173.905 269.715 174.866 269.03 175.638C268.441 176.205 267.982 176.893 267.683 177.654C267.517 178.56 268.345 180.017 269.258 180.805C270.172 181.593 271.227 182.168 271.558 183.901C271.644 184.696 271.952 185.451 272.448 186.078C272.945 186.705 273.608 187.179 274.363 187.445C276.332 188.296 278.971 188.02 279.876 187.445C280.932 186.76 279.963 186.004 278.482 183.877C276.544 181.104 275.032 179.151 275.032 176.528L270.952 174.299Z" fill="#263238"/>
<path d="M272.503 172.022L270.928 174.385C270.588 174.868 270.454 175.466 270.554 176.048C270.654 176.63 270.982 177.148 271.464 177.489L271.511 177.528C271.995 177.816 272.565 177.925 273.122 177.837C273.678 177.75 274.187 177.47 274.559 177.048L277.048 174.338L272.503 172.022Z" fill="#FFA8A7"/>
<path d="M301.759 126.462C301.861 129.439 301.018 141.467 298.962 146.784C296.907 152.101 295.717 155.41 295.071 156.52C294.425 157.631 275.788 175.764 275.788 175.764C275.788 175.764 272.637 175.535 272.125 172.471C272.125 172.471 279.758 159.49 281.412 156.827C283.067 154.165 288.927 150.085 288.927 150.085L288.391 126.8L301.759 126.462Z" fill="#37474F"/>
<path d="M274.15 123.563C274.15 123.051 275.725 117.167 276.513 114.449L282.287 116.434L280.932 120.719L275.851 125.973C275.313 125.866 274.836 125.556 274.52 125.108C274.203 124.659 274.071 124.106 274.15 123.563V123.563Z" fill="#FFA8A7"/>
<path d="M297.653 189.83L301.593 188.934L300.289 183.196L296.348 184.092L297.653 189.83Z" fill="#FFA8A7"/>
<path d="M301.758 126.462H282.854C282.441 129.222 282.204 132.005 282.145 134.796C281.995 142.988 289.62 157.867 289.62 157.867C289.254 161.178 289.419 164.526 290.108 167.784C291.778 174.307 296.331 185.358 296.331 185.358C296.331 185.358 299.191 185.76 300.601 184.113C300.601 184.113 298.08 161.688 297.402 155.945C296.67 149.723 294.779 138.372 294.779 138.372C296.027 137.128 297.158 135.773 298.159 134.323C299.912 131.988 301.138 129.301 301.751 126.446" fill="#37474F"/>
<path d="M288.943 99.7271C285.319 100.601 280.381 101.736 278.955 105.658C277.529 109.581 275.473 116.537 275.473 116.537C276.261 117.915 280.633 119.057 282.153 118.262L282.862 115.899V126.438C285.697 129.526 295.575 130.959 301.767 126.438V106.745C301.767 103.595 300.018 99.8137 295.189 99.538L288.943 99.7271Z" fill="#11B5E4"/>
<path d="M282.862 115.922L284.681 110.196L282.862 118.482V115.922Z" fill="#E0E0E0"/>
<path d="M287.58 83.6344C287.255 83.5982 286.926 83.6361 286.618 83.7452C286.309 83.8544 286.03 84.0319 285.8 84.2645C285.012 85.0522 285.193 86.4937 285.8 89.8257L288.163 90.0935L287.58 83.6344Z" fill="#263238"/>
<path d="M301.373 82.6735C301.869 82.6787 302.362 82.5849 302.822 82.3978C303.547 81.9803 303.736 82.8073 303.334 83.5242C303.072 84.0378 302.682 84.4756 302.202 84.7955C301.722 85.1155 301.168 85.307 300.593 85.3516C300.593 85.2492 299.916 83.5005 299.916 83.5005L301.373 82.6735Z" fill="#263238"/>
<path d="M288.691 90.0937C288.344 90.3063 287.84 89.6289 287.407 89.1799C287.237 88.9842 287.021 88.835 286.777 88.7465C286.534 88.658 286.272 88.6331 286.017 88.6741C285.761 88.7151 285.52 88.8207 285.317 88.9809C285.113 89.1411 284.954 89.3506 284.855 89.5895C284.138 91.1019 285.768 93.1184 286.729 93.7801C286.996 94.0131 287.329 94.1554 287.682 94.1866C288.034 94.2177 288.388 94.136 288.691 93.9534L288.943 99.743C289.367 100.67 290.015 101.478 290.827 102.095C291.639 102.712 292.591 103.119 293.598 103.28C297.001 103.737 296.3 100.917 295.173 99.5618V97.4586C296.025 97.6384 296.9 97.681 297.765 97.5847C298.206 97.4665 299.262 96.1904 299.947 94.7568C301.4 91.8863 301.723 88.5751 300.853 85.4777C299.632 80.2947 294.063 80.1371 290.747 82.2245C287.43 84.3119 288.691 90.0937 288.691 90.0937Z" fill="#FFA8A7"/>
<path d="M288.691 90.6844C288.517 90.6844 287.848 89.5738 287.407 89.1799C286.8 88.6285 287.58 83.666 287.58 83.666C287.413 83.1326 287.379 82.5663 287.482 82.0169C287.585 81.4675 287.822 80.9518 288.171 80.5152C289.368 79.2549 291.684 79.4676 293.378 79.4124C295.461 79.4206 297.525 79.0052 299.443 78.1915C301.853 77.1439 302.034 77.0257 302.326 78.0812C302.559 78.9535 302.587 79.8677 302.41 80.753C302.232 81.6382 301.853 82.4706 301.302 83.1855L300.514 84.4616C300.514 84.4616 299.782 85.076 297.537 85.3517C295.292 85.6274 291.463 84.4143 290.983 84.3513C290.329 84.2647 290.195 84.8948 289.841 86.6199C289.541 88.1086 289.289 90.6765 288.691 90.6844Z" fill="#263238"/>
<path d="M287.588 84.0283L285.461 82.8862C285.529 82.7473 285.624 82.6232 285.74 82.521C285.856 82.4189 285.991 82.3407 286.138 82.2909C286.284 82.2411 286.439 82.2208 286.593 82.231C286.748 82.2412 286.898 82.2819 287.037 82.3505C287.329 82.5037 287.55 82.7645 287.653 83.0777C287.756 83.3909 287.732 83.7319 287.588 84.0283V84.0283Z" fill="#263238"/>
<path d="M295.174 97.4586C293.724 97.1808 292.303 96.7721 290.928 96.2377C290.284 95.8975 289.755 95.3739 289.408 94.7332C289.574 95.3764 289.869 95.9792 290.274 96.5055C291.062 97.5374 295.174 98.2936 295.174 98.2936V97.4586Z" fill="#F28F8F"/>
<path d="M295.276 89.9834C295.278 90.1533 295.213 90.3173 295.095 90.4397C294.977 90.5621 294.816 90.633 294.646 90.6372C294.561 90.6351 294.478 90.6164 294.4 90.582C294.322 90.5476 294.252 90.4983 294.194 90.4369C294.135 90.3754 294.089 90.3031 294.059 90.2239C294.028 90.1447 294.014 90.0603 294.016 89.9755C294.014 89.8055 294.079 89.6416 294.197 89.5192C294.315 89.3968 294.476 89.3258 294.646 89.3217C294.731 89.3237 294.814 89.3425 294.892 89.3768C294.97 89.4112 295.04 89.4605 295.098 89.522C295.157 89.5834 295.203 89.6558 295.233 89.7349C295.264 89.8141 295.278 89.8985 295.276 89.9834V89.9834Z" fill="#263238"/>
<path d="M294.607 87.5966L293.26 88.3843C293.208 88.293 293.176 88.1924 293.164 88.0884C293.152 87.9844 293.161 87.8791 293.191 87.7786C293.22 87.6781 293.269 87.5845 293.335 87.5032C293.401 87.4219 293.482 87.3546 293.575 87.3051C293.752 87.2145 293.956 87.1941 294.148 87.2482C294.339 87.3023 294.503 87.4267 294.607 87.5966Z" fill="#263238"/>
<path d="M294.89 94.2133L296.332 94.7568C296.261 94.9458 296.119 95.1002 295.938 95.1881C295.756 95.2761 295.547 95.2909 295.355 95.2294C295.258 95.1935 295.168 95.1387 295.092 95.068C295.016 94.9974 294.954 94.9125 294.911 94.818C294.868 94.7236 294.844 94.6215 294.84 94.5178C294.837 94.414 294.854 94.3105 294.89 94.2133V94.2133Z" fill="#F28F8F"/>
<path d="M300.9 88.1244L299.671 87.1791C299.795 87.0197 299.975 86.9136 300.174 86.8828C300.373 86.8521 300.577 86.8989 300.743 87.0137C300.827 87.0758 300.897 87.154 300.951 87.2437C301.004 87.3333 301.039 87.4327 301.054 87.5361C301.068 87.6394 301.062 87.7446 301.036 87.8456C301.01 87.9466 300.963 88.0414 300.9 88.1244V88.1244Z" fill="#263238"/>
<path d="M300.522 89.8022C300.524 89.9722 300.459 90.1362 300.341 90.2585C300.223 90.3809 300.062 90.4519 299.892 90.456C299.807 90.454 299.724 90.4352 299.646 90.4009C299.568 90.3665 299.498 90.3172 299.44 90.2557C299.381 90.1943 299.336 90.1219 299.305 90.0427C299.274 89.9636 299.26 89.8792 299.262 89.7943C299.26 89.6244 299.325 89.4604 299.443 89.338C299.561 89.2156 299.722 89.1447 299.892 89.1405C300.063 89.1467 300.224 89.2194 300.342 89.343C300.46 89.4667 300.524 89.6315 300.522 89.8022V89.8022Z" fill="#263238"/>
<path d="M297.552 89.7234L296.961 93.4729L299.033 93.2287L297.552 89.7234Z" fill="#F28F8F"/>
<path d="M301.144 187.02L301.018 186.453C301.428 186.532 303.2 189.47 304.957 190.746C306.879 192.14 308.541 192.967 309.399 193.597C310.549 194.44 308.887 196.165 306.059 196.323C304.657 196.394 302.121 195.968 301.333 195.22C300.546 194.472 299.978 193.235 299.348 192.699C298.718 192.164 297.466 191.691 297.032 191.006C296.801 190.325 296.717 189.602 296.788 188.887C296.788 188.146 296.843 187.311 297.095 187.351L297.19 187.776C297.92 188.149 298.733 188.331 299.553 188.304C300.238 188.272 301.475 188.123 301.144 187.02Z" fill="#263238"/>
<path d="M296.914 152.133C296.914 152.133 295.237 140.215 294.788 138.372C296.135 137.636 297.389 136.739 298.521 135.701C297.74 136.819 296.888 137.884 295.969 138.892L296.914 152.133Z" fill="#263238"/>
<path d="M286.792 151.715C286.792 151.715 288.809 156.733 289.628 157.844C289.628 157.844 289.423 161.672 289.447 162.444L288.392 163.365C288.364 161.634 288.522 159.904 288.864 158.206C287.938 156.125 287.243 153.948 286.792 151.715Z" fill="#263238"/>
<path d="M280.956 120.72C280.956 120.72 296.844 122.421 298.71 121.846C300.577 121.271 303.082 119.42 304.398 118.632C305.713 117.844 306.714 117.797 306.714 118.12C306.714 118.443 305.563 120.2 305.304 120.932C305.044 121.665 306.54 121.665 308.517 121.208C310.494 120.751 311.282 119.632 311.794 120.278C312.306 120.924 310.699 124.217 307.422 125.454C304.146 126.69 301.712 125.863 299.002 125.981C296.292 126.1 279.601 127.163 275.844 125.981C275.744 125.379 275.813 124.761 276.042 124.195C276.272 123.63 276.653 123.138 277.143 122.775C278.279 121.864 279.571 121.167 280.956 120.72V120.72Z" fill="#FFA8A7"/>
<path d="M192.875 196.614C192.915 196.102 193.884 190.588 194.545 187.501L201.028 189.486L199.988 193.81L194.6 199.025C194.058 198.923 193.575 198.615 193.254 198.166C192.932 197.717 192.797 197.161 192.875 196.614V196.614Z" fill="#FFA8A7"/>
<path d="M207.085 149.935H210.236C212.561 149.935 214.791 150.859 216.436 152.503C218.08 154.147 219.003 156.377 219.003 158.702V181.041H198.318V158.702C198.318 156.377 199.242 154.147 200.886 152.503C202.53 150.859 204.76 149.935 207.085 149.935Z" fill="#263238"/>
<path d="M224.233 185.027L227.297 190.643L222.524 194.724L218.16 187.8L224.233 185.027Z" fill="#F28F8F"/>
<path d="M212.733 172.503C215.774 172.503 219.122 173.637 220.272 176.024L224.998 185.823C224.998 185.823 222.312 189.761 218.05 189.485L212.733 172.503Z" fill="#455A64"/>
<path d="M215.191 269.681C216.237 271.081 217.413 272.378 218.704 273.557C218.911 273.723 219.076 273.936 219.184 274.179C219.318 274.588 219.492 275.573 217.672 275.975C216.75 276.177 215.794 276.178 214.872 275.979C213.949 275.779 213.08 275.383 212.323 274.817C210.992 273.746 211.15 271.863 209.921 270.626C209.007 269.72 207.771 269.366 207.085 268.263C206.605 267.476 206.865 266.538 207.298 265.38C207.731 264.222 208.038 263.167 208.456 263.316L208.314 263.899C208.747 264.821 211.465 265.404 212.796 264.963C213.512 266.576 214.312 268.151 215.191 269.681Z" fill="#263238"/>
<path d="M216.262 271.036C215.892 270.603 215.53 270.162 215.191 269.681C214.494 268.521 213.871 267.319 213.324 266.081C212.969 265.344 212.907 264.5 213.151 263.718L214.049 260.686L209.322 259.599L208.298 263.844C208.078 264.813 208.779 265.774 210.063 267.176C211.347 268.578 212.828 271.666 214.001 272.541C215.175 273.415 216.136 273.502 216.735 273.202C217.333 272.903 217.483 272.627 216.262 271.036Z" fill="#FFA8A7"/>
<path d="M202.478 272.351V271.682C202.745 272.47 203.958 275.825 205.802 277.511C207.275 278.842 209.275 280.394 209.78 281.883C210.284 283.371 206.999 283.954 205.628 283.71C203.799 283.404 202.122 282.504 200.855 281.15C200.067 280.181 199.563 279.031 198.996 278.267C198.429 277.503 197.137 276.692 196.838 275.778C196.743 274.955 196.832 274.121 197.098 273.336C197.318 272.548 197.547 271.611 197.83 271.682V272.233C198.504 272.759 199.339 273.037 200.193 273.021C200.839 273.021 202.485 272.871 202.478 272.351Z" fill="#263238"/>
<path d="M207.133 278.685L205.802 277.503C204.567 276.195 203.603 274.656 202.966 272.974C202.643 272.197 202.477 271.365 202.478 270.524V267.869H197.83V272.186V272.304C198.051 273.273 200.193 275.841 201.398 277.519C202.387 278.961 203.894 279.965 205.605 280.323C207.377 280.559 208.299 280.008 207.133 278.685Z" fill="#FFA8A7"/>
<path d="M198.751 200.072C195.152 207.949 198.885 235.684 198.885 235.684C198.775 236.968 197.31 239.481 196.774 245.137C196.128 251.785 197.782 268.468 197.782 268.468C198.494 268.886 199.297 269.122 200.122 269.155C200.946 269.188 201.766 269.017 202.509 268.657C202.509 268.657 206.943 243.522 207.778 236.913L210.441 215.708L214.379 236.401C213.325 238.023 212.454 239.755 211.78 241.568C210.842 244.491 208.944 261.143 208.944 261.143C209.585 261.728 210.351 262.16 211.183 262.404C212.016 262.648 212.894 262.699 213.749 262.553C213.749 262.553 222.847 239.709 223.257 235.046C223.501 232.25 219.421 198.954 219.421 198.954L198.751 200.072Z" fill="#37474F"/>
<path d="M210.41 215.676L211.04 211.124C211.04 211.124 215.994 210.1 218.239 207.973C216.689 209.79 214.662 211.138 212.387 211.864L211.725 216.259L212.513 226.444L210.41 215.676Z" fill="#263238"/>
<path d="M205.147 172.715C203.821 173.038 202.584 173.654 201.527 174.518C200.471 175.383 199.622 176.473 199.043 177.709C198.192 179.589 198.113 181.727 198.822 183.664L201.997 192.983C201.997 192.983 200.492 196.63 198.736 200.072C206.825 204.586 216.916 202.215 219.35 198.922C219.452 198.221 219.31 195.07 219.507 191.494C219.712 187.674 220.24 183.357 219.641 181.002C218.523 176.614 216.435 172.503 212.284 172.503L205.147 172.715Z" fill="#F03E3D"/>
<path d="M203.911 172.715C201.154 173.101 197.105 173.661 195.703 180.214C194.301 186.768 193.884 189.17 193.884 189.17C194.783 190.053 195.854 190.74 197.03 191.19C198.206 191.64 199.463 191.843 200.721 191.786L202.147 186.744L203.911 172.715Z" fill="#455A64"/>
<path d="M205.478 178.245C205.003 178.245 204.531 178.151 204.092 177.969C203.652 177.787 203.253 177.52 202.916 177.184C202.58 176.847 202.313 176.448 202.131 176.008C201.949 175.569 201.855 175.097 201.855 174.622V164.074H205.478V178.245Z" fill="#263238"/>
<path d="M215.608 154.118C216.703 154.764 218.05 157.513 217.916 163.271C217.806 168.154 216.223 169.368 215.427 169.714C214.632 170.061 213.103 169.848 211.615 169.596V172.526C211.615 172.526 213.671 174.889 213.545 176.268C213.419 177.646 210.567 177.93 208.637 176.614C207.394 175.713 206.326 174.592 205.486 173.306V166.217C205.33 166.409 205.136 166.568 204.917 166.685C204.698 166.801 204.459 166.874 204.212 166.897C203.965 166.92 203.716 166.895 203.479 166.821C203.242 166.748 203.022 166.628 202.832 166.469C201.186 165.374 201.123 162.672 202.084 161.743C203.045 160.813 205.1 161.081 205.486 162.42C207.433 162.335 209.328 161.766 211 160.766C212.24 160.102 213.304 159.153 214.106 157.997C214.907 156.841 215.422 155.512 215.608 154.118V154.118Z" fill="#FFA8A7"/>
<path d="M212.466 162.05C212.467 162.17 212.433 162.289 212.368 162.39C212.302 162.491 212.209 162.571 212.098 162.619C211.988 162.668 211.866 162.683 211.747 162.663C211.629 162.642 211.518 162.587 211.431 162.505C211.343 162.422 211.281 162.316 211.253 162.199C211.226 162.081 211.233 161.959 211.274 161.846C211.316 161.732 211.39 161.634 211.487 161.562C211.584 161.491 211.699 161.45 211.82 161.443C211.902 161.44 211.984 161.453 212.061 161.482C212.139 161.511 212.209 161.555 212.269 161.612C212.33 161.668 212.378 161.736 212.412 161.811C212.445 161.886 212.464 161.967 212.466 162.05V162.05Z" fill="#263238"/>
<path d="M212.631 166.185L214.057 166.642C214.031 166.738 213.987 166.828 213.926 166.906C213.865 166.984 213.789 167.05 213.702 167.097C213.615 167.145 213.519 167.175 213.42 167.185C213.321 167.195 213.222 167.184 213.127 167.154C212.936 167.088 212.777 166.95 212.685 166.769C212.592 166.589 212.573 166.38 212.631 166.185V166.185Z" fill="#F28F8F"/>
<path d="M217.499 160.159L216.262 159.301C216.314 159.217 216.383 159.144 216.463 159.088C216.544 159.031 216.636 158.992 216.732 158.972C216.829 158.952 216.929 158.952 217.025 158.972C217.122 158.992 217.213 159.032 217.294 159.088C217.46 159.206 217.574 159.383 217.612 159.583C217.65 159.782 217.61 159.989 217.499 160.159V160.159Z" fill="#263238"/>
<path d="M217.215 161.601C217.226 161.767 217.171 161.93 217.061 162.056C216.952 162.181 216.798 162.258 216.632 162.27C216.467 162.273 216.307 162.211 216.187 162.098C216.066 161.985 215.994 161.829 215.986 161.664C215.982 161.583 215.994 161.503 216.021 161.426C216.048 161.35 216.09 161.28 216.144 161.22C216.198 161.16 216.263 161.112 216.336 161.077C216.409 161.042 216.488 161.022 216.569 161.018C216.65 161.014 216.73 161.026 216.807 161.053C216.883 161.08 216.953 161.122 217.013 161.176C217.073 161.23 217.121 161.295 217.156 161.368C217.191 161.441 217.211 161.52 217.215 161.601V161.601Z" fill="#263238"/>
<path d="M214.316 161.254L214.419 164.949L216.364 164.342L214.316 161.254Z" fill="#F28F8F"/>
<path d="M211.615 169.596C210.039 169.391 206.81 168.462 206.306 167.186C206.506 167.833 206.903 168.403 207.44 168.816C208.401 169.643 211.615 170.581 211.615 170.581V169.596Z" fill="#F28F8F"/>
<path d="M223.989 191.51C224.88 189.856 225.1 189.785 225.636 189.422C226.171 189.06 229.409 188.572 230.756 188.454C232.331 188.32 232.906 188.611 232.465 189.982C231.237 193.415 229.741 196.747 227.991 199.946C227.566 200.513 227.479 201.033 225.699 201.206C223.919 201.38 221.941 201.459 221.327 201.498C220.713 201.537 219.862 201.687 220.413 199.875C221.116 197.829 221.928 195.823 222.847 193.865C223.564 192.376 223.989 191.51 223.989 191.51Z" fill="#37474F"/>
<path d="M199.988 193.841C199.988 193.841 214.395 195.362 216.262 194.787C218.129 194.212 220.634 192.345 221.981 191.573C223.328 190.801 224.297 190.738 224.297 191.053C224.297 191.368 223.147 193.14 222.879 193.865C222.611 194.59 224.123 194.598 226.093 194.141C228.062 193.684 228.857 192.565 229.377 193.211C229.897 193.857 228.282 197.15 225.006 198.386C221.729 199.623 219.295 198.804 216.585 198.914C213.875 199.025 198.358 200.238 194.6 199.056C194.501 198.454 194.57 197.836 194.799 197.27C195.028 196.704 195.409 196.213 195.9 195.85C197.115 194.914 198.505 194.231 199.988 193.841Z" fill="#FFA8A7"/>
<path d="M201.028 190.139C201.646 188.465 202.172 186.759 202.603 185.027C202.603 185.027 202.343 188.832 201.272 190.872L201.028 190.139Z" fill="#37474F"/>
<path d="M84.456 143.295L81.896 148.825L86.6616 152.905L90.7812 145.95L84.456 143.295Z" fill="#F28F8F"/>
<path d="M96.2088 130.645C93.1683 130.645 89.8206 131.787 88.6705 134.166C87.5205 136.544 83.9443 143.972 83.9443 143.972C83.9443 143.972 86.6304 147.911 90.8918 147.627L96.2088 130.645Z" fill="#37474F"/>
<path d="M109.395 218.386H105.188V224.507H109.395V218.386Z" fill="#FFA8A7"/>
<path d="M94.6062 210.814L90.4023 210.958L90.6127 217.075L94.8166 216.93L94.6062 210.814Z" fill="#FFA8A7"/>
<path d="M109.111 158.632C109.111 162.649 109.631 188.611 109.631 188.611C109.734 189.761 110.813 191.896 110.576 196.331C110.261 202.357 109.742 219.095 109.742 219.095C109.742 219.095 107.772 221.049 105.015 219.095C105.015 219.095 101.203 196.347 100.455 190.376C99.7929 185.169 98.6822 171.014 98.6822 171.014L94.7831 187.674C94.7831 187.674 95.4684 191.613 95.626 194.354C95.7835 197.095 94.9092 213.093 94.9092 213.093C94.2276 213.518 93.4467 213.758 92.6439 213.789C91.8412 213.819 91.0444 213.639 90.3326 213.266C90.3326 213.266 86.9613 189.935 86.528 187.438C86.0948 184.941 89.4819 158.632 89.4819 158.632H109.111Z" fill="#37474F"/>
<path d="M102.786 130.834H102.849C104.653 131.287 106.254 132.332 107.396 133.801C108.538 135.27 109.156 137.078 109.151 138.939V158.632C106.205 161.837 95.9329 163.358 89.458 158.632V138.151C89.458 134.882 91.2776 130.944 96.2952 130.652L102.786 130.834Z" fill="#02897A"/>
<path d="M104.204 114.079C104.542 114.041 104.884 114.081 105.204 114.194C105.525 114.307 105.816 114.491 106.055 114.733C106.842 115.521 106.685 117.057 106.055 120.515L103.597 120.798L104.204 114.079Z" fill="#263238"/>
<path d="M89.8597 113.118C89.3323 113.12 88.81 113.015 88.3237 112.811C87.536 112.378 87.3706 113.236 87.7802 113.977C88.0547 114.511 88.4617 114.967 88.9623 115.299C89.4629 115.631 90.0404 115.83 90.6396 115.875C90.6396 115.773 91.3406 113.961 91.3406 113.961L89.8597 113.118Z" fill="#263238"/>
<path d="M103.046 120.798C103.416 121.019 103.936 120.318 104.385 119.845C104.561 119.64 104.787 119.484 105.04 119.392C105.294 119.299 105.567 119.273 105.834 119.317C106.1 119.36 106.351 119.472 106.562 119.64C106.774 119.808 106.938 120.028 107.04 120.278C107.827 121.854 106.086 123.949 105.094 124.634C104.815 124.877 104.467 125.025 104.099 125.058C103.731 125.09 103.363 125.006 103.046 124.816L102.786 130.834C102.345 131.799 101.672 132.64 100.826 133.282C99.9811 133.924 98.99 134.347 97.9416 134.512C94.4048 134.993 95.1374 132.078 96.2953 130.645V128.455C95.4134 128.646 94.5064 128.694 93.6092 128.597C93.1445 128.47 92.0338 127.139 91.3328 125.651C90.5451 123.981 89.2139 121.019 90.3954 116.001C91.6636 110.605 97.4847 110.44 100.903 112.614C104.322 114.788 103.046 120.798 103.046 120.798Z" fill="#FFA8A7"/>
<path d="M103.046 121.413C103.235 121.413 103.928 120.263 104.385 119.837C105.015 119.262 104.204 114.071 104.204 114.071C104.204 114.071 104.842 112.11 103.597 110.802C102.353 109.495 99.9344 109.715 98.1699 109.652C96.0047 109.666 93.8598 109.234 91.8683 108.384C89.3634 107.297 89.1744 107.171 88.8672 108.266C88.6241 109.173 88.5936 110.124 88.7781 111.045C88.9625 111.966 89.3569 112.832 89.9306 113.575L91.1751 114.032C91.1751 114.032 91.8447 114.631 94.1842 114.914C96.3415 115.074 98.509 115.034 100.659 114.796C101.336 114.702 101.447 115.355 101.848 117.159C102.164 118.735 102.431 121.405 103.046 121.413Z" fill="#263238"/>
<path d="M104.196 114.489L106.409 113.299C106.339 113.151 106.239 113.018 106.116 112.909C105.993 112.8 105.849 112.717 105.692 112.665C105.536 112.614 105.371 112.595 105.207 112.609C105.043 112.623 104.884 112.67 104.739 112.748C104.443 112.913 104.221 113.186 104.12 113.51C104.019 113.834 104.046 114.184 104.196 114.489V114.489Z" fill="#263238"/>
<path d="M96.3033 128.455C97.8127 128.171 99.2922 127.747 100.722 127.187C101.395 126.834 101.945 126.284 102.298 125.611C102.126 126.28 101.82 126.907 101.4 127.454C100.565 128.526 96.2954 129.313 96.2954 129.313L96.3033 128.455Z" fill="#F28F8F"/>
<path d="M97.0909 119.979C97.094 120.11 97.1356 120.236 97.2105 120.343C97.2855 120.45 97.3903 120.532 97.5119 120.58C97.6335 120.627 97.7664 120.638 97.8939 120.61C98.0214 120.582 98.1378 120.517 98.2284 120.423C98.3191 120.329 98.3799 120.21 98.4033 120.082C98.4267 119.953 98.4116 119.821 98.3599 119.701C98.3081 119.581 98.2221 119.479 98.1127 119.408C98.0032 119.337 97.8752 119.3 97.7446 119.302C97.5684 119.306 97.401 119.379 97.2786 119.506C97.1562 119.633 97.0887 119.803 97.0909 119.979Z" fill="#263238"/>
<path d="M97.7842 117.506L99.1942 118.293C99.2919 118.1 99.3121 117.876 99.2506 117.669C99.1891 117.461 99.0506 117.284 98.8633 117.175C98.7711 117.124 98.6696 117.093 98.5649 117.082C98.4603 117.071 98.3545 117.082 98.2539 117.113C98.1534 117.143 98.06 117.194 97.9793 117.262C97.8986 117.329 97.8323 117.412 97.7842 117.506Z" fill="#263238"/>
<path d="M97.1382 124.43L95.6416 124.997C95.6744 125.097 95.7269 125.19 95.7962 125.269C95.8654 125.349 95.9499 125.413 96.0447 125.46C96.1394 125.506 96.2425 125.533 96.3478 125.539C96.4532 125.544 96.5585 125.529 96.6577 125.493C96.8608 125.413 97.0248 125.258 97.1146 125.059C97.2044 124.86 97.2129 124.634 97.1382 124.43V124.43Z" fill="#F28F8F"/>
<path d="M91.2381 118.049L92.5063 117.057C92.4453 116.971 92.3676 116.897 92.2779 116.842C92.1881 116.786 92.0881 116.749 91.9837 116.733C91.8794 116.717 91.7728 116.722 91.6704 116.748C91.5681 116.774 91.4719 116.82 91.3877 116.883C91.2176 117.021 91.1071 117.219 91.0792 117.436C91.0513 117.653 91.1082 117.873 91.2381 118.049V118.049Z" fill="#263238"/>
<path d="M91.6319 119.798C91.6297 119.974 91.6972 120.144 91.8196 120.271C91.942 120.398 92.1095 120.471 92.2857 120.475C92.464 120.471 92.6334 120.397 92.7573 120.269C92.8812 120.14 92.9494 119.968 92.9473 119.79C92.9575 119.698 92.948 119.604 92.9196 119.516C92.8911 119.427 92.8444 119.346 92.7823 119.276C92.7202 119.207 92.6443 119.152 92.5594 119.114C92.4745 119.076 92.3826 119.056 92.2896 119.056C92.1966 119.056 92.1047 119.076 92.0198 119.114C91.9349 119.152 91.859 119.207 91.7969 119.276C91.7348 119.346 91.6881 119.427 91.6596 119.516C91.6312 119.604 91.6217 119.698 91.6319 119.79V119.798Z" fill="#263238"/>
<path d="M94.9801 119.176L94.7595 123.122L92.7036 122.421L94.9801 119.176Z" fill="#F28F8F"/>
<path d="M105.188 222.427V221.821C104.787 221.994 103.849 225.562 102.187 227.082C100.856 228.288 99.0363 229.69 98.5873 231.021C98.1383 232.352 101.108 233.195 102.345 232.975C103.786 232.722 106.283 231.706 106.905 230.769C107.528 229.832 107.827 228.445 108.331 227.752C108.835 227.059 110.017 226.295 110.293 225.499C110.374 224.755 110.29 224.002 110.048 223.294C109.851 222.553 109.647 221.718 109.395 221.805C109.395 221.892 109.395 222.262 109.395 222.262C108.796 222.734 108.053 222.984 107.291 222.971C106.685 223.018 105.18 222.9 105.188 222.427Z" fill="#263238"/>
<path d="M90.5765 215.771C90.3559 215.771 90.1748 216.086 89.6943 216.606C88.977 217.336 88.1406 217.938 87.2209 218.386C85.6455 219.174 82.5892 220.387 81.2029 221.009C80.3443 221.403 80.4152 222.443 81.2738 223.042C82.1323 223.64 84.33 224.066 86.9216 223.483C88.3315 223.168 90.1748 221.868 91.3327 221.907C92.4906 221.947 94.6725 221.963 95.5311 221.372C96.3897 220.781 96.051 219.513 95.8068 218.426C95.5626 217.339 95.1609 215.433 94.767 215.511V215.881C94.2629 216.669 91.6871 216.961 90.5765 216.401V215.771Z" fill="#263238"/>
<path d="M84.9524 149.66C84.0623 147.998 83.8418 147.927 83.3062 147.564C82.7705 147.202 79.5331 146.714 78.1861 146.603C76.6107 146.469 76.0357 146.761 76.4768 148.124C77.6966 151.558 79.1819 154.892 80.9194 158.096C81.3448 158.655 81.4314 159.175 83.2116 159.348C84.9918 159.522 86.969 159.6 87.5834 159.64C88.1978 159.679 89.0485 159.829 88.4971 158.017C87.7934 155.972 86.9809 153.966 86.0631 152.007C85.4172 150.518 84.9524 149.66 84.9524 149.66Z" fill="#37474F"/>
<path d="M117.24 154.654C117.201 154.134 115.665 148.257 114.877 145.54L109.111 147.525L110.466 151.802L115.539 157.056C116.077 156.951 116.553 156.642 116.87 156.195C117.187 155.748 117.319 155.196 117.24 154.654V154.654Z" fill="#FFA8A7"/>
<path d="M110.442 151.802C110.442 151.802 94.5466 153.504 92.6798 152.929C90.8129 152.354 88.308 150.487 86.9611 149.715C85.6141 148.943 84.6452 148.88 84.6452 149.203C84.6452 149.526 85.7953 151.282 86.0631 152.007C86.3309 152.732 84.8185 152.74 82.8493 152.283C80.88 151.826 80.0845 150.707 79.5646 151.353C79.0447 151.999 80.6595 155.292 83.9363 156.528C87.2131 157.765 89.6471 156.946 92.3568 157.056C95.0665 157.166 111.758 158.238 115.515 157.056C115.615 156.455 115.546 155.838 115.317 155.274C115.087 154.709 114.706 154.219 114.215 153.858C113.09 152.953 111.813 152.257 110.442 151.802V151.802Z" fill="#FFA8A7"/>
<path d="M104.117 131.282C106.614 132.11 111.569 132.527 113.168 137.931C114.767 143.334 115.57 146.84 115.57 146.84C114.625 148.1 110.844 149.557 109.111 149.014L104.117 131.282Z" fill="#455A64"/>
<path d="M109.111 149.014L107.402 142.948L109.111 151.487V149.014Z" fill="#37474F"/>
<path d="M73.2547 161.759C73.1759 161.861 72.5064 162.972 72.5064 162.972L69.4265 167.383L66.4253 171.88C66.3308 172.018 66.1952 172.121 66.0381 172.176C65.881 172.231 65.7105 172.235 65.551 172.188L65.3462 172.117C64.3064 171.731 62.7468 171.077 60.6751 170.124C59.0131 169.336 59.0997 169.108 59.0997 168.824C59.0781 168.599 59.0781 168.372 59.0997 168.147V168.147C59.4384 167.501 60.4861 165.886 61.8961 163.846C64.4009 160.207 65.6061 158.592 66.3544 157.544C66.4612 157.391 66.6188 157.281 66.7991 157.234C66.9794 157.186 67.1707 157.204 67.3391 157.284C68.686 157.733 71.4193 158.907 72.853 159.49H72.916C73.6879 159.907 73.2626 161.727 73.2547 161.759Z" fill="#37474F"/>
<path d="M73.3338 161.617L72.5461 162.972L69.5371 167.469L66.3863 171.857C66.2917 171.994 66.1561 172.097 65.999 172.153C65.842 172.208 65.6714 172.212 65.5119 172.164L65.3071 172.093C64.2673 171.707 62.7077 171.053 60.6361 170.1C58.974 169.313 59.0607 169.084 59.0607 168.801C59.039 168.575 59.039 168.348 59.0607 168.123V168.123C60.6361 168.816 65.6222 171.179 65.7876 171.093C66.1815 170.904 69.5607 165.484 71.3566 162.719C72.2546 161.341 72.6563 160.758 72.932 160.286C72.9827 160.229 73.0204 160.162 73.0425 160.09C73.0646 160.017 73.0707 159.941 73.0602 159.866C73.0497 159.791 73.0229 159.719 72.9817 159.656C72.9405 159.592 72.8859 159.538 72.8218 159.498H72.7587C72.9356 159.591 73.0883 159.724 73.2045 159.887C73.3208 160.05 73.3974 160.238 73.4283 160.435C73.5142 160.624 73.5506 160.831 73.534 161.038C73.5175 161.245 73.4486 161.444 73.3338 161.617V161.617Z" fill="#37474F"/>
<path opacity="0.1" d="M73.3338 161.617L72.5461 162.972L69.5371 167.469L66.3863 171.857C66.2917 171.994 66.1561 172.097 65.999 172.153C65.842 172.208 65.6714 172.212 65.5119 172.164L65.3071 172.093C64.2673 171.707 62.7077 171.053 60.6361 170.1C58.974 169.313 59.0607 169.084 59.0607 168.801C59.039 168.575 59.039 168.348 59.0607 168.123V168.123C60.6361 168.816 65.6222 171.179 65.7876 171.093C66.1815 170.904 69.5607 165.484 71.3566 162.719C72.2546 161.341 72.6563 160.758 72.932 160.286C72.9827 160.229 73.0204 160.162 73.0425 160.09C73.0646 160.017 73.0707 159.941 73.0602 159.866C73.0497 159.791 73.0229 159.719 72.9817 159.656C72.9405 159.592 72.8859 159.538 72.8218 159.498H72.7587C72.9356 159.591 73.0883 159.724 73.2045 159.887C73.3208 160.05 73.3974 160.238 73.4283 160.435C73.5142 160.624 73.5506 160.831 73.534 161.038C73.5175 161.245 73.4486 161.444 73.3338 161.617V161.617Z" fill="black"/>
<path d="M66.3942 158.576L71.9238 160.892L66.0318 169.651L60.5337 167.123L66.3942 158.576Z" fill="#FAFAFA"/>
<path d="M64.8422 189.1C66.3546 188.666 68.6389 183.042 70.3561 176.662C72.0733 170.281 72.9791 168.871 73.0343 166.863C73.0894 164.854 72.9476 162.215 72.9476 162.215L69.9544 166.587C69.8245 165.744 69.5585 164.927 69.1667 164.169C68.7807 163.381 68.056 162.759 67.4652 163.231C67.1502 163.484 67.9851 164.563 67.804 166.973C67.7892 167.934 67.8843 168.893 68.0875 169.832L62.5264 183.302L64.8422 189.1Z" fill="#FFA8A7"/>
<path d="M42.4637 161.168C40.7071 160.672 39.2183 161.609 38.3912 164.405C36.9414 169.67 35.8882 175.036 35.2404 180.459C35.0041 182.404 34.7363 184.767 36.5953 184.948C38.0131 185.09 42.1092 184.303 42.826 183.594C43.787 182.664 43.6137 178.915 43.6137 178.915H41.4869C41.4869 178.915 41.9438 175.961 42.0777 175.063C42.5503 172.046 43.2514 168.241 43.2514 168.241L42.4637 161.168Z" fill="#F28F8F"/>
<path d="M52.7746 158.403L52.0578 164.712L45.835 165.437L46.7329 157.064L52.7746 158.403Z" fill="#FFA8A7"/>
<path d="M39.4546 149.195C39.9666 143.366 43.1253 140.971 45.5671 140.388C50.4981 139.23 55.3661 140.884 57.3826 144.327C57.8442 145.405 58.0822 146.565 58.0822 147.737C58.0822 148.91 57.8442 150.07 57.3826 151.148C56.3114 153.59 39.4782 149.179 39.4782 149.179" fill="#263238"/>
<path d="M57.6897 152.33C57.6897 152.33 58.5798 154.732 58.3435 154.913C57.972 155.047 57.5804 155.117 57.1855 155.118L57.6897 152.33Z" fill="#FFA8A7"/>
<path d="M55.0354 144.736C56.209 145.745 58.1862 147.572 57.6584 152.613C57.0755 157.828 55.8152 159.238 54.9645 159.742C54.3973 160.081 51.8846 159.49 50.7188 158.805C49.2694 157.946 46.0556 155.733 45.0788 152.747C43.9209 149.234 44.5038 145.044 47.0402 143.949C48.3308 143.393 49.7411 143.174 51.1393 143.312C52.5375 143.45 53.878 143.94 55.0354 144.736Z" fill="#FFA8A7"/>
<path d="M56.4847 144.87C56.5098 146.264 56.2205 147.646 55.6382 148.913C55.0559 150.18 54.1956 151.299 53.1212 152.188C53.1212 152.188 52.3886 150.29 50.7581 150.723C49.1276 151.156 49.1827 153.306 50.3485 154.472C50.6507 154.805 51.0418 155.045 51.4758 155.164C51.9097 155.283 52.3685 155.275 52.7982 155.142C52.5658 156.632 51.8683 158.01 50.8054 159.08C49.1091 159.47 47.3373 159.374 45.6932 158.803C44.0491 158.232 42.5994 157.209 41.5105 155.851C37.9107 151.526 38.9741 144.658 44.5983 142.633C46.5869 141.835 48.762 141.622 50.8677 142.018C52.9735 142.414 54.9222 143.404 56.4847 144.87V144.87Z" fill="#263238"/>
<path d="M45.0866 253.329L47.7726 257.062C46.5491 257.616 45.216 257.885 43.8735 257.85C41.471 257.945 40.8094 257.157 40.7227 256.968C40.3131 256.093 40.9512 254.526 41.1244 253.179L45.0866 253.329Z" fill="#263238"/>
<path d="M47.6073 255.259C47.6073 255.259 50.8605 255.046 53.1212 254.762C55.3819 254.479 57.1543 255.55 56.6265 256.503C56.0987 257.456 54.8542 258.204 52.9243 258.866C51.278 259.425 49.293 259.827 47.5679 260.339C45.8429 260.851 44.6692 261.481 43.6688 261.127C42.5503 260.741 42.0934 260.292 42.1643 259.481C42.4083 258.324 42.7107 257.18 43.0702 256.054L47.6073 255.259Z" fill="#263238"/>
<path d="M40.7227 249.563C40.7227 249.563 41.1244 252.951 41.1559 253.683C41.1874 254.416 44.4642 254.644 45.0944 253.313L45.1968 249.17L40.7227 249.563Z" fill="#F28F8F"/>
<path d="M44.0233 251.651L42.8811 256.794C42.8811 256.794 42.763 257.417 45.449 257.819C48.1351 258.22 52.3257 256.416 53.0425 256.054C53.7593 255.692 53.8302 254.959 51.2071 255.101C48.5841 255.243 47.6467 255.258 47.6467 255.258L48.5053 252.974L44.0233 251.651Z" fill="#FFA8A7"/>
<path d="M40.7228 182.79C38.4778 186.28 36.3511 189.352 35.8942 193.274C34.9332 201.561 38.084 211.029 38.7535 217.158C37.4799 218.901 36.7434 220.979 36.6346 223.136C36.6346 225.673 40.7228 249.563 40.7228 249.563C40.7228 249.563 43.6924 250.469 45.189 249.17L48.0011 205.216L46.5203 199.868L40.7228 182.79Z" fill="#455A64"/>
<path d="M48.0011 205.216L46.5202 199.867C43.733 199.143 41.0434 198.085 38.5093 196.717C38.5093 196.717 40.0295 199.474 44.3698 200.986L46.6305 207.863L46.8274 223.617L48.0011 205.216Z" fill="#37474F"/>
<path d="M40.7227 182.79C39.5254 184.744 36.6503 188.099 37.2647 191.313C38.0052 195.252 40.1005 197.953 46.5202 199.868L52.5382 221.663C52.5382 221.663 49.3874 224.601 48.4501 227.39C47.5127 230.178 44.0232 251.651 44.0232 251.651C44.0232 251.651 45.0945 253.4 48.4816 252.974C48.4816 252.974 60.2971 226.043 61.0848 224.31C62.0926 222.536 62.4466 220.465 62.0852 218.457C61.7071 215.637 57.6898 184.744 57.6898 184.744L40.7227 182.79Z" fill="#455A64"/>
<path d="M39.6278 163.121C39.8693 162.479 40.3242 161.939 40.9165 161.591C41.5088 161.244 42.2024 161.112 42.881 161.215C47.0794 162.357 53.6095 163.862 54.8462 164.224C54.8462 164.224 54.2869 172.314 59.1234 175.165C58.8949 176.969 57.6661 184.744 57.6661 184.744C57.6661 184.744 51.8529 187.564 47.0716 186.177C42.2902 184.791 40.6833 182.79 40.6833 182.79L43.0464 178.891C42.5344 177.623 40.5573 173.314 39.2812 169.313C38.8384 167.255 38.9582 165.116 39.6278 163.121Z" fill="#FFB900"/>
<path d="M42.4639 177.355C44.4525 178.551 46.5365 179.581 48.6946 180.435C46.7331 180.384 44.8157 179.842 43.1177 178.859L42.4639 177.355Z" fill="#E0E0E0"/>
<path d="M59.0212 174.559C57.3031 173.771 55.8895 172.443 54.9961 170.778C55.141 172.057 55.5797 173.286 56.2779 174.368C56.9761 175.451 57.915 176.357 59.0212 177.016V174.559Z" fill="#E0E0E0"/>
<path d="M54.8858 164.224C57.5246 165.012 59.163 165.264 60.5887 166.54C62.4634 168.226 64.4012 177.757 64.795 179.726C65.4803 183.137 66.2365 186.681 65.4961 188.272C64.9604 189.423 62.046 190.281 60.7699 186.563C60.5021 185.775 60.4469 185.413 60.2106 184.704C59.0054 181.144 57.1937 174.338 57.1937 174.338C57.1937 174.338 53.6254 172.369 54.8858 164.224Z" fill="#FFA8A7"/>
<path d="M42.0935 142.633C41.1561 143.177 39.4626 143.704 38.407 148.628C37.5477 152.758 37.0366 156.952 36.8789 161.168C36.9183 162.696 40.0848 166.942 46.7645 166.54C53.4442 166.138 55.8703 162.223 55.8703 162.223C55.8703 162.223 52.5856 160.884 52.8456 155.134C52.8456 155.134 51.6877 157.41 48.5132 156.268C45.3388 155.126 42.0935 142.633 42.0935 142.633Z" fill="#263238"/>
</svg>
