<?xml version="1.0" encoding="UTF-8"?>
<!-- Generator: Adobe Illustrator 25.2.0, SVG Export Plug-In . SVG Version: 6.00 Build 0)  -->
<svg xmlns="http://www.w3.org/2000/svg" xmlns:xlink="http://www.w3.org/1999/xlink" version="1.1" id="Capa_1" x="0px" y="0px" viewBox="0 0 500 500" style="enable-background:new 0 0 500 500;" xml:space="preserve" width="512" height="512">
<g>
	<g>
		<path d="M111.668,167.399c-0.687,2.594-1.26,5.008-1.967,7.381c-2.147,7.213-5.023,14.097-9.312,20.336    c-2.923,4.252-6.601,7.685-10.863,10.586c-8.424,5.734-17.493,2.919-22.575-2.034c-5.856-5.707-9.599-12.47-10.235-20.816    c-0.659-8.647,0.072-17.234,0.744-25.831c1.365-17.453,4.394-34.669,7.367-51.896c0.792-4.59,1.427-9.235,1.686-13.88    c0.181-3.25-0.006-6.633-0.726-9.797c-1.363-5.989-6.656-8.585-12.433-6.406c-1.613,0.609-3.166,1.474-4.605,2.433    c-4.994,3.329-9.273,7.403-12.474,12.528c-4.097,6.558-8.351,13.096-10.044,20.752c-1.176,5.315-1.695,10.777-2.463,16.18    c-0.265,1.863-0.416,3.744-0.581,5.62c-0.088,0.995-0.57,1.473-1.561,1.673c-2.174,0.438-4.135-0.144-5.955-1.201    c-6.596-3.833-10.936-9.455-13.428-16.664c-4.597-13.299-1.903-25.575,6.003-36.545c9.146-12.69,21.769-20.803,37.134-24.011    c10.948-2.286,20.922,0.416,29.529,7.738c8.668,7.373,12.347,17.092,13.227,28.11c0.684,8.563-0.374,17.037-1.514,25.493    c-1.749,12.978-3.74,25.925-5.29,38.926c-0.689,5.776-0.741,11.651-0.728,17.48c0.008,3.787,1.173,7.344,4.223,9.983    c1.697,1.468,2.8,1.619,4.709,0.401c2.633-1.678,4.64-3.979,6.275-6.609c4.198-6.751,7.008-14.11,8.728-21.806    c2.318-10.375,4.252-20.838,6.229-31.286c0.451-2.382,0.498-4.855,0.563-7.291c0.115-4.241,1.517-6.174,5.57-7.417    c4.419-1.354,8.862-0.856,13.307-0.203c1.397,0.205,2.799,0.409,4.176,0.716c2.506,0.559,3.202,1.953,2.333,4.391    c-1.326,3.721-2.938,7.376-3.87,11.195c-2.644,10.831-3.717,21.835-2.171,32.942c0.45,3.234,1.392,6.445,2.488,9.531    c1.16,3.266,3.336,3.607,5.531,0.885c1.516-1.88,2.793-4.038,3.778-6.249c3.29-7.394,5.065-15.256,6.819-23.12    c2.602-11.666,5.163-23.343,7.96-34.963c1.22-5.071,2.894-10.04,4.517-15.005c3.858-11.803,9.553-22.556,18.665-31.201    c7.333-6.957,15.651-12.261,25.782-14.128c5.755-1.06,11.464-0.727,17.003,1.267c5.145,1.852,9.013,5.212,11.467,10.125    c5.067,10.143,4.744,20.326,0.206,30.546c-2.725,6.137-6.744,11.426-10.893,16.617c-1.725,2.159-3.741,1.734-4.679-0.864    c-0.878-2.433-1.559-4.938-2.436-7.372c-1.594-4.423-3.773-8.526-6.975-12.022c-4.374-4.776-9.405-5.805-15.35-3.301    c-4.706,1.982-8.331,5.179-11.352,9.246c-5.7,7.676-9.199,16.35-11.237,25.557c-2.706,12.225-4.876,24.568-7.423,36.829    c-1.741,8.384-3.504,16.777-5.69,25.052c-1.532,5.797-4.914,10.785-8.678,15.415c-2.905,3.574-6.797,5.855-11.17,7.111    c-5.766,1.657-10.692-0.491-15.008-4.15c-5.481-4.646-8.566-10.79-10.303-17.65C112.94,173.722,112.374,170.666,111.668,167.399z     M85.225,197.23c-1.119,0.158-2.299,0.628-3.346,0.422c-4.939-0.973-8.692-3.385-10.1-8.635c-1.234-4.6-1.816-9.272-1.544-13.989    c0.657-11.378,1.322-22.761,2.317-34.112c0.827-9.423,2.158-18.802,3.212-28.206c0.644-5.749,1.201-11.508,1.77-17.265    c0.432-4.372,0.535-8.75-0.367-13.077c-0.649-3.114-1.707-6.077-4.019-8.409c-0.571-0.577-1.894-1.852-2.259-0.719    c-0.096,0.298,0.219,0.51,0.374,0.643c2.015,1.725,3.051,4.036,3.816,6.479c1.743,5.566,1.469,11.292,0.846,16.942    c-0.917,8.315-2.153,16.597-3.373,24.875c-2.492,16.913-4.993,33.82-5.489,50.947c-0.162,5.588,0.213,11.083,1.989,16.457    c2.104,6.367,6.899,8.969,13.08,9.747C83.851,199.547,84.79,198.816,85.225,197.23z M165.632,104.806    c0.1,0.17,0.312,0.28,0.498,0.216c0.152-0.052,0.25-0.196,0.33-0.335c0.331-0.578,0.526-1.221,0.731-1.854    c1.185-3.647,2.84-7.165,4.656-10.538c1.229-2.368,2.5-4.714,3.692-7.101c3.874-7.756,9.449-14.052,16.325-19.189    c2.195-1.64,4.725-2.962,7.285-3.959c8.432-3.287,14.935-0.391,18.382,7.972c0.321,0.778,0.486,1.619,0.752,2.421    c0.166,0.501,0.383,0.985,0.59,1.509c1.452-0.926,1.903-1.951,1.612-3.576c-0.596-3.335-2.243-6.172-4.288-8.799    c-3.495-4.488-8.098-6.13-13.634-5.083c-6.012,1.137-10.788,4.494-15.111,8.63c-6.153,5.886-11.305,12.47-14.61,20.408    c-0.959,2.305-1.976,4.584-2.969,6.874c-0.9,2.077-1.884,4.126-2.733,6.225c-0.632,1.564-1.118,3.184-1.43,4.837    c-0.07,0.369-0.257,0.932-0.105,1.291C165.614,104.773,165.622,104.79,165.632,104.806z M142.87,184.005    c-0.005-0.11-0.061-0.229-0.19-0.375c-0.037-0.042-0.078-0.087-0.133-0.101c-0.071-0.018-0.144,0.02-0.208,0.057    c-2.36,1.368-4.615,2.324-7.412,1.909c-2.519-0.374-4.844-1.786-6.177-3.981c-1.721-2.834-3.182-5.896-4.279-9.024    c-2.697-7.688-2.853-15.718-2.489-23.748c0.343-7.575,0.893-15.14,1.311-22.712c0.114-2.063,0.133-4.135,0.077-6.2    c-0.012-0.431-0.333-1.284-0.849-1.269c-0.463,0.014-0.642,0.764-0.706,1.185c-0.917,6-1.948,11.988-2.633,18.016    c-0.889,7.819-1.526,15.67-0.933,23.556c0.46,6.124,1.822,12.017,4.808,17.43c0.949,1.721,2.164,3.303,3.329,4.897    c2.59,3.544,8.137,4.199,12.135,3.317c0.985-0.217,1.945-0.606,2.77-1.191c0.419-0.297,0.805-0.645,1.129-1.045    C142.664,184.423,142.88,184.235,142.87,184.005z"/>
		<path d="M280.349,124.288c7.951,1.934,11.168,7.457,12.598,14.476c0.583,2.861,1.09,5.738,1.713,8.59    c0.239,1.095,0.604,2.188,1.085,3.199c1.259,2.65,4.111,3.76,6.624,2.307c1.84-1.063,3.416-2.606,5.024-4.031    c0.341-0.302,0.431-1.02,0.437-1.549c0.148-14.385,4.71-27.189,13.839-38.305c4.697-5.719,10.505-9.852,17.862-11.46    c7.453-1.628,14.468,1.544,18.598,7.966c7.631,11.863,2.554,30.7-9.107,37.143c-5.368,2.966-10.789,4.673-16.876,3.39    c-1.532-0.323-2.972-1.078-4.536-1.665c0.332,5.386,0.035,10.983,2.933,16.002c2.087,3.614,4.614,4.695,8.685,3.604    c5.096-1.366,9.044-4.42,11.818-8.853c1.986-3.173,3.283-6.654,3.622-10.451c0.232-2.607,0.618-2.869,3.181-2.699    c0.752,0.05,1.509,0.039,2.258,0.117c6.074,0.637,10.317,6.216,9.399,12.277c-1.364,9.006-6.081,15.807-13.691,20.622    c-7.088,4.484-14.787,6.761-23.17,5.019c-10.33-2.147-17.871-7.89-21.705-17.99c-0.066-0.174-0.164-0.336-0.334-0.678    c-0.274,0.568-0.49,1.01-0.701,1.453c-2.462,5.153-5.593,9.839-9.895,13.636c-4.666,4.119-10.582,4.631-15.685,1.493    c-2.852-1.754-4.897-4.278-5.766-7.438c-1.345-4.891-2.386-9.871-3.416-14.842c-0.85-4.101-1.387-8.267-2.288-12.355    c-0.388-1.762-1.225-3.46-2.068-5.077c-1.03-1.976-2.816-3.301-5.095-4.091c-0.332,2.386-0.62,4.742-0.993,7.085    c-1.966,12.317-3.93,24.636-5.966,36.942c-0.25,1.514-0.853,2.985-1.418,4.426c-0.577,1.472-1.671,2.57-3.204,2.984    c-2.854,0.771-5.699,0.708-8.39-0.679c-2.284-1.177-3.258-3.206-3.361-5.667c-0.082-1.962-0.017-3.931-0.017-5.845    c-1.121,1.523-2.277,3.168-3.51,4.754c-2.073,2.666-4.398,5.048-7.624,6.339c-6.922,2.772-17.567-0.301-18.273-11.959    c-0.039-0.641-0.086-1.281-0.366-1.985c-0.346,0.892-0.721,1.773-1.033,2.676c-1.748,5.064-4.677,9.317-8.727,12.813    c-5.713,4.932-12.137,5.878-19.139,3.355c-7.665-2.761-11.608-8.827-13.968-16.153c-0.716-2.222-1.181-4.583-1.356-6.911    c-0.77-10.222,0.363-20.24,3.862-29.91c2.638-7.288,7.426-13.092,13.29-17.982c3.586-2.991,7.974-4.32,12.623-4.215    c5.348,0.121,9.535,2.674,12.591,7.016c1.322,1.878,2.463,3.883,3.787,5.993c0.254-1.121,0.448-2.143,0.72-3.144    c0.765-2.813,1.939-3.961,4.841-4.082c3.709-0.155,7.434-0.116,11.145,0.023c2.558,0.096,3.591,1.565,3.072,4.124    c-0.897,4.428-2.022,8.814-2.79,13.263c-1.091,6.315-2.016,12.669-1.338,19.116c0.098,0.929,0.263,1.878,0.58,2.751    c0.949,2.612,3.629,3.394,5.822,1.703c2.352-1.814,4.121-4.14,5.483-6.756c3.379-6.487,5.553-13.331,6.506-20.617    c2.345-17.935,4.848-35.85,7.284-53.774c0.215-1.586,0.365-3.18,0.615-4.76c0.185-1.169,0.912-2.003,2.043-2.306    c4.12-1.105,8.305-1.752,12.572-1.16c2.221,0.309,2.56,0.748,2.308,3.007c-0.721,6.454-1.484,12.905-2.318,19.346    c-0.907,7.005-2.822,21.254-2.755,21.589c1.212-0.797,2.434-1.428,3.45-2.299c3.536-3.032,7.249-5.91,10.44-9.279    c6.934-7.32,13.52-14.967,20.372-22.365c7.274-7.853,14.764-15.508,23.409-21.891c6.779-5.005,14.152-8.811,22.564-10.254    c3.754-0.644,7.527-0.6,11.243,0.235c5.897,1.326,10.343,4.697,13.203,10.006c3.344,6.207,4.089,12.844,2.899,19.746    c-0.507,2.943-2.088,5.061-4.691,6.515c-3.539,1.977-7.357,3.138-11.289,3.942c-2.202,0.45-3.547-0.743-3.551-3.022    c-0.003-1.364,0.135-2.728,0.21-4.092c0.185-3.384-0.858-6.407-2.731-9.175c-2.27-3.354-5.05-4.347-8.932-3.2    c-3.032,0.897-5.63,2.562-8.106,4.488c-7.513,5.847-13.931,12.815-20.383,19.753c-4.332,4.659-8.569,9.414-13.055,13.921    c-6.191,6.22-13.119,11.471-21.289,14.907C281.592,123.629,281.158,123.881,280.349,124.288z M205.24,138.98    c0-1.932,0.115-3.873-0.038-5.792c-0.113-1.427-0.373-2.908-0.915-4.222c-1.406-3.404-3.926-3.894-6.227-1.042    c-1.722,2.135-3.156,4.576-4.333,7.063c-2.516,5.321-3.649,11.068-4.56,16.845c-0.853,5.403-1.749,10.837-0.82,16.299    c0.371,2.181,1.137,4.387,2.176,6.341c1.356,2.548,3.91,2.845,6.041,0.876c1.088-1.005,2.004-2.256,2.778-3.53    c2.153-3.539,3.364-7.46,4.225-11.477C205.077,153.302,205.232,146.144,205.24,138.98z M364.432,75.613    c1.403-1.21,1.508-2.465,1.385-3.787c-0.31-3.331-1.401-6.428-2.921-9.377c-1.469-2.85-3.795-4.664-6.951-5.273    c-4.217-0.814-8.338-0.175-12.412,0.993c-6.992,2.006-12.825,5.948-17.753,11.14c-5.934,6.252-11.694,12.676-17.36,19.173    c-7.326,8.4-15.012,16.424-23.813,23.286c-2.342,1.826-5.136,3.07-7.71,4.601c-0.242,0.144-0.644,0.359-0.596,0.65    c0.049,0.295,0.553,0.458,0.774,0.413c1.182-0.24,2.475-0.341,3.492-0.912c2.497-1.401,4.982-2.876,7.262-4.599    c8.671-6.553,16.52-14.012,23.857-22.022c4.393-4.795,8.724-9.653,13.267-14.303c3.418-3.498,6.937-6.95,10.757-9.989    c4.682-3.725,10.114-5.99,16.214-6.265c3.653-0.165,6.919,0.771,8.926,4.051c1.977,3.231,3.428,6.705,3.406,10.617    C364.253,74.437,364.346,74.864,364.432,75.613z M264.964,85.75c-0.115-1.78-0.189-3.563-0.378-5.335    c-0.041-0.388-0.311-1.037-0.757-1.098c-0.48-0.065-0.953,0.533-1.097,0.922c-0.403,1.095-0.746,2.24-0.904,3.394    c-0.924,6.764-1.676,13.552-2.696,20.301c-2.195,14.518-4.647,28.998-6.738,43.531c-1.226,8.518-1.978,17.104-2.888,25.665    c-0.102,0.956-0.361,2.424,0.983,2.569c1.274,0.137,1.264-1.325,1.408-2.239c0.542-3.44,0.959-6.9,1.493-10.341    c2.006-12.926,3.895-25.873,6.104-38.765C261.689,111.543,263.962,98.754,264.964,85.75z M352.427,166.154    c-0.002-0.023-0.018-0.041-0.033-0.058c-0.062-0.068-0.124-0.137-0.187-0.205c-0.024-0.027-0.049-0.054-0.082-0.067    c-0.078-0.032-0.163,0.022-0.23,0.074c-0.485,0.373-0.962,0.741-1.474,1.076c-0.627,0.41-1.275,0.788-1.938,1.136    c-1.322,0.694-2.703,1.27-4.113,1.76c-0.866,0.301-1.744,0.57-2.627,0.817c-5.486,1.529-11.901-0.504-15.362-5.001    c-3.444-4.475-5.434-9.507-5.77-15.211c-0.387-6.559,0.478-12.982,1.824-19.356c1.873-8.876,5.69-16.729,12.475-22.949    c1.754-1.608,3.696-2.896,6.037-3.521c0.439-0.117,1.249-0.245,1.219-0.717c-0.034-0.548-1.003-0.637-1.505-0.638    c-2.896-0.011-5.396,1.165-7.685,2.83c-4.259,3.1-7.662,6.941-10.061,11.658c-3.531,6.942-5.351,14.371-6.121,22.057    c-0.999,9.974,0.824,19.265,7.386,27.191c3.18,3.84,7.416,5.813,12.37,5.841c2.977,0.017,5.9-0.687,8.631-1.845    c1.358-0.576,2.671-1.257,3.944-2.001c1.289-0.753,2.418-1.549,3.28-2.803C352.413,166.201,352.425,166.183,352.427,166.154z     M195.098,121.323c0.009-0.019,0.016-0.038,0.023-0.059c0.21-0.632-1.375-0.548-1.682-0.538c-1.243,0.038-2.474,0.378-3.545,1.013    c-1.903,1.128-3.228,2.985-4.608,4.663c-1.022,1.242-1.979,2.558-2.751,3.972c-5.23,9.587-7.613,19.917-7.11,30.844    c0.255,5.535,1.367,10.902,5.028,15.291c1.608,1.928,3.645,3.512,5.584,5.136c0.352,0.295,1.466,0.538,1.78,0.02    c0.276-0.456-0.364-1.093-0.74-1.404c-4.975-4.112-7.249-9.511-7.549-15.822c-0.411-8.647,0.792-17.102,3.36-25.351    c1.529-4.913,3.436-9.671,6.628-13.799c0.69-0.892,1.455-1.746,2.389-2.388c0.442-0.304,0.919-0.554,1.421-0.743    C193.8,121.98,194.85,121.865,195.098,121.323z M309.724,153.988c0.011-0.127-0.055-0.241-0.264-0.32    c-0.165-0.062-0.353-0.022-0.506,0.065s-0.277,0.215-0.399,0.342c-1.372,1.43-2.575,2.958-3.833,4.487    c-2.579,3.134-5.157,6.267-8.866,8.179c-3.054,1.574-5.403,0.695-6.655-2.517c-0.204-0.525-0.421-1.063-0.501-1.614    c-0.505-3.493-1.051-6.983-1.435-10.491c-0.544-4.974-1.156-9.92-3.04-14.611c-1.457-3.628-3.747-6.541-7.317-8.264    c-0.944-0.456-2.046-0.631-3.097-0.792c-0.35-0.054-1.074,0.105-1.154,0.527c-0.074,0.391,0.482,0.7,0.814,0.862    c5.232,2.557,7.792,6.923,8.457,12.529c0.605,5.099,1.056,10.217,1.693,15.312c0.4,3.196,1.212,6.302,3.166,8.966    c2.268,3.091,5.74,3.891,9.13,2.11c0.706-0.37,1.369-0.828,2.028-1.281c3.436-2.365,5.9-5.658,8.423-8.888    c0.662-0.847,1.303-1.71,1.94-2.576c0.328-0.446,0.656-0.893,0.985-1.339C309.425,154.497,309.704,154.221,309.724,153.988z     M332.505,134.69c0.995-0.127,1.78-0.206,2.557-0.33c11.253-1.791,14.846-12.823,13.664-20.001    c-0.329-1.994-1.438-2.628-3.24-1.743c-1.228,0.603-2.417,1.498-3.308,2.534C337.361,120.752,334.798,127.501,332.505,134.69z     M233.092,173.191c-0.003-0.012-0.011-0.022-0.019-0.031c-0.091-0.113-0.234-0.234-0.386-0.234    c-0.073,0.008-0.144,0.048-0.206,0.084c-0.167,0.095-0.342,0.178-0.508,0.275c-0.188,0.11-0.366,0.237-0.551,0.35    c-0.37,0.226-0.769,0.403-1.185,0.525c-0.114,0.033-0.23,0.065-0.345,0.091c-0.269,0.062-0.544,0.104-0.82,0.121    c-0.275,0.017-0.552,0.01-0.825-0.026c-0.273-0.036-0.542-0.1-0.801-0.195c-0.264-0.097-0.515-0.227-0.747-0.387    c-0.246-0.17-0.469-0.374-0.663-0.602c-0.218-0.255-0.4-0.54-0.551-0.84c-0.026-0.052-0.051-0.105-0.076-0.158    c-0.868-1.899-1.675-3.923-1.97-5.969c-0.949-6.579-0.201-13.165,0.335-19.741c0.478-5.869,0.926-11.74,1.366-17.612    c0.042-0.557-0.003-1.14-0.132-1.681c-0.062-0.261-0.39-0.597-0.637-0.634c-0.233-0.035-0.644,0.216-0.759,0.448    c-0.373,0.755-0.767,1.535-0.939,2.35c-0.982,4.649-2.153,9.277-2.786,13.975c-1.071,7.958-1.457,15.964,0.108,23.928    c0.615,3.128,1.869,5.938,4.578,7.859c1.276,0.905,3.026,1.093,4.539,0.881c0.763-0.107,1.521-0.328,2.191-0.714    c0.343-0.197,0.643-0.458,0.904-0.754c0.295-0.335,0.54-0.707,0.771-1.088c0.032-0.053,0.064-0.105,0.096-0.158    C233.085,173.237,233.097,173.216,233.092,173.191z"/>
	</g>
	<path d="M215.876,228.779c2.035-4.437,4.561-8.446,8.251-11.596c1.139-0.973,2.362-1.901,3.678-2.603   c4.442-2.37,8.771-2.284,13.068,0.589c4.378,2.927,7.211,6.98,9.118,11.756c3.482,8.725,4.489,17.844,4.23,27.166   c-0.221,7.955-2.257,15.442-5.722,22.553c-2.791,5.727-6.958,10.284-12.347,13.667c-3.434,2.156-7.188,3.293-11.301,2.789   c-5.189-0.636-9.209-3.12-11.898-7.653c-0.38-0.641-0.72-1.307-1.182-2.151c-0.113,0.351-0.214,0.527-0.223,0.708   c-0.877,18.258-1.746,36.517-2.62,54.776c-0.056,1.176-0.104,2.355-0.222,3.527c-0.175,1.755-1.04,2.84-2.764,2.8   c-2.707-0.063-5.475-0.192-8.081-0.841c-1.51-0.376-2.982-1.62-4.067-2.836c-2.077-2.328-3.179-5.206-3.549-8.324   c-0.739-6.224-0.104-12.429,0.371-18.626c0.526-6.859,1.203-13.707,1.813-20.56c0.049-0.554,0.09-1.108,0.135-1.665   c-1.972,1.817-3.786,3.719-5.833,5.325c-3.231,2.535-6.849,3.245-10.736,1.517c-2.304-1.024-4.236-2.602-5.449-4.767   c-1.253-2.238-2.136-4.685-3.145-7.055c-0.231-0.543-0.317-1.148-0.581-2.144c-0.373,0.95-0.605,1.525-0.827,2.104   c-2.726,7.123-6.965,12.995-13.744,16.819c-5.828,3.288-11.563,3.206-17.491,0.099c-8.085-4.238-11.25-11.43-12.335-19.884   c-0.852-6.642,0.037-13.266,0.654-19.881c1.024-10.978,2.097-21.952,3.045-32.936c0.429-4.982,0.567-9.995-0.558-14.918   c-0.371-1.624-1.043-3.21-1.781-4.713c-0.925-1.884-0.634-3.095,1.323-3.779c3.596-1.257,7.208-2.471,10.84-3.619   c6.586-2.081,10.569,1.615,12.184,6.78c1.448,4.629,1.332,9.417,0.967,14.164c-0.963,12.496-2.163,24.975-3.058,37.475   c-0.477,6.662-0.564,13.354-0.721,20.035c-0.034,1.435,0.225,2.93,0.638,4.311c0.905,3.019,3.529,3.781,5.729,1.554   c1.57-1.588,2.897-3.471,4.072-5.383c2.861-4.653,4.447-9.851,6.057-15.024c0.979-3.146,1.9-6.31,2.875-9.458   c1.483-4.788,2.36-9.655,2.659-14.682c0.62-10.397,1.663-20.759,3.538-31.019c0.051-0.278,0.129-0.561,0.119-0.838   c-0.125-3.462,1.714-5.231,4.932-6.027c3.148-0.779,6.211-1.912,9.558-1.346c1.593,0.27,2.541,1.182,2.647,2.665   c0.161,2.245,0.238,4.526,0.029,6.762c-1.474,15.809-3.112,31.603-4.511,47.418c-0.447,5.051-0.397,10.151-0.424,15.229   c-0.006,1.172,0.536,2.372,0.95,3.514c0.39,1.076,1.193,1.336,2.092,0.555c0.812-0.706,1.693-1.417,2.257-2.308   c3.68-5.814,6.608-11.922,7.188-18.93c1.115-13.478,2.271-26.952,3.407-40.427c0.235-2.781,0.803-3.578,3.548-4.106   c2.394-0.46,4.832-0.794,7.265-0.929c2.762-0.153,4.413,0.976,5.125,3.671c0.533,2.018,0.619,4.166,0.785,6.266   C215.968,225.783,215.876,227.239,215.876,228.779z M200.161,335.575c0-1.106,0.024-1.985-0.004-2.863   c-0.359-11.271,0.16-22.519,1.303-33.722c1.152-11.292,2.693-22.543,3.926-33.827c1.228-11.243,2.356-22.503,2.148-33.835   c-0.053-2.907-0.452-5.816-0.829-8.706c-0.13-0.999-0.258-2.385-1.651-2.36c-0.294,0.005-0.776,1.621-0.799,2.505   c-0.086,3.201,0.211,6.424-0.04,9.607c-1.127,14.326-2.322,28.647-3.629,42.957c-1.366,14.968-2.942,29.919-2.524,44.984   c0.119,4.283,0.258,8.565,0.431,12.845C198.531,334.119,198.644,335.136,200.161,335.575z M140.055,296.923   c-2.634-2.789-4.126-6.177-4.334-9.99c-0.432-7.925,0.309-15.804,0.938-23.691c1.029-12.906,2.02-25.816,2.903-38.733   c0.244-3.569-0.01-7.163-1.279-10.585c-0.226-0.61-0.525-1.22-0.922-1.727c-0.213-0.272-0.765-0.511-1.058-0.421   c-0.281,0.086-0.574,0.607-0.599,0.956c-0.06,0.839,0.034,1.69,0.068,2.536c0.111,2.817,0.485,5.652,0.287,8.446   c-0.713,10.051-1.716,20.082-2.422,30.134c-0.643,9.154-1.129,18.322-1.512,27.491c-0.202,4.853,1.122,9.418,3.63,13.594   c0.499,0.831,1.161,1.608,1.888,2.249C138.395,297.841,139.256,297.788,140.055,296.923z M230.437,273.732   c0.684-0.77,1.207-1.16,1.462-1.681c1.07-2.189,2.313-4.338,3.036-6.644c2.954-9.435,2.906-19.008,0.805-28.597   c-0.207-0.947-0.926-1.821-1.539-2.629c-0.639-0.842-1.414-0.759-1.883,0.195c-0.6,1.219-1.187,2.463-1.595,3.754   c-1.966,6.228-2.846,12.661-3.445,19.138c-0.435,4.705-0.002,9.312,1.762,13.735C229.376,271.849,229.868,272.634,230.437,273.732z    M227.738,223.741c1.017-0.181,1.731-0.242,2.405-0.44c2.054-0.602,3.87-0.181,5.61,1.025c2.176,1.508,4.014,3.317,5.084,5.746   c0.984,2.231,2.002,4.491,2.603,6.84c2.378,9.293,1.765,18.585-0.437,27.82c-1.018,4.266-2.346,8.438-4.504,12.29   c-3.335,5.952-10.317,8.938-16.964,7.3c-0.267-0.066-0.573,0.026-0.991,0.053c1.18,1.991,3.05,2.136,4.788,2.037   c8.086-0.465,14.243-3.794,17.674-11.6c4.2-9.557,5.969-19.493,5.417-29.862c-0.335-6.289-1.883-12.266-5.155-17.721   c-1.748-2.915-4.141-5.132-7.268-6.462C232.881,219.44,229.143,220.658,227.738,223.741z M179.567,290.671   c-1.945-2.197-3.804-4.444-4.314-7.342c-0.494-2.812-1.002-5.713-0.83-8.533c0.43-7.044,1.15-14.075,1.923-21.092   c1.264-11.467,2.678-22.918,3.986-34.381c0.16-1.396,0.158-2.832,0.032-4.231c-0.028-0.309-0.196-0.606-0.398-0.899   c-0.289-0.421-0.89-0.474-1.247-0.109c-0.24,0.246-0.448,0.501-0.525,0.79c-0.411,1.54-0.685,3.128-0.889,4.712   c-1.777,13.826-3.61,27.646-5.245,41.489c-0.734,6.218-1.136,12.479-0.175,18.74c0.658,4.289,2.875,7.713,5.769,10.779   C178.196,291.167,178.884,291.726,179.567,290.671z"/>
	<g>
		<path d="M296.826,445.262c-7.612,0.252-15.169-0.014-22.577-2.052c-6.54-1.799-11.726-5.457-15.562-11.046    c-0.605-0.881-1.029-1.894-0.178-2.69c0.783-0.734,1.75-1.128,3.027-0.523c3.816,1.807,7.884,2.741,12.082,3.243    c14.196,1.701,28.202,0.173,42.203-2.132c23.523-3.873,46.685-9.506,70.048-14.152c14.176-2.819,28.314-5.85,42.539-8.4    c11.325-2.03,22.773-3.287,34.328-2.405c6.608,0.504,13.044,1.755,19.174,4.437c7.767,3.398,12.372,9.442,14.923,17.295    c0.32,0.984,0.514,2.158-0.5,2.667c-0.689,0.346-1.856,0.276-2.584-0.074c-5.726-2.755-11.836-4.055-18.062-4.871    c-13.422-1.758-26.842-1.038-40.186,0.668c-16.541,2.115-33.067,4.398-49.53,7.046c-19.066,3.067-38.04,6.694-57.083,9.911    C318.286,443.973,307.58,444.939,296.826,445.262z"/>
		<g>
			<path d="M349.006,340.885c-0.953,4.546-1.909,9.092-2.857,13.639c-0.75,3.593-1.51,7.185-2.23,10.784     c-0.398,1.991-1.492,3.47-3.456,3.877c-3.349,0.694-6.74,1.22-10.135,1.644c-1.487,0.186-2.319-0.925-2.646-2.273     c-2.142-8.814-6.621-16.684-10.062-24.972c-0.144-0.346-0.324-0.678-0.507-1.005c-0.034-0.061-0.162-0.069-0.329-0.134     c0.175,3.886,0.416,7.731,0.51,11.58c0.336,13.659,0.625,27.318,0.924,40.977c0.02,0.894-0.015,1.791-0.04,2.686     c-0.117,4.273-1.073,5.759-5.192,6.962c-3.011,0.88-6.145,1.346-9.232,1.956c-0.543,0.107-1.131,0.062-1.689,0.003     c-2.115-0.22-2.789-0.933-2.911-3.063c-0.249-4.327-0.425-8.66-0.736-12.983c-2.156-29.948-3.262-59.939-3.744-89.956     c-0.041-2.544-0.069-5.088-0.076-7.633c-0.005-2.122,0.892-3.499,2.997-3.845c3.944-0.648,7.92-1.136,11.899-1.514     c2.043-0.194,3.661,0.845,4.623,2.672c0.942,1.79,1.849,3.607,2.625,5.474c4.121,9.909,8.251,19.814,12.257,29.769     c1.456,3.619,2.573,7.375,3.853,11.065c0.182,0.524,0.411,1.031,0.915,1.535c0.323-2.27,0.695-4.535,0.96-6.812     c1.64-14.084,3.26-28.171,4.876-42.258c0.607-5.295,1.256-5.963,6.512-6.715c3.496-0.5,6.981-1.082,10.479-1.566     c2.597-0.359,4.064,0.47,4.555,3.051c0.8,4.202,1.395,8.451,1.887,12.702c1.061,9.169,2.092,18.344,2.964,27.533     c0.832,8.768,1.443,17.558,2.16,26.337c0.809,9.906,1.658,19.809,2.425,29.718c0.33,4.273,0.543,8.557,0.719,12.839     c0.094,2.29-0.735,3.52-2.946,4.028c-3.618,0.83-7.272,1.539-10.942,2.096c-2.333,0.354-3.381-0.532-3.612-2.861     c-0.552-5.575-1.131-11.153-1.455-16.744c-0.736-12.693-1.103-25.412-2.866-38.027c-0.025-0.177-0.071-0.351-0.108-0.526     C349.252,340.913,349.129,340.899,349.006,340.885z"/>
			<path d="M250.428,415.122c-7.771-0.177-15.134-1.836-22.027-5.495c-4.384-2.327-7.839-5.658-10.802-9.574     c-1.836-2.427-2.232-4.936-0.567-7.604c1.742-2.793,3.373-5.667,5.287-8.337c1.857-2.592,3.626-2.622,6.057-0.606     c4.175,3.464,8.414,6.843,13.498,8.937c3.539,1.458,7.201,2.22,11.04,1.795c7.853-0.869,11.877-6.67,9.898-14.326     c-1.578-6.103-5.054-10.991-9.896-14.94c-3.287-2.68-6.576-5.36-9.939-7.942c-4.408-3.384-8.312-7.304-11.615-11.715     c-5.073-6.775-6.768-14.549-5.37-22.879c1.773-10.563,6.758-19.284,15.386-25.806c6.286-4.751,13.345-6.703,21.135-5.63     c7.911,1.09,13.206,5.706,15.634,13.15c1.433,4.391,2.06,9.071,2.768,13.664c0.476,3.09-0.524,4.631-3.459,5.668     c-3.095,1.093-6.298,1.886-9.464,2.772c-1.192,0.334-2.072-0.218-2.498-1.3c-0.463-1.174-0.847-2.395-1.111-3.628     c-0.759-3.536-2.356-6.527-5.289-8.744c-4.075-3.079-8.086-2.004-9.96,2.737c-1.573,3.98-1.043,7.979,0.131,11.923     c1.571,5.276,4.92,9.355,8.906,13.011c4.722,4.331,9.497,8.614,14.027,13.14c7.077,7.071,11.479,15.564,12.651,25.59     c0.38,3.252,0.253,6.505-0.636,9.676c-2.203,7.861-6.188,14.602-12.506,19.9c-4.224,3.541-9.106,5.436-14.519,6.05     C254.944,414.861,252.682,414.955,250.428,415.122z"/>
			<path d="M432.527,371.41c2.426-0.398,4.768-0.873,7.133-1.154c8.042-0.955,16.079-1.992,24.143-2.714     c8.862-0.794,17.752-1.284,26.631-1.879c1.172-0.078,2.356-0.011,3.533,0.023c1.98,0.058,3.475,0.959,4.186,2.816     c1.538,4.016,1.981,8.226,1.814,12.489c-0.064,1.63-1.2,2.625-3.035,2.806c-5.296,0.521-10.592,1.07-15.9,1.42     c-12.172,0.805-24.351,1.512-36.529,2.232c-8.19,0.484-16.317,1.423-24.358,3.094c-0.941,0.196-2.038,0.237-2.916-0.072     c-0.566-0.199-1.17-1.135-1.231-1.791c-0.431-4.593-0.84-9.193-1.042-13.801c-0.752-17.144-0.389-34.292-0.167-51.442     c0.176-13.614,0.02-27.232,0.033-40.848c0.002-1.785,0.06-3.578,0.226-5.354c0.15-1.607,1.126-2.746,2.66-3.15     c3.409-0.899,6.822-1.858,10.293-2.434c3.481-0.578,5.037,0.928,5.045,4.446c0.06,27.375,0.132,54.75,0.116,82.125     c-0.003,4.184-0.442,8.367-0.676,12.551C432.476,370.949,432.508,371.128,432.527,371.41z"/>
			<path d="M470.817,302.866c2.93-0.172,5.741-0.403,8.555-0.48c1.78-0.049,3.582,0.008,5.345,0.241     c1.938,0.256,3.165,1.518,3.387,3.463c0.358,3.131,0.669,6.275,0.794,9.422c0.087,2.175-0.969,3.451-3.137,3.634     c-3.277,0.277-6.58,0.237-9.873,0.333c-1.693,0.049-3.392,0.04-5.076,0.196c-0.377,0.035-0.992,0.642-1.004,1.002     c-0.257,7.719-0.445,15.441-0.64,23.163c-0.003,0.131,0.07,0.265,0.158,0.573c1.698-0.183,3.402-0.439,5.116-0.538     c5.123-0.295,10.248-0.545,15.374-0.77c0.79-0.035,1.598,0.105,2.384,0.239c1.881,0.32,2.995,1.224,3.121,3.117     c0.22,3.279,0.295,6.583,0.168,9.866c-0.085,2.199-1.148,3.161-3.42,3.433c-3.036,0.364-6.089,0.66-9.143,0.793     c-7.296,0.318-14.597,0.567-21.898,0.748c-2.061,0.051-4.149-0.103-6.191-0.394c-2.989-0.426-4.468-1.962-4.633-4.979     c-0.358-6.535-0.733-13.077-0.791-19.619c-0.155-17.482-0.208-34.965-0.157-52.448c0.012-4.222,0.485-8.453,0.928-12.661     c0.312-2.962,2.145-4.811,5.08-5.289c6.224-1.015,12.454-2.019,18.708-2.817c4.386-0.56,8.811-0.896,13.229-1.102     c4.16-0.194,4.363,0.023,4.725,4.173c0.295,3.376,0.407,6.773,0.467,10.164c0.046,2.642-1.056,3.936-3.728,4.246     c-3.366,0.39-6.763,0.502-10.136,0.84c-2.008,0.201-4.017,0.516-5.98,0.974c-0.558,0.13-1.345,0.923-1.369,1.443     c-0.272,5.833-0.422,11.671-0.582,17.509C470.584,301.835,470.737,302.336,470.817,302.866z"/>
			<path d="M400.613,335.213c0.212,13.568,0.403,27.135,0.649,40.702c0.066,3.626,0.302,7.248,0.451,10.873     c0.039,0.941,0.09,1.885,0.054,2.824c-0.064,1.683-0.859,2.977-2.526,3.343c-3.528,0.776-7.066,1.649-10.647,2.004     c-3.625,0.36-5.288-1.229-5.447-4.889c-0.337-7.765-0.51-15.538-0.728-23.308c-0.559-19.923-1.205-39.844-1.608-59.77     c-0.162-8.001,0.221-16.014,0.359-24.021c0.029-1.664,0.792-2.924,2.285-3.618c4.264-1.982,8.752-2.514,13.37-1.761     c1.542,0.252,2.308,1.397,2.421,3.222c0.114,1.834,0.205,3.67,0.243,5.507c0.338,16.298,0.663,32.596,0.991,48.894     C400.525,335.214,400.569,335.214,400.613,335.213z"/>
		</g>
	</g>
	<g>
		<g>
			<path d="M161.839,455.76c-6.672-2.14-9.798-7.206-10.797-13.719c-0.764-4.98,0.021-9.868,2.146-14.475     c4.367-9.468,10.873-16.883,20.506-21.298c2.523-1.157,5.116-1.917,7.911-1.745c1.995,0.123,2.255,0.61,1.32,2.298     c-0.319,0.576-0.646,1.152-1.018,1.694c-6.152,8.946-8.748,18.841-8.115,29.662c0.175,2.999,0.076,6.031-0.135,9.032     c-0.302,4.292-1.189,6.431-3.761,7.852c-2.373,1.311-5.216,1.537-7.817,0.774C161.999,455.81,161.919,455.785,161.839,455.76z"/>
			<path d="M136.621,365.274c-20.78,0.092-39.653-3.296-57.639-11.128c-7.647-3.33-14.786-7.53-21.054-13.061     c-8.488-7.491-14.328-16.64-16.144-27.939c-1.483-9.226,0.49-17.637,8.2-23.598c7.969-6.161,16.952-7.436,26.407-3.668     c6.468,2.578,11.828,6.9,16.532,11.879c6.598,6.984,12.854,14.292,19.237,21.479c7.428,8.362,15.096,16.473,24.14,23.147     c8.012,5.912,16.717,10.394,26.542,12.374c2.467,0.497,5.053,0.536,7.584,0.529c1.447-0.004,2.412,0.651,3.31,1.521     c0.786,0.762,0.531,1.466-0.679,2.233c-2.53,1.604-5.263,2.663-8.196,3.325C155.154,364.557,145.325,365.417,136.621,365.274z"/>
			<path d="M78.239,434.088c0.073-4.675,1.403-9.028,3.317-13.213c5.606-12.263,14.704-21.321,26.215-28.033     c15.38-8.97,32.032-12.93,49.807-12.109c2.296,0.106,4.598,0.452,6.855,0.901c1.051,0.209,2.071,0.827,2.974,1.45     c0.902,0.622,0.774,1.451-0.191,1.993c-0.53,0.298-1.104,0.537-1.683,0.727c-7.814,2.561-14.131,7.513-19.97,13.013     c-8.625,8.124-16.026,17.363-23.476,26.561c-4.526,5.589-9.417,10.912-14.465,16.039c-3.86,3.92-8.7,6.38-14.232,7.314     c-7.678,1.297-13.668-2.999-14.786-10.706C78.415,436.721,78.358,435.4,78.239,434.088z"/>
		</g>
		<path d="M428.035,125.695c0.409,0.798,0.361,1.789-0.219,2.472c-0.003,0.003-0.006,0.007-0.009,0.01    c-1.677,1.946-3.558,3.744-5.038,5.827c-4.4,6.191-6.928,13.218-8.722,20.537c-0.089,0.365-0.177,0.732-0.294,1.089    c-0.337,1.036-0.972,1.743-2.142,1.691c-1.101-0.049-1.687-0.763-1.931-1.761c-0.246-1.004-0.426-2.025-0.634-3.038    c-1.749-8.533-5.543-16.052-11.226-22.634c-1.908-2.209-2.114-3.345-0.36-5.771c3.43-4.743,6.672-9.582,8.963-14.994    c1.412-3.334,2.757-6.697,4.136-10.045c0.209-0.508,0.376-1.049,0.667-1.507c0.847-1.335,2.846-1.192,3.58,0.208    c0.252,0.481,0.413,1.022,0.561,1.548c2.438,8.671,5.754,16.921,11.335,24.122C427.232,124.132,427.635,124.912,428.035,125.695z"/>
		<path d="M443.854,169.885c-0.131-0.374-0.112-0.784,0.048-1.146c0.329-0.742,0.62-1.545,1.181-2.048    c4.841-4.335,7.597-9.994,10.258-15.731c0.396-0.853,0.832-1.688,1.274-2.518c0.569-1.07,1.361-1.834,2.688-1.637    c1.266,0.188,1.776,1.142,2.06,2.239c0.364,1.411,0.558,2.877,1.032,4.247c1.748,5.041,3.974,9.855,6.989,14.285    c2.975,4.371,2.815,4.699-0.993,8.301c-4.723,4.467-8.776,9.454-10.815,15.791c-0.202,0.626-0.314,1.365-0.724,1.819    c-0.548,0.605-1.363,1.373-2.037,1.348c-0.678-0.026-1.464-0.835-1.938-1.492c-0.414-0.574-0.482-1.409-0.664-2.138    c-1.703-6.831-3.977-13.435-7.624-19.509C444.278,171.173,444.095,170.573,443.854,169.885z"/>
		<path d="M94.563,248.947c0.259,0.647,0.224,1.384-0.112,1.995c-0.197,0.358-0.405,0.706-0.658,1.016    c-0.407,0.499-0.957,0.93-1.526,1.242c-3.817,2.092-5.397,5.729-6.718,9.519c-0.555,1.594-1.046,3.215-1.342,4.876    c-0.242,1.354-0.664,2.537-2.122,2.647c-1.217,0.092-1.937-0.645-2.349-1.675c-0.576-1.439-1.143-2.889-1.595-4.37    c-1.283-4.203-3.527-7.772-6.818-10.687c-0.598-0.53-1.181-1.086-1.704-1.689c-1.142-1.319-1.237-3,0.124-4.018    c5.824-4.355,7.747-11.038,10.255-17.405c0.308-0.783,0.563-1.583,0.815-2.386c0.403-1.284,1.082-2.268,2.528-2.133    c1.295,0.121,1.925,1.062,1.972,2.224c0.2,4.998,2.473,9.208,4.939,13.353c1.227,2.062,2.498,4.098,3.703,6.173    C94.19,248.034,94.372,248.47,94.563,248.947z"/>
		<path d="M63.179,390.46c0.482,0.735,0.214,1.62-0.423,2.226c-0.003,0.003-0.006,0.005-0.008,0.008    c-3.358,3.441-4.58,7.877-5.696,12.345c-0.286,1.145-0.455,2.314-0.551,3.489c-0.114,1.393-0.408,2.677-1.874,3.01    c-1.285,0.292-2.22-0.315-2.812-1.396c-0.767-1.401-1.481-2.835-2.154-4.284c-1.91-4.114-4.17-8.003-7.052-11.527    c-1.526-1.866-1.531-3.252,0.023-4.896c2.982-3.153,4.756-6.966,6.239-10.958c0.573-1.542,0.992-3.172,1.791-4.587    c0.407-0.72,1.521-1.473,2.28-1.438c0.758,0.035,1.971,0.928,2.124,1.631c1.176,5.434,4.471,9.811,6.981,14.578    C62.3,389.141,62.751,389.806,63.179,390.46z"/>
		<path d="M479.194,219.443c2.391,2.269,4.642,4.399,6.886,6.537c1.09,1.039,2.258,2.019,3.201,3.179    c0.253,0.311,0.278,0.807,0.298,1.309c0.016,0.411-0.26,0.776-0.66,0.873c-0.491,0.119-0.979,0.231-1.314,0.054    c-1.569-0.829-3.055-1.839-4.487-2.894c-1.657-1.221-3.223-2.565-5.063-4.044c-0.07,0.721-0.131,1.11-0.141,1.501    c-0.093,3.72-0.158,7.44-0.279,11.159c-0.029,0.887-0.133,1.803-0.411,2.636c-0.144,0.432-0.783,1.025-1.13,0.983    c-0.463-0.056-1.142-0.601-1.233-1.039c-0.326-1.56-0.515-3.159-0.624-4.751c-0.24-3.52-0.4-7.045-0.608-10.866    c-0.668,0.537-1.191,0.962-1.72,1.381c-2.509,1.988-4.99,4.011-7.545,5.938c-0.823,0.621-2.008,1.579-2.867,0.538    c-0.87-1.055,0.489-1.85,1.164-2.498c3.225-3.097,6.523-6.117,9.921-9.281c-0.394-0.37-0.777-0.752-1.183-1.107    c-2.872-2.512-5.751-5.015-8.62-7.529c-0.495-0.434-0.984-0.882-1.427-1.367c-0.6-0.656-1.158-1.559-0.417-2.228    c0.478-0.431,1.708-0.615,2.239-0.3c2.905,1.726,5.706,3.629,8.523,5.498c0.659,0.438,1.243,0.989,1.864,1.484    c0.168-0.083,0.198-0.098,0.365-0.181c0-2.671,0-5.342,0.001-8.014c0-0.424,0.005-0.848,0.006-1.272    c0.001-0.912,0.17-1.783,1.264-1.876c1.062-0.09,1.502,0.68,1.607,1.599c0.213,1.87,0.387,3.744,0.534,5.621    c0.136,1.722,0.216,3.449,0.341,5.502c1.375-1.081,2.523-2.015,3.706-2.905c1.837-1.381,3.652-2.802,5.578-4.048    c0.312-0.202,0.744-0.216,1.195-0.202c0.508,0.016,0.9,0.462,0.835,0.967c-0.057,0.445-0.139,0.867-0.384,1.146    c-1.203,1.368-2.569,2.601-3.933,3.817C482.928,216.317,481.12,217.804,479.194,219.443z"/>
		<path d="M460.376,100.743c2.571-1.394,4.68-2.524,6.774-3.681c0.726-0.401,1.491-0.9,2.111-0.002    c0.57,0.825,0.066,1.554-0.608,2.069c-2.504,1.914-5.035,3.794-7.693,5.79c0.356,0.329,0.707,0.666,1.069,0.989    c2.356,2.099,4.718,4.19,7.068,6.295c0.744,0.666,1.372,1.483,0.672,2.447c-0.743,1.022-1.792,0.704-2.647,0.115    c-2.126-1.464-4.201-3.001-6.489-4.648c-0.051,0.606-0.084,1.087-0.133,1.567c-0.309,2.993-0.563,5.993-0.964,8.974    c-0.136,1.016-0.353,2.482-1.748,2.312c-1.3-0.159-1.065-1.6-1.11-2.58c-0.171-3.716-0.273-7.435-0.402-11.153    c-0.016-0.455-0.041-0.91-0.074-1.615c-1.749,1.009-3.277,1.913-4.827,2.778c-0.902,0.504-1.816,0.999-2.764,1.404    c-0.893,0.382-1.935,0.633-2.514-0.411c-0.578-1.042,0.161-1.788,0.977-2.348c1.747-1.199,3.52-2.359,5.279-3.541    c0.383-0.257,0.749-0.538,1.224-0.88c-1.593-1.29-3.131-2.445-4.562-3.72c-1.509-1.344-2.958-2.763-4.351-4.227    c-0.662-0.696-1.141-1.647-0.371-2.541c0.794-0.922,1.751-0.479,2.542,0.08c2.768,1.956,5.503,3.958,8.253,5.94    c0.376,0.271,0.764,0.527,1.363,0.939c0.266-2.361,0.523-4.532,0.75-6.706c0.132-1.263,0.129-2.547,0.363-3.789    c0.037-0.194,0.134-0.376,0.26-0.553c0.384-0.541,1.154-0.614,1.679-0.21c0.268,0.207,0.483,0.423,0.527,0.669    c0.278,1.565,0.291,3.183,0.336,4.781C460.412,96.964,460.376,98.642,460.376,100.743z"/>
		<path d="M406.281,55.387c3.955,0.047,7.399,2.661,8.372,6.355c1.391,5.282-2.956,10.25-8.57,9.755    c-0.976-0.086-1.952-0.31-2.899-0.574c-3.128-0.872-5.223-2.811-5.713-6.1c-0.492-3.296,0.872-5.877,3.51-7.801    C402.546,55.88,404.337,55.358,406.281,55.387z"/>
		<path d="M39.03,207.287c0.016,4.402-3.436,7.892-7.857,7.942c-4.871,0.056-8.926-3.605-8.976-8.105    c-0.05-4.468,3.612-8.082,8.218-8.109C35.149,198.988,39.013,202.698,39.03,207.287z"/>
		<path d="M487.035,150.891c-4.596,0.003-8.233-3.625-8.26-8.24c-0.026-4.406,3.5-7.822,8.084-7.833    c4.67-0.011,8.458,3.59,8.465,8.049C495.33,147.335,491.659,150.889,487.035,150.891z"/>
		<path d="M202.901,374.039c0.031,3.432-2.634,6.193-5.994,6.209c-3.24,0.016-5.866-2.543-5.925-5.774    c-0.064-3.506,2.737-6.567,6.023-6.581C200.253,367.879,202.87,370.607,202.901,374.039z"/>
		<path d="M40.663,245.863c0.022,2.777-1.845,4.939-4.305,4.983c-2.313,0.042-4.104-1.882-4.123-4.43    c-0.021-2.739,1.952-5.081,4.257-5.052C38.695,241.391,40.645,243.495,40.663,245.863z"/>
		<path d="M402.644,176.27c0.006,2.335-1.871,4.225-4.216,4.245c-2.423,0.021-4.403-1.963-4.397-4.407    c0.005-2.449,1.974-4.439,4.385-4.431C400.749,171.683,402.637,173.735,402.644,176.27z"/>
		<path d="M438.031,224.702c0.02-2.751,2.485-4.976,4.958-4.634c1.43,0.198,2.428,0.983,2.834,2.392    c0.4,1.389-0.139,2.468-1.226,3.335c-0.364,0.291-0.741,0.582-1.044,0.932c-0.977,1.13-2.172,1.485-3.54,0.923    C438.65,227.09,438.099,225.931,438.031,224.702z"/>
	</g>
	<g>
		<path d="M356.978,195.757c11.28,0.923,22.556,1.555,33.883,0.705c11.734-0.88,22.617-4.279,32.661-10.396    c0.764-0.466,1.523-0.949,2.324-1.342c1.844-0.902,3.384-0.021,3.409,2.024c0.015,1.213-0.084,2.469-0.395,3.636    c-1.371,5.134-2.688,10.29-4.304,15.348c-2.343,7.331-7.061,13.248-11.911,19.046c-1.451,1.734-2.998,3.39-4.423,5.144    c-1.628,2.004-1.54,2.779,0.57,4.23c4.418,3.037,9.422,4.497,14.692,4.983c3.702,0.341,7.431,0.383,11.149,0.55    c1.492,0.067,3.069,0.109,3.615,1.836c0.55,1.74-0.54,3.017-1.858,3.763c-3.27,1.85-6.567,3.705-10.019,5.169    c-13.564,5.754-27.761,9.195-42.31,11.337c-16.539,2.435-33.217,3.001-49.873,3.842c-12.714,0.642-25.407,1.364-37.946,3.756    c-6.279,1.197-12.208,3.494-18.201,5.603c-0.84,0.295-1.701,0.589-2.576,0.714c-1.107,0.159-1.691-0.291-1.79-1.565    c-0.129-1.663-0.73-3.295-0.812-4.957c-0.238-4.798-0.428-9.604-0.439-14.408c-0.026-11.309,0.064-22.618,0.104-33.927    c0.004-1.131,0.112-2.279-0.045-3.389c-0.422-2.986,0.836-5.161,3.203-6.734c2.23-1.483,4.48-2.989,6.881-4.153    c13.513-6.548,27.779-10.196,42.778-11.209C335.913,194.65,346.441,195.034,356.978,195.757z M425.435,188.966    c-0.591,0.364-1.027,0.629-1.46,0.9c-6.437,4.026-13.326,7.03-20.69,8.859c-10.236,2.543-20.68,3.068-31.165,2.721    c-9.23-0.306-18.448-0.939-27.677-1.303c-11.329-0.448-22.611,0.096-33.813,1.965c-9.753,1.626-18.864,5.179-27.771,9.306    c-1.737,0.805-3.293,2.006-4.916,3.048c-1.158,0.743-1.721,1.792-1.687,3.206c0.046,1.884,0.002,3.77-0.008,5.654    c-0.082,15.266-0.163,30.532-0.254,45.799c-0.005,0.91-0.1,1.819-0.161,2.884c0.393-0.178,0.61-0.254,0.805-0.367    c6.583-3.816,13.825-5.686,21.209-7.053c11.99-2.22,24.149-2.651,36.29-3.325c18.202-1.01,36.438-1.61,54.486-4.556    c12.875-2.101,25.425-5.324,37.516-10.25c1.839-0.749,3.607-1.673,5.408-2.516c-0.032-0.2-0.063-0.401-0.095-0.601    c-2.668,0-5.345,0.139-8.002-0.029c-5.576-0.353-10.881-1.76-15.641-4.786c-1.254-0.797-2.427-1.803-3.424-2.905    c-1.424-1.574-1.65-3.483-0.672-5.39c0.532-1.037,1.217-2.015,1.953-2.922c1.336-1.646,2.721-3.255,4.156-4.815    C418.521,213.025,423.016,201.599,425.435,188.966z"/>
		<g>
			<path d="M366.193,211.666c3.745,0.081,7.295,0.884,10.622,2.607c6.849,3.548,9.677,10.619,7.082,17.94     c-2.17,6.125-6.015,10.737-12.334,12.9c-2.398,0.821-4.828,1.6-7.299,2.141c-3.966,0.868-4.619,0.371-5.416-3.652     c-0.228-1.15-0.356-2.335-0.379-3.506c-0.149-7.629-0.287-15.258-0.363-22.888c-0.031-3.171,1.269-4.629,4.439-5.163     C363.748,211.843,364.976,211.788,366.193,211.666z M363.056,243.18c2.718-1.132,5.277-2.19,7.829-3.262     c4.459-1.873,7.049-5.389,8.453-9.853c1.432-4.552-0.265-8.588-4.466-10.884c-3.006-1.643-6.242-2.35-9.657-2.24     c-2.15,0.07-2.163,0.082-2.14,2.241c0.072,6.69,0.169,13.379,0.22,20.069C363.304,240.502,363.147,241.755,363.056,243.18z"/>
			<path d="M342.657,239.412c0.108-1.753,0.221-3.093,0.269-4.436c0.245-6.875,0.461-13.75,0.721-20.624     c0.039-1.029,0.092-2.118,0.462-3.051c0.239-0.602,1.074-1.348,1.631-1.339c0.566,0.009,1.302,0.767,1.627,1.377     c0.332,0.623,0.346,1.464,0.344,2.21c-0.034,8.901-0.075,17.802-0.178,26.702c-0.015,1.257-0.29,2.53-0.591,3.759     c-0.35,1.43-1.077,2.645-2.68,2.969c-1.597,0.323-2.755-0.46-3.626-1.677c-1.918-2.683-3.814-5.382-5.663-8.112     c-2.272-3.355-4.485-6.749-6.727-10.124c-0.148-0.223-0.323-0.428-0.677-0.896c0,0.83,0.009,1.365-0.002,1.899     c-0.115,5.79-0.219,11.58-0.369,17.369c-0.021,0.789-0.149,1.63-0.469,2.338c-0.06,0.133-0.141,0.257-0.234,0.375     c-0.536,0.675-1.588,0.683-2.118,0.003c-0.102-0.13-0.191-0.267-0.261-0.413c-0.273-0.571-0.328-1.279-0.352-1.932     c-0.314-8.617-0.609-17.233-0.897-25.851c-0.041-1.218,0.369-2.245,1.552-2.778c1.194-0.537,2.294-0.145,3.098,0.721     c1.276,1.375,2.523,2.806,3.577,4.353c3.554,5.218,7.015,10.498,10.517,15.751C341.854,238.375,342.138,238.718,342.657,239.412z     "/>
			<path d="M310.279,243.495c-3.446,1.248-6.8,0.785-10.123,0.713c-0.948-0.021-1.303,0.301-1.516,1.184     c-0.462,1.918-1.021,3.814-1.582,5.707c-0.172,0.581-0.353,1.253-0.759,1.646c-0.485,0.468-1.285,1.017-1.822,0.909     c-0.52-0.105-1.224-0.988-1.246-1.552c-0.063-1.63-0.035-3.321,0.335-4.899c1.982-8.471,4.055-16.921,6.161-25.362     c0.315-1.262,0.845-2.512,1.498-3.639c1.308-2.255,3.911-2.459,5.491-0.388c0.87,1.141,1.543,2.487,2.055,3.836     c3.28,8.632,6.229,17.365,7.528,26.558c0.131,0.925,0.199,1.88,0.129,2.808c-0.077,1.016-0.609,1.815-1.744,1.884     c-1.105,0.068-1.474-0.663-1.773-1.624C312.116,248.722,311.204,246.203,310.279,243.495z M304.252,224.732     c-0.154,0.003-0.307,0.007-0.461,0.01c-1.226,4.903-2.453,9.806-3.682,14.72c2.968,0,5.813,0,8.944,0     C307.421,234.453,305.837,229.593,304.252,224.732z"/>
		</g>
	</g>
</g>















</svg>
