<?xml version="1.0" encoding="UTF-8" standalone="no"?>
<!-- Created with Inkscape (http://www.inkscape.org/) -->

<svg
   xmlns:dc="http://purl.org/dc/elements/1.1/"
   xmlns:cc="http://creativecommons.org/ns#"
   xmlns:rdf="http://www.w3.org/1999/02/22-rdf-syntax-ns#"
   xmlns:svg="http://www.w3.org/2000/svg"
   xmlns="http://www.w3.org/2000/svg"
   xmlns:sodipodi="http://sodipodi.sourceforge.net/DTD/sodipodi-0.dtd"
   xmlns:inkscape="http://www.inkscape.org/namespaces/inkscape"
   width="34px"
   height="34px"
   viewBox="0 0 34 34"
   version="1.1"
   id="SVGRoot"
   inkscape:version="0.92.4 (5da689c313, 2019-01-14)"
   sodipodi:docname="facebook.svg">
  <defs
     id="defs4532" />
  <sodipodi:namedview
     id="base"
     pagecolor="#ffffff"
     bordercolor="#666666"
     borderopacity="1.0"
     inkscape:pageopacity="0.0"
     inkscape:pageshadow="2"
     inkscape:zoom="7.5294118"
     inkscape:cx="17"
     inkscape:cy="17"
     inkscape:document-units="px"
     inkscape:current-layer="layer1"
     showgrid="false"
     inkscape:window-width="1920"
     inkscape:window-height="1001"
     inkscape:window-x="-9"
     inkscape:window-y="-9"
     inkscape:window-maximized="1"
     inkscape:grid-bbox="true" />
  <metadata
     id="metadata4535">
    <rdf:RDF>
      <cc:Work
         rdf:about="">
        <dc:format>image/svg+xml</dc:format>
        <dc:type
           rdf:resource="http://purl.org/dc/dcmitype/StillImage" />
        <dc:title></dc:title>
      </cc:Work>
    </rdf:RDF>
  </metadata>
  <g
     inkscape:label="Layer 1"
     inkscape:groupmode="layer"
     id="layer1">
    <g
       id="g1877"
       transform="translate(-17.786125,-5.3643114)">
      <ellipse
         style="fill:#f53838"
         ry="13.189731"
         rx="10.406891"
         id="circle1693"
         cy="22.380501"
         cx="34.800098" />
      <path
         id="path1697"
         d="m 34.786126,5.5642967 c -9.2785,0 -16.800001,7.5215293 -16.800001,16.8000293 0,9.2785 7.521501,16.8 16.800001,16.8 9.2785,0 16.799999,-7.5215 16.799999,-16.8 0,-9.2785 -7.521499,-16.8000293 -16.799999,-16.8000293 z m 3.9795,11.6095293 h -2.5252 c -0.2993,0 -0.6318,0.3937 -0.6318,0.917 v 1.8235 h 3.1588 l -0.4778,2.6005 h -2.681 v 7.8067 h -2.9802 v -7.8067 h -2.7038 v -2.6005 h 2.7038 v -1.5295 c 0,-2.1945 1.5225,-3.9778 3.612,-3.9778 h 2.5252 z"
         style="fill:#ffffff"
         inkscape:connector-curvature="0" />
    </g>
  </g>
</svg>
