<?xml version="1.0" encoding="UTF-8" standalone="no"?>
<!-- Created with Inkscape (http://www.inkscape.org/) -->

<svg
   xmlns:dc="http://purl.org/dc/elements/1.1/"
   xmlns:cc="http://creativecommons.org/ns#"
   xmlns:rdf="http://www.w3.org/1999/02/22-rdf-syntax-ns#"
   xmlns:svg="http://www.w3.org/2000/svg"
   xmlns="http://www.w3.org/2000/svg"
   xmlns:sodipodi="http://sodipodi.sourceforge.net/DTD/sodipodi-0.dtd"
   xmlns:inkscape="http://www.inkscape.org/namespaces/inkscape"
   width="34px"
   height="34px"
   viewBox="0 0 34 34"
   version="1.1"
   id="SVGRoot"
   inkscape:version="0.92.4 (5da689c313, 2019-01-14)"
   sodipodi:docname="twitter.svg">
  <defs
     id="defs4161" />
  <sodipodi:namedview
     id="base"
     pagecolor="#ffffff"
     bordercolor="#666666"
     borderopacity="1.0"
     inkscape:pageopacity="0.0"
     inkscape:pageshadow="2"
     inkscape:zoom="7.5294118"
     inkscape:cx="17"
     inkscape:cy="17"
     inkscape:document-units="px"
     inkscape:current-layer="layer1"
     showgrid="false"
     inkscape:window-width="1920"
     inkscape:window-height="1001"
     inkscape:window-x="-9"
     inkscape:window-y="-9"
     inkscape:window-maximized="1"
     inkscape:grid-bbox="true" />
  <metadata
     id="metadata4164">
    <rdf:RDF>
      <cc:Work
         rdf:about="">
        <dc:format>image/svg+xml</dc:format>
        <dc:type
           rdf:resource="http://purl.org/dc/dcmitype/StillImage" />
        <dc:title></dc:title>
      </cc:Work>
    </rdf:RDF>
  </metadata>
  <g
     inkscape:label="Layer 1"
     inkscape:groupmode="layer"
     id="layer1">
    <g
       id="g81"
       transform="translate(-17.761807,-5.4869504)">
      <rect
         y="12.764813"
         x="25.793667"
         height="19.145815"
         width="18.773535"
         id="rect31"
         style="fill:#f53838;fill-opacity:1;stroke-width:1.33522594" />
      <path
         style="fill:#ffffff"
         inkscape:connector-curvature="0"
         id="path6"
         d="m 34.761807,5.6869357 c -9.2785,0 -16.8,7.5215293 -16.8,16.8000293 0,9.2785 7.5215,16.8 16.8,16.8 9.2785,0 16.8,-7.5215 16.8,-16.8 0,-9.2785 -7.5215,-16.8000293 -16.8,-16.8000293 z m 6.8337,13.7620293 c 0.007,0.1435 0.0088,0.287 0.0088,0.427 0,4.375 -3.3268,9.4167 -9.4133,9.4167 -1.7985,0.003 -3.5595,-0.5135 -5.0715,-1.4875 0.2573,0.0315 0.5215,0.0438 0.7893,0.0438 1.5505,0 2.9767,-0.5268 4.109,-1.4158 -0.69,-0.0135 -1.3586,-0.242 -1.9126,-0.6536 -0.554,-0.4115 -0.9657,-0.9857 -1.1779,-1.6424 0.4955,0.0942 1.006,0.0745 1.4927,-0.0577 -0.7489,-0.1515 -1.4224,-0.5573 -1.9062,-1.1486 -0.4839,-0.5914 -0.7483,-1.3319 -0.7485,-2.0959 v -0.0403 c 0.4462,0.2468 0.9572,0.3973 1.4997,0.4148 -0.7021,-0.4674 -1.1991,-1.1854 -1.3894,-2.007 -0.1903,-0.8217 -0.0595,-1.6851 0.3657,-2.4135 0.8311,1.022 1.8677,1.858 3.0425,2.454 1.1748,0.596 2.4616,0.9386 3.7772,1.0057 -0.1672,-0.7099 -0.0952,-1.4553 0.2048,-2.1201 0.3,-0.6648 0.8113,-1.2119 1.4544,-1.5562 0.643,-0.3442 1.3818,-0.4664 2.1014,-0.3475 0.7196,0.1189 1.3798,0.4722 1.8779,1.0051 0.7406,-0.1465 1.4507,-0.4182 2.1,-0.8033 -0.2468,0.7668 -0.7635,1.4178 -1.4542,1.8323 0.656,-0.079 1.2965,-0.2554 1.9005,-0.5233 -0.4437,0.6648 -1.0025,1.245 -1.6503,1.7133 z" />
    </g>
  </g>
</svg>
