<svg width="40" height="40" viewBox="0 0 40 40" fill="none" xmlns="http://www.w3.org/2000/svg">
<ellipse cx="20" cy="20.0073" rx="20" ry="19.187" fill="#EDFFFC"/>
<path d="M25 10.4138H15C12.2386 10.4138 10 12.5614 10 15.2106V24.8041C10 27.4532 12.2386 29.6008 15 29.6008H25C27.7614 29.6008 30 27.4532 30 24.8041V15.2106C30 12.5614 27.7614 10.4138 25 10.4138Z" stroke="#02897A" stroke-width="2" stroke-linecap="round" stroke-linejoin="round"/>
<path d="M23.9997 19.4029C24.1231 20.2014 23.981 21.0168 23.5935 21.7332C23.206 22.4497 22.5929 23.0306 21.8413 23.3935C21.0898 23.7564 20.2382 23.8827 19.4075 23.7545C18.5768 23.6263 17.8095 23.25 17.2145 22.6793C16.6196 22.1085 16.2274 21.3724 16.0938 20.5755C15.9601 19.7786 16.0918 18.9615 16.47 18.2406C16.8483 17.5196 17.4539 16.9314 18.2007 16.5597C18.9475 16.1879 19.7975 16.0515 20.6297 16.1699C21.4786 16.2907 22.2646 16.6702 22.8714 17.2524C23.4782 17.8345 23.8738 18.5885 23.9997 19.4029Z" stroke="#02897A" stroke-width="2" stroke-linecap="round" stroke-linejoin="round"/>
<path d="M25.5 14.731H25.51" stroke="#02897A" stroke-width="2" stroke-linecap="round" stroke-linejoin="round"/>
</svg>
