<svg width="40" height="40" viewBox="0 0 40 40" fill="none" xmlns="http://www.w3.org/2000/svg">
<ellipse cx="20" cy="19.9919" rx="20" ry="19.187" fill="#EDFFFC"/>
<path d="M31 11.3676C30.0424 12.0156 28.9821 12.5112 27.86 12.8354C27.2577 12.171 26.4573 11.7002 25.567 11.4864C24.6767 11.2727 23.7395 11.3265 22.8821 11.6404C22.0247 11.9544 21.2884 12.5134 20.773 13.2419C20.2575 13.9703 19.9877 14.8331 20 15.7134V16.6728C18.2426 16.7165 16.5013 16.3426 14.931 15.5843C13.3607 14.8261 12.0103 13.7071 11 12.3269C11 12.3269 7 20.9611 16 24.7985C13.9405 26.1396 11.4872 26.8121 9 26.7172C18 31.5139 29 26.7172 29 15.6846C28.9991 15.4174 28.9723 15.1508 28.92 14.8884C29.9406 13.9228 30.6608 12.7037 31 11.3676V11.3676Z" stroke="#02897A" stroke-width="2" stroke-linecap="round" stroke-linejoin="round"/>
</svg>
