<svg width="149" height="41" viewBox="0 0 149 41" fill="none" xmlns="http://www.w3.org/2000/svg">
<path d="M47.04 25.7915C46.9067 25.7915 46.7933 25.7448 46.7 25.6515C46.6067 25.5582 46.56 25.4448 46.56 25.3115V12.2715C46.56 12.1248 46.6067 12.0115 46.7 11.9315C46.7933 11.8382 46.9067 11.7915 47.04 11.7915H48.9C49.0467 11.7915 49.16 11.8382 49.24 11.9315C49.3333 12.0115 49.38 12.1248 49.38 12.2715V23.4115H55.72C55.8667 23.4115 55.9867 23.4582 56.08 23.5515C56.1733 23.6448 56.22 23.7648 56.22 23.9115V25.3115C56.22 25.4582 56.1733 25.5782 56.08 25.6715C55.9867 25.7515 55.8667 25.7915 55.72 25.7915H47.04ZM60.9416 25.9915C60.2616 25.9915 59.6349 25.8582 59.0616 25.5915C58.5016 25.3115 58.0549 24.9382 57.7216 24.4715C57.4016 24.0048 57.2416 23.4915 57.2416 22.9315C57.2416 22.0248 57.6082 21.2915 58.3416 20.7315C59.0749 20.1715 60.0816 19.7915 61.3616 19.5915L64.1016 19.1915V18.7715C64.1016 18.1848 63.9549 17.7448 63.6616 17.4515C63.3682 17.1582 62.8949 17.0115 62.2416 17.0115C61.8016 17.0115 61.4416 17.0982 61.1616 17.2715C60.8949 17.4315 60.6816 17.5915 60.5216 17.7515C60.3616 17.9248 60.2549 18.0382 60.2016 18.0915C60.1482 18.2515 60.0482 18.3315 59.9016 18.3315H58.3616C58.2416 18.3315 58.1349 18.2915 58.0416 18.2115C57.9616 18.1315 57.9216 18.0248 57.9216 17.8915C57.9349 17.5582 58.0949 17.1782 58.4016 16.7515C58.7216 16.3248 59.2082 15.9582 59.8616 15.6515C60.5149 15.3448 61.3149 15.1915 62.2616 15.1915C63.8349 15.1915 64.9816 15.5448 65.7016 16.2515C66.4216 16.9582 66.7816 17.8848 66.7816 19.0315V25.3115C66.7816 25.4448 66.7349 25.5582 66.6416 25.6515C66.5616 25.7448 66.4482 25.7915 66.3016 25.7915H64.6816C64.5482 25.7915 64.4349 25.7448 64.3416 25.6515C64.2482 25.5582 64.2016 25.4448 64.2016 25.3115V24.5315C63.9082 24.9582 63.4882 25.3115 62.9416 25.5915C62.4082 25.8582 61.7416 25.9915 60.9416 25.9915ZM61.6216 24.0915C62.3549 24.0915 62.9549 23.8515 63.4216 23.3715C63.8882 22.8915 64.1216 22.1915 64.1216 21.2715V20.8515L62.1216 21.1715C61.3482 21.2915 60.7616 21.4848 60.3616 21.7515C59.9749 22.0182 59.7816 22.3448 59.7816 22.7315C59.7816 23.1582 59.9616 23.4915 60.3216 23.7315C60.6816 23.9715 61.1149 24.0915 61.6216 24.0915ZM73.2873 25.9915C72.2873 25.9915 71.4473 25.8448 70.7673 25.5515C70.0873 25.2448 69.5807 24.8915 69.2473 24.4915C68.9273 24.0782 68.7673 23.7248 68.7673 23.4315C68.7673 23.2982 68.814 23.1915 68.9073 23.1115C69.0007 23.0315 69.1073 22.9915 69.2273 22.9915H70.8073C70.9273 22.9915 71.0273 23.0382 71.1073 23.1315C71.1607 23.1715 71.3007 23.2915 71.5273 23.4915C71.754 23.7048 72.0207 23.8715 72.3273 23.9915C72.634 24.1115 72.974 24.1715 73.3473 24.1715C73.8807 24.1715 74.3207 24.0648 74.6673 23.8515C75.014 23.6382 75.1873 23.3448 75.1873 22.9715C75.1873 22.6915 75.1073 22.4648 74.9473 22.2915C74.8007 22.1182 74.5273 21.9648 74.1273 21.8315C73.7273 21.6848 73.134 21.5315 72.3473 21.3715C71.214 21.1315 70.374 20.7648 69.8273 20.2715C69.294 19.7782 69.0273 19.1248 69.0273 18.3115C69.0273 17.7782 69.1873 17.2782 69.5073 16.8115C69.8273 16.3315 70.3007 15.9448 70.9273 15.6515C71.5673 15.3448 72.3273 15.1915 73.2073 15.1915C74.1007 15.1915 74.874 15.3382 75.5273 15.6315C76.1807 15.9115 76.674 16.2515 77.0073 16.6515C77.354 17.0382 77.5273 17.3848 77.5273 17.6915C77.5273 17.8115 77.4807 17.9182 77.3873 18.0115C77.3073 18.0915 77.2073 18.1315 77.0873 18.1315H75.6073C75.5007 18.1315 75.3873 18.0848 75.2673 17.9915C75.174 17.9248 75.0273 17.7982 74.8273 17.6115C74.6273 17.4248 74.394 17.2782 74.1273 17.1715C73.8607 17.0648 73.5473 17.0115 73.1873 17.0115C72.694 17.0115 72.3073 17.1182 72.0273 17.3315C71.7607 17.5448 71.6273 17.8248 71.6273 18.1715C71.6273 18.4248 71.694 18.6315 71.8273 18.7915C71.9607 18.9515 72.2207 19.1048 72.6073 19.2515C72.994 19.3982 73.574 19.5448 74.3473 19.6915C75.6273 19.9448 76.5407 20.3382 77.0873 20.8715C77.6473 21.4048 77.9273 22.0582 77.9273 22.8315C77.9273 23.7648 77.5207 24.5248 76.7073 25.1115C75.894 25.6982 74.754 25.9915 73.2873 25.9915ZM80.4919 25.7915C80.3585 25.7915 80.2452 25.7448 80.1519 25.6515C80.0585 25.5582 80.0119 25.4448 80.0119 25.3115V12.0715C80.0119 11.9248 80.0585 11.8115 80.1519 11.7315C80.2452 11.6382 80.3585 11.5915 80.4919 11.5915H82.1519C82.2985 11.5915 82.4119 11.6382 82.4919 11.7315C82.5852 11.8115 82.6319 11.9248 82.6319 12.0715V25.3115C82.6319 25.4448 82.5852 25.5582 82.4919 25.6515C82.4119 25.7448 82.2985 25.7915 82.1519 25.7915H80.4919ZM89.7648 25.9915C88.2848 25.9915 87.1048 25.5648 86.2248 24.7115C85.3582 23.8448 84.8982 22.6315 84.8448 21.0715L84.8248 20.5715L84.8448 20.0715C84.9115 18.5515 85.3782 17.3582 86.2448 16.4915C87.1248 15.6248 88.2982 15.1915 89.7648 15.1915C91.3382 15.1915 92.5515 15.6715 93.4048 16.6315C94.2715 17.5915 94.7048 18.8715 94.7048 20.4715V20.8915C94.7048 21.0248 94.6582 21.1382 94.5648 21.2315C94.4715 21.3248 94.3515 21.3715 94.2048 21.3715H87.5648V21.5315C87.5915 22.2648 87.7915 22.8848 88.1648 23.3915C88.5515 23.8848 89.0782 24.1315 89.7448 24.1315C90.5315 24.1315 91.1648 23.8248 91.6448 23.2115C91.7648 23.0648 91.8582 22.9715 91.9248 22.9315C92.0048 22.8915 92.1182 22.8715 92.2648 22.8715H93.9848C94.1048 22.8715 94.2048 22.9115 94.2848 22.9915C94.3782 23.0582 94.4248 23.1448 94.4248 23.2515C94.4248 23.5715 94.2315 23.9515 93.8448 24.3915C93.4715 24.8182 92.9315 25.1915 92.2248 25.5115C91.5182 25.8315 90.6982 25.9915 89.7648 25.9915ZM91.9848 19.6915V19.6315C91.9848 18.8448 91.7848 18.2115 91.3848 17.7315C90.9982 17.2515 90.4582 17.0115 89.7648 17.0115C89.0715 17.0115 88.5315 17.2515 88.1448 17.7315C87.7582 18.2115 87.5648 18.8448 87.5648 19.6315V19.6915H91.9848ZM100.768 25.9915C99.7678 25.9915 98.9278 25.8448 98.2478 25.5515C97.5678 25.2448 97.0611 24.8915 96.7278 24.4915C96.4078 24.0782 96.2478 23.7248 96.2478 23.4315C96.2478 23.2982 96.2945 23.1915 96.3878 23.1115C96.4811 23.0315 96.5878 22.9915 96.7078 22.9915H98.2878C98.4078 22.9915 98.5078 23.0382 98.5878 23.1315C98.6411 23.1715 98.7811 23.2915 99.0078 23.4915C99.2345 23.7048 99.5011 23.8715 99.8078 23.9915C100.114 24.1115 100.454 24.1715 100.828 24.1715C101.361 24.1715 101.801 24.0648 102.148 23.8515C102.494 23.6382 102.668 23.3448 102.668 22.9715C102.668 22.6915 102.588 22.4648 102.428 22.2915C102.281 22.1182 102.008 21.9648 101.608 21.8315C101.208 21.6848 100.614 21.5315 99.8278 21.3715C98.6945 21.1315 97.8545 20.7648 97.3078 20.2715C96.7745 19.7782 96.5078 19.1248 96.5078 18.3115C96.5078 17.7782 96.6678 17.2782 96.9878 16.8115C97.3078 16.3315 97.7811 15.9448 98.4078 15.6515C99.0478 15.3448 99.8078 15.1915 100.688 15.1915C101.581 15.1915 102.354 15.3382 103.008 15.6315C103.661 15.9115 104.154 16.2515 104.488 16.6515C104.834 17.0382 105.008 17.3848 105.008 17.6915C105.008 17.8115 104.961 17.9182 104.868 18.0115C104.788 18.0915 104.688 18.1315 104.568 18.1315H103.088C102.981 18.1315 102.868 18.0848 102.748 17.9915C102.654 17.9248 102.508 17.7982 102.308 17.6115C102.108 17.4248 101.874 17.2782 101.608 17.1715C101.341 17.0648 101.028 17.0115 100.668 17.0115C100.174 17.0115 99.7878 17.1182 99.5078 17.3315C99.2411 17.5448 99.1078 17.8248 99.1078 18.1715C99.1078 18.4248 99.1745 18.6315 99.3078 18.7915C99.4411 18.9515 99.7011 19.1048 100.088 19.2515C100.474 19.3982 101.054 19.5448 101.828 19.6915C103.108 19.9448 104.021 20.3382 104.568 20.8715C105.128 21.4048 105.408 22.0582 105.408 22.8315C105.408 23.7648 105.001 24.5248 104.188 25.1115C103.374 25.6982 102.234 25.9915 100.768 25.9915ZM111.552 25.7915C111.126 25.7915 110.852 25.5915 110.732 25.1915L106.652 12.3915L106.612 12.2115C106.612 12.1048 106.652 12.0115 106.732 11.9315C106.826 11.8382 106.932 11.7915 107.052 11.7915H109.532C109.719 11.7915 109.872 11.8448 109.992 11.9515C110.126 12.0582 110.212 12.1782 110.252 12.3115L113.092 21.5515L115.912 12.3115C115.952 12.1782 116.032 12.0582 116.152 11.9515C116.286 11.8448 116.446 11.7915 116.632 11.7915H119.132C119.239 11.7915 119.332 11.8382 119.412 11.9315C119.506 12.0115 119.552 12.1048 119.552 12.2115L119.512 12.3915L115.432 25.1915C115.312 25.5915 115.039 25.7915 114.612 25.7915H111.552ZM121.92 25.7915C121.786 25.7915 121.666 25.7448 121.56 25.6515C121.466 25.5448 121.42 25.4248 121.42 25.2915V12.2915C121.42 12.1448 121.466 12.0248 121.56 11.9315C121.666 11.8382 121.786 11.7915 121.92 11.7915H127.52C129.226 11.7915 130.566 12.1848 131.54 12.9715C132.526 13.7582 133.02 14.9048 133.02 16.4115C133.02 17.9048 132.533 19.0315 131.56 19.7915C130.586 20.5382 129.24 20.9115 127.52 20.9115H125.14V25.2915C125.14 25.4382 125.086 25.5582 124.98 25.6515C124.886 25.7448 124.766 25.7915 124.62 25.7915H121.92ZM127.42 18.1515C128.006 18.1515 128.466 18.0048 128.8 17.7115C129.133 17.4048 129.3 16.9582 129.3 16.3715C129.3 15.8248 129.14 15.3915 128.82 15.0715C128.513 14.7382 128.046 14.5715 127.42 14.5715H125.08V18.1515H127.42ZM135.435 25.7915C135.302 25.7915 135.182 25.7448 135.075 25.6515C134.982 25.5448 134.935 25.4248 134.935 25.2915V12.2915C134.935 12.1448 134.982 12.0248 135.075 11.9315C135.182 11.8382 135.302 11.7915 135.435 11.7915H137.555C137.888 11.7915 138.115 11.9182 138.235 12.1715L143.115 19.8515V12.2915C143.115 12.1448 143.162 12.0248 143.255 11.9315C143.362 11.8382 143.482 11.7915 143.615 11.7915H146.015C146.162 11.7915 146.282 11.8382 146.375 11.9315C146.468 12.0248 146.515 12.1448 146.515 12.2915V25.2715C146.515 25.4182 146.468 25.5448 146.375 25.6515C146.282 25.7448 146.162 25.7915 146.015 25.7915H143.875C143.582 25.7915 143.362 25.6648 143.215 25.4115L138.335 18.0115V25.2915C138.335 25.4248 138.288 25.5448 138.195 25.6515C138.102 25.7448 137.982 25.7915 137.835 25.7915H135.435Z" fill="#0B132A"/>
<path d="M31.1473 15.1544L31.1255 15.1302C31.1238 15.1289 31.1224 15.1271 31.1215 15.125L17.5006 0L3.87983 15.1246C3.87826 15.1264 3.8758 15.1299 3.8758 15.1299L3.85333 15.154C1.77053 17.4798 0.447586 20.5118 0.0948177 23.7683C-0.25795 27.0248 0.379698 30.3188 1.90639 33.1267C3.43309 35.9346 5.76122 38.0953 8.52069 39.2651C11.2802 40.4349 14.3126 40.547 17.136 39.5832C17.3735 39.5025 17.6275 39.5025 17.8651 39.5832C20.6882 40.5466 23.7205 40.4345 26.4798 39.2645C29.2391 38.0945 31.567 35.934 33.0936 33.1263C34.6202 30.3186 35.2579 27.0248 34.9053 23.7685C34.5526 20.5122 33.2299 17.4802 31.1473 15.1544ZM8.7232 25.1281C8.65689 25.2018 8.6043 25.2892 8.56844 25.3853C8.53256 25.4814 8.5141 25.5845 8.51412 25.6886C8.53835 28.358 9.21776 30.9695 10.4792 33.2421C10.5079 33.2936 10.5211 33.354 10.517 33.4143C10.513 33.4747 10.4918 33.5321 10.4566 33.5784C10.4213 33.6247 10.3738 33.6573 10.3209 33.6717C10.2679 33.6862 10.2122 33.6817 10.1616 33.6588C9.21332 33.2159 8.35182 32.572 7.62531 31.7633C6.13646 30.1098 5.29946 27.8677 5.2981 25.5294C5.29675 23.1912 6.13117 20.9479 7.61812 19.2924L17.5006 8.31992L27.3826 19.2924C28.8698 20.9477 29.7045 23.191 29.703 25.5294C29.7018 27.8677 28.8647 30.1098 27.3757 31.7633C26.6492 32.572 25.7877 33.2159 24.8396 33.6588C24.7889 33.6817 24.7332 33.6862 24.6802 33.6717C24.6273 33.6573 24.5798 33.6245 24.5445 33.5784C24.5093 33.5321 24.488 33.4747 24.484 33.4141C24.4799 33.3538 24.4931 33.2934 24.5218 33.2419C25.7835 30.9695 26.4633 28.358 26.4879 25.6886C26.4879 25.5845 26.4692 25.4814 26.4332 25.3851C26.3971 25.2889 26.3444 25.2016 26.2779 25.1279L21.6037 19.6227C21.557 19.5795 21.4985 19.5559 21.4378 19.5559C21.3773 19.5559 21.3186 19.5795 21.2721 19.6227C21.2255 19.6656 21.1942 19.7256 21.1833 19.7918C21.1724 19.858 21.1828 19.9262 21.2127 19.9847C23.0281 23.6326 21.467 28.8722 18.8637 31.7633L18.85 31.7786C18.4907 32.1733 18.0056 32.3945 17.5002 32.3943C16.9948 32.3941 16.5098 32.1725 16.1508 31.7776L16.1382 31.7633C13.5339 28.8722 11.9736 23.6332 13.7893 19.9855C13.8192 19.9269 13.8296 19.8588 13.8187 19.7926C13.8079 19.7264 13.7764 19.6664 13.7299 19.6235C13.6834 19.5803 13.6247 19.5567 13.5642 19.5567C13.5036 19.5567 13.4449 19.5803 13.3984 19.6235L8.7232 25.1281Z" fill="#F53838"/>
</svg>
