<svg width="320" height="169" viewBox="0 0 320 169" fill="none" xmlns="http://www.w3.org/2000/svg">
<g filter="url(#filter0_f)">
<rect x="54.0857" y="54.0664" width="211.829" height="60" rx="10" fill="#F53838" fill-opacity="0.35"/>
</g>
<rect x="35" y="28.7754" width="250" height="60" rx="10" fill="#F53838"/>
<path d="M105.296 64.4354C104.283 64.4354 103.413 64.2861 102.688 63.9874C101.963 63.6887 101.413 63.2994 101.04 62.8194C100.677 62.3287 100.485 61.7954 100.464 61.2194C100.464 61.1341 100.496 61.0594 100.56 60.9954C100.635 60.9207 100.72 60.8834 100.816 60.8834H102.832C102.96 60.8834 103.061 60.9101 103.136 60.9634C103.221 61.0061 103.307 61.0754 103.392 61.1714C103.531 61.4487 103.755 61.6781 104.064 61.8594C104.373 62.0407 104.784 62.1314 105.296 62.1314C105.904 62.1314 106.368 62.0354 106.688 61.8434C107.008 61.6514 107.168 61.3901 107.168 61.0594C107.168 60.8247 107.083 60.6327 106.912 60.4834C106.752 60.3341 106.496 60.2007 106.144 60.0834C105.792 59.9661 105.269 59.8327 104.576 59.6834C103.296 59.4167 102.336 59.0274 101.696 58.5154C101.067 57.9927 100.752 57.2514 100.752 56.2914C100.752 55.6407 100.933 55.0594 101.296 54.5474C101.659 54.0354 102.176 53.6354 102.848 53.3474C103.52 53.0594 104.304 52.9154 105.2 52.9154C106.128 52.9154 106.933 53.0754 107.616 53.3954C108.299 53.7154 108.816 54.1207 109.168 54.6114C109.531 55.0914 109.723 55.5661 109.744 56.0354C109.744 56.1314 109.712 56.2114 109.648 56.2754C109.584 56.3394 109.504 56.3714 109.408 56.3714H107.296C107.168 56.3714 107.061 56.3501 106.976 56.3074C106.901 56.2647 106.832 56.1954 106.768 56.0994C106.704 55.8541 106.528 55.6461 106.24 55.4754C105.963 55.3047 105.616 55.2194 105.2 55.2194C104.72 55.2194 104.352 55.3047 104.096 55.4754C103.84 55.6461 103.712 55.8967 103.712 56.2274C103.712 56.4514 103.781 56.6381 103.92 56.7874C104.069 56.9367 104.304 57.0754 104.624 57.2034C104.955 57.3207 105.424 57.4434 106.032 57.5714C107.024 57.7527 107.813 57.9821 108.4 58.2594C108.997 58.5261 109.435 58.8781 109.712 59.3154C109.989 59.7421 110.128 60.2807 110.128 60.9314C110.128 61.6461 109.92 62.2701 109.504 62.8034C109.099 63.3261 108.528 63.7314 107.792 64.0194C107.067 64.2967 106.235 64.4354 105.296 64.4354ZM114.609 64.4354C113.671 64.4354 112.913 64.1207 112.337 63.4914C111.761 62.8514 111.473 61.9607 111.473 60.8194V56.3554C111.473 56.2381 111.511 56.1421 111.585 56.0674C111.66 55.9927 111.756 55.9554 111.873 55.9554H113.873C113.991 55.9554 114.087 55.9927 114.161 56.0674C114.247 56.1421 114.289 56.2381 114.289 56.3554V60.7234C114.289 61.7687 114.753 62.2914 115.681 62.2914C116.129 62.2914 116.481 62.1527 116.737 61.8754C116.993 61.5981 117.121 61.2141 117.121 60.7234V56.3554C117.121 56.2381 117.159 56.1421 117.233 56.0674C117.319 55.9927 117.415 55.9554 117.521 55.9554H119.521C119.639 55.9554 119.735 55.9927 119.809 56.0674C119.884 56.1421 119.921 56.2381 119.921 56.3554V63.8754C119.921 63.9821 119.884 64.0781 119.809 64.1634C119.735 64.2381 119.639 64.2754 119.521 64.2754H117.665C117.559 64.2754 117.463 64.2381 117.377 64.1634C117.303 64.0781 117.265 63.9821 117.265 63.8754V63.2674C116.711 64.0461 115.825 64.4354 114.609 64.4354ZM126.891 64.4354C125.825 64.4354 124.998 64.0781 124.411 63.3634V63.8754C124.411 63.9821 124.374 64.0781 124.299 64.1634C124.225 64.2381 124.129 64.2754 124.011 64.2754H122.203C122.097 64.2754 122.001 64.2381 121.915 64.1634C121.841 64.0781 121.803 63.9821 121.803 63.8754V53.3154C121.803 53.1981 121.841 53.1021 121.915 53.0274C122.001 52.9527 122.097 52.9154 122.203 52.9154H124.155C124.273 52.9154 124.369 52.9527 124.443 53.0274C124.518 53.1021 124.555 53.1981 124.555 53.3154V56.7394C125.153 56.1101 125.931 55.7954 126.891 55.7954C127.926 55.7954 128.742 56.1314 129.339 56.8034C129.937 57.4754 130.257 58.3874 130.299 59.5394C130.31 59.6781 130.315 59.8701 130.315 60.1154C130.315 60.3501 130.31 60.5367 130.299 60.6754C130.246 61.8701 129.926 62.7981 129.339 63.4594C128.753 64.1101 127.937 64.4354 126.891 64.4354ZM126.027 62.2914C126.529 62.2914 126.886 62.1421 127.099 61.8434C127.323 61.5447 127.451 61.1341 127.483 60.6114C127.505 60.3981 127.515 60.2327 127.515 60.1154C127.515 59.9981 127.505 59.8327 127.483 59.6194C127.451 59.0967 127.323 58.6861 127.099 58.3874C126.886 58.0887 126.529 57.9394 126.027 57.9394C125.558 57.9394 125.201 58.0834 124.955 58.3714C124.71 58.6594 124.577 59.0221 124.555 59.4594L124.539 60.0514L124.555 60.6594C124.587 61.1394 124.715 61.5341 124.939 61.8434C125.174 62.1421 125.537 62.2914 126.027 62.2914ZM135.321 64.4354C134.457 64.4354 133.732 64.3127 133.145 64.0674C132.569 63.8221 132.142 63.5287 131.865 63.1874C131.588 62.8461 131.449 62.5421 131.449 62.2754C131.449 62.1687 131.486 62.0834 131.561 62.0194C131.646 61.9447 131.737 61.9074 131.833 61.9074H133.657C133.721 61.9074 133.78 61.9341 133.833 61.9874C133.961 62.0727 134.057 62.1421 134.121 62.1954C134.356 62.3661 134.558 62.4941 134.729 62.5794C134.91 62.6541 135.129 62.6914 135.385 62.6914C135.694 62.6914 135.945 62.6327 136.137 62.5154C136.34 62.3874 136.441 62.2114 136.441 61.9874C136.441 61.8061 136.388 61.6621 136.281 61.5554C136.185 61.4487 135.993 61.3474 135.705 61.2514C135.417 61.1447 134.98 61.0327 134.393 60.9154C133.508 60.7341 132.825 60.4407 132.345 60.0354C131.876 59.6194 131.641 59.0647 131.641 58.3714C131.641 57.9341 131.78 57.5181 132.057 57.1234C132.334 56.7287 132.745 56.4087 133.289 56.1634C133.844 55.9181 134.5 55.7954 135.257 55.7954C136.014 55.7954 136.676 55.9127 137.241 56.1474C137.806 56.3821 138.233 56.6701 138.521 57.0114C138.82 57.3421 138.969 57.6461 138.969 57.9234C138.969 58.0194 138.932 58.1047 138.857 58.1794C138.793 58.2541 138.713 58.2914 138.617 58.2914H136.953C136.868 58.2914 136.788 58.2647 136.713 58.2114C136.574 58.1367 136.452 58.0567 136.345 57.9714C136.164 57.8327 135.993 57.7261 135.833 57.6514C135.673 57.5767 135.476 57.5394 135.241 57.5394C134.964 57.5394 134.74 57.6034 134.569 57.7314C134.409 57.8594 134.329 58.0247 134.329 58.2274C134.329 58.3874 134.372 58.5207 134.457 58.6274C134.553 58.7341 134.745 58.8407 135.033 58.9474C135.332 59.0434 135.769 59.1447 136.345 59.2514C137.38 59.4327 138.132 59.7527 138.601 60.2114C139.081 60.6701 139.321 61.2087 139.321 61.8274C139.321 62.6167 138.969 63.2514 138.265 63.7314C137.561 64.2007 136.58 64.4354 135.321 64.4354ZM144.565 64.4354C143.36 64.4354 142.384 64.1154 141.637 63.4754C140.89 62.8247 140.49 61.9234 140.437 60.7714L140.421 60.1314L140.437 59.4754C140.48 58.3234 140.874 57.4221 141.621 56.7714C142.378 56.1207 143.36 55.7954 144.565 55.7954C145.472 55.7954 146.234 55.9607 146.853 56.2914C147.482 56.6114 147.946 57.0007 148.245 57.4594C148.554 57.9074 148.72 58.3181 148.741 58.6914C148.752 58.7981 148.714 58.8941 148.629 58.9794C148.554 59.0541 148.458 59.0914 148.341 59.0914H146.309C146.192 59.0914 146.101 59.0647 146.037 59.0114C145.973 58.9581 145.914 58.8781 145.861 58.7714C145.733 58.4407 145.568 58.2061 145.365 58.0674C145.173 57.9287 144.922 57.8594 144.613 57.8594C143.738 57.8594 143.285 58.4247 143.253 59.5554L143.237 60.1634L143.253 60.6914C143.274 61.2674 143.397 61.6941 143.621 61.9714C143.856 62.2381 144.186 62.3714 144.613 62.3714C144.944 62.3714 145.205 62.3021 145.397 62.1634C145.589 62.0247 145.744 61.7901 145.861 61.4594C145.914 61.3527 145.973 61.2727 146.037 61.2194C146.101 61.1661 146.192 61.1394 146.309 61.1394H148.341C148.448 61.1394 148.538 61.1767 148.613 61.2514C148.698 61.3154 148.741 61.4007 148.741 61.5074C148.741 61.8487 148.592 62.2487 148.293 62.7074C148.005 63.1661 147.546 63.5714 146.917 63.9234C146.288 64.2647 145.504 64.4354 144.565 64.4354ZM150.578 64.2754C150.461 64.2754 150.365 64.2381 150.29 64.1634C150.216 64.0887 150.178 63.9927 150.178 63.8754V56.3554C150.178 56.2381 150.216 56.1421 150.29 56.0674C150.365 55.9927 150.461 55.9554 150.578 55.9554H152.418C152.536 55.9554 152.632 55.9981 152.706 56.0834C152.792 56.1581 152.834 56.2487 152.834 56.3554V56.9954C153.421 56.3021 154.21 55.9554 155.202 55.9554H155.906C156.024 55.9554 156.12 55.9927 156.194 56.0674C156.269 56.1421 156.306 56.2381 156.306 56.3554V58.0034C156.306 58.1101 156.269 58.2061 156.194 58.2914C156.12 58.3661 156.024 58.4034 155.906 58.4034H154.354C153.917 58.4034 153.576 58.5261 153.33 58.7714C153.096 59.0061 152.978 59.3421 152.978 59.7794V63.8754C152.978 63.9927 152.936 64.0887 152.85 64.1634C152.776 64.2381 152.68 64.2754 152.562 64.2754H150.578ZM157.828 54.7554C157.711 54.7554 157.615 54.7181 157.54 54.6434C157.465 54.5687 157.428 54.4727 157.428 54.3554V52.9154C157.428 52.7981 157.465 52.7021 157.54 52.6274C157.615 52.5527 157.711 52.5154 157.828 52.5154H159.748C159.865 52.5154 159.961 52.5527 160.036 52.6274C160.111 52.7021 160.148 52.7981 160.148 52.9154V54.3554C160.148 54.4727 160.111 54.5687 160.036 54.6434C159.961 54.7181 159.865 54.7554 159.748 54.7554H157.828ZM157.844 64.2754C157.727 64.2754 157.631 64.2381 157.556 64.1634C157.481 64.0887 157.444 63.9927 157.444 63.8754V56.3554C157.444 56.2381 157.481 56.1421 157.556 56.0674C157.631 55.9927 157.727 55.9554 157.844 55.9554H159.732C159.849 55.9554 159.945 55.9927 160.02 56.0674C160.095 56.1421 160.132 56.2381 160.132 56.3554V63.8754C160.132 63.9821 160.095 64.0781 160.02 64.1634C159.945 64.2381 159.849 64.2754 159.732 64.2754H157.844ZM167.11 64.4354C166.043 64.4354 165.217 64.0781 164.63 63.3634V63.8754C164.63 63.9821 164.593 64.0781 164.518 64.1634C164.443 64.2381 164.347 64.2754 164.23 64.2754H162.422C162.315 64.2754 162.219 64.2381 162.134 64.1634C162.059 64.0781 162.022 63.9821 162.022 63.8754V53.3154C162.022 53.1981 162.059 53.1021 162.134 53.0274C162.219 52.9527 162.315 52.9154 162.422 52.9154H164.374C164.491 52.9154 164.587 52.9527 164.662 53.0274C164.737 53.1021 164.774 53.1981 164.774 53.3154V56.7394C165.371 56.1101 166.15 55.7954 167.11 55.7954C168.145 55.7954 168.961 56.1314 169.558 56.8034C170.155 57.4754 170.475 58.3874 170.518 59.5394C170.529 59.6781 170.534 59.8701 170.534 60.1154C170.534 60.3501 170.529 60.5367 170.518 60.6754C170.465 61.8701 170.145 62.7981 169.558 63.4594C168.971 64.1101 168.155 64.4354 167.11 64.4354ZM166.246 62.2914C166.747 62.2914 167.105 62.1421 167.318 61.8434C167.542 61.5447 167.67 61.1341 167.702 60.6114C167.723 60.3981 167.734 60.2327 167.734 60.1154C167.734 59.9981 167.723 59.8327 167.702 59.6194C167.67 59.0967 167.542 58.6861 167.318 58.3874C167.105 58.0887 166.747 57.9394 166.246 57.9394C165.777 57.9394 165.419 58.0834 165.174 58.3714C164.929 58.6594 164.795 59.0221 164.774 59.4594L164.758 60.0514L164.774 60.6594C164.806 61.1394 164.934 61.5341 165.158 61.8434C165.393 62.1421 165.755 62.2914 166.246 62.2914ZM175.956 64.4354C174.676 64.4354 173.668 64.0887 172.932 63.3954C172.196 62.7021 171.812 61.6941 171.78 60.3714V59.8114C171.823 58.5527 172.212 57.5714 172.948 56.8674C173.695 56.1527 174.692 55.7954 175.94 55.7954C176.847 55.7954 177.609 55.9821 178.228 56.3554C178.857 56.7181 179.327 57.2194 179.636 57.8594C179.956 58.4994 180.116 59.2354 180.116 60.0674V60.4514C180.116 60.5581 180.079 60.6541 180.004 60.7394C179.929 60.8141 179.833 60.8514 179.716 60.8514H174.596V60.9634C174.617 61.4647 174.74 61.8701 174.964 62.1794C175.188 62.4887 175.513 62.6434 175.94 62.6434C176.207 62.6434 176.425 62.5901 176.596 62.4834C176.767 62.3661 176.921 62.2274 177.06 62.0674C177.156 61.9501 177.231 61.8807 177.284 61.8594C177.348 61.8274 177.444 61.8114 177.572 61.8114H179.556C179.652 61.8114 179.732 61.8434 179.796 61.9074C179.871 61.9607 179.908 62.0354 179.908 62.1314C179.908 62.4087 179.748 62.7287 179.428 63.0914C179.119 63.4541 178.665 63.7687 178.068 64.0354C177.471 64.3021 176.767 64.4354 175.956 64.4354ZM177.3 59.2674V59.2354C177.3 58.7127 177.177 58.3021 176.932 58.0034C176.697 57.6941 176.367 57.5394 175.94 57.5394C175.524 57.5394 175.193 57.6941 174.948 58.0034C174.713 58.3021 174.596 58.7127 174.596 59.2354V59.2674H177.3ZM185.598 64.2754C185.491 64.2754 185.395 64.2381 185.31 64.1634C185.235 64.0781 185.198 63.9821 185.198 63.8754V53.4754C185.198 53.3581 185.235 53.2621 185.31 53.1874C185.395 53.1127 185.491 53.0754 185.598 53.0754H187.294C187.561 53.0754 187.742 53.1767 187.838 53.3794L191.742 59.5234V53.4754C191.742 53.3581 191.779 53.2621 191.854 53.1874C191.939 53.1127 192.035 53.0754 192.142 53.0754H194.062C194.179 53.0754 194.275 53.1127 194.35 53.1874C194.425 53.2621 194.462 53.3581 194.462 53.4754V63.8594C194.462 63.9767 194.425 64.0781 194.35 64.1634C194.275 64.2381 194.179 64.2754 194.062 64.2754H192.35C192.115 64.2754 191.939 64.1741 191.822 63.9714L187.918 58.0514V63.8754C187.918 63.9821 187.881 64.0781 187.806 64.1634C187.731 64.2381 187.635 64.2754 187.518 64.2754H185.598ZM200.458 64.4354C199.135 64.4354 198.117 64.1207 197.402 63.4914C196.687 62.8621 196.298 61.9767 196.234 60.8354C196.223 60.6967 196.218 60.4567 196.218 60.1154C196.218 59.7741 196.223 59.5341 196.234 59.3954C196.298 58.2647 196.698 57.3847 197.434 56.7554C198.17 56.1154 199.178 55.7954 200.458 55.7954C201.749 55.7954 202.762 56.1154 203.498 56.7554C204.234 57.3847 204.634 58.2647 204.698 59.3954C204.709 59.5341 204.714 59.7741 204.714 60.1154C204.714 60.4567 204.709 60.6967 204.698 60.8354C204.634 61.9767 204.245 62.8621 203.53 63.4914C202.815 64.1207 201.791 64.4354 200.458 64.4354ZM200.458 62.4834C200.927 62.4834 201.274 62.3447 201.498 62.0674C201.722 61.7794 201.85 61.3421 201.882 60.7554C201.893 60.6487 201.898 60.4354 201.898 60.1154C201.898 59.7954 201.893 59.5821 201.882 59.4754C201.85 58.8994 201.717 58.4674 201.482 58.1794C201.258 57.8914 200.917 57.7474 200.458 57.7474C199.573 57.7474 199.103 58.3234 199.05 59.4754L199.034 60.1154L199.05 60.7554C199.071 61.3421 199.194 61.7794 199.418 62.0674C199.653 62.3447 199.999 62.4834 200.458 62.4834ZM208.373 64.2754C208.224 64.2754 208.107 64.2434 208.021 64.1794C207.947 64.1047 207.888 64.0034 207.845 63.8754L205.541 56.4674L205.509 56.3074C205.509 56.2114 205.547 56.1314 205.621 56.0674C205.696 55.9927 205.781 55.9554 205.877 55.9554H207.525C207.653 55.9554 207.76 55.9927 207.845 56.0674C207.931 56.1314 207.984 56.2061 208.005 56.2914L209.349 60.8674L210.789 56.3074C210.811 56.2221 210.864 56.1421 210.949 56.0674C211.035 55.9927 211.147 55.9554 211.285 55.9554H212.341C212.48 55.9554 212.592 55.9927 212.677 56.0674C212.763 56.1421 212.816 56.2221 212.837 56.3074L214.277 60.8674L215.621 56.2914C215.643 56.2061 215.696 56.1314 215.781 56.0674C215.867 55.9927 215.973 55.9554 216.101 55.9554H217.749C217.845 55.9554 217.931 55.9927 218.005 56.0674C218.08 56.1314 218.117 56.2114 218.117 56.3074L218.085 56.4674L215.781 63.8754C215.739 64.0034 215.675 64.1047 215.589 64.1794C215.515 64.2434 215.403 64.2754 215.253 64.2754H213.813C213.536 64.2754 213.36 64.1421 213.285 63.8754L211.813 59.4914L210.341 63.8754C210.267 64.1421 210.091 64.2754 209.813 64.2754H208.373Z" fill="white"/>
<defs>
<filter id="filter0_f" x="0.0856934" y="0.0664062" width="319.829" height="168" filterUnits="userSpaceOnUse" color-interpolation-filters="sRGB">
<feFlood flood-opacity="0" result="BackgroundImageFix"/>
<feBlend mode="normal" in="SourceGraphic" in2="BackgroundImageFix" result="shape"/>
<feGaussianBlur stdDeviation="27" result="effect1_foregroundBlur"/>
</filter>
</defs>
</svg>
